#N canvas 617 157 796 483 10;
#X obj 284 280 r MIDI-channel;
#X obj 245 28 inlet;
#X obj 358 28 inlet;
#X obj 301 28 inlet;
#X obj 457 31 loadbang;
#X obj 410 30 inlet;
#X obj 523 33 inlet;
#X obj 410 56 int \$4;
#X obj 245 109 list prepend 0;
#X obj 245 130 route 0 1;
#X obj 245 73 makenote \$1 \$2;
#X obj 483 425 dac~;
#X obj 430 189 pack 0 0;
#X text 597 191 1992-2000 by Karlheinz Essl;
#X text 598 209 vs 3.2;
#X obj 245 309 noteout;
#X obj 523 62 route float;
#X obj 59 71 hsl 144 15 0.01 1 1 1 empty empty volume 20 9 0 10 -262144
-1 -1 9200 0;
#X obj 352 110 * 1;
#X obj 396 301 bassemu~;
#X msg 396 269 \$1 0.6 0.3 0.0001 0.5;
#X obj 491 382 *~;
#X obj 506 356 line~;
#X obj 488 224 unpack 0 0;
#X obj 545 247 / 127;
#X obj 545 270 select 0;
#X msg 590 323 \$1 50;
#X msg 545 323 0 200;
#X floatatom 355 143 5 0 0 0 - - -;
#X connect 0 0 15 2;
#X connect 1 0 10 0;
#X connect 2 0 10 2;
#X connect 3 0 10 1;
#X connect 4 0 7 0;
#X connect 5 0 7 0;
#X connect 6 0 16 0;
#X connect 7 0 8 1;
#X connect 8 0 9 0;
#X connect 9 0 15 0;
#X connect 9 1 12 0;
#X connect 10 0 8 0;
#X connect 10 1 18 0;
#X connect 12 0 23 0;
#X connect 16 0 15 2;
#X connect 17 0 18 1;
#X connect 18 0 15 1;
#X connect 18 0 12 1;
#X connect 18 0 28 0;
#X connect 19 0 21 0;
#X connect 20 0 19 0;
#X connect 21 0 11 0;
#X connect 21 0 11 1;
#X connect 22 0 21 1;
#X connect 23 0 20 0;
#X connect 23 1 24 0;
#X connect 24 0 25 0;
#X connect 25 0 27 0;
#X connect 25 1 26 0;
#X connect 26 0 22 0;
#X connect 27 0 22 0;
#X coords 0 -1 1 1 160 40 1 50 50;
