#N canvas 329 178 1020 581 10;
#N canvas 0 0 450 300 (subpatch) 0;
#X array E09-signal 882 float 0;
#X coords 0 1.02 882 -1.02 200 80 1;
#X restore 569 61 graph;
#N canvas 0 0 450 300 (subpatch) 0;
#X array E09-spectrum 259 float 0;
#X coords 0 0.51 258 -0.008 259 130 1;
#X restore 567 182 graph;
#X text 602 139 ---- 0.02 seconds ----;
#X text 597 313 2;
#X text 628 313 4;
#X text 567 313 0;
#X text 605 328 -- partial number --;
#X text 633 41 WAVEFORM;
#X text 661 164 SPECTRUM;
#X text 827 298 0;
#X text 828 180 0.5;
#X text 660 313 6;
#X text 693 313 8;
#X text 721 313 10;
#X text 753 313 12;
#X text 785 313 14;
#X obj 231 43 samplerate~;
#X obj 231 26 loadbang;
#X obj 231 60 / 256;
#X obj 231 77 phasor~;
#X obj 199 171 *~ 2;
#X obj 304 19 bng 15 250 50 0 empty empty empty 17 7 0 10 -262144 -1
-1;
#X obj 22 153 cos~;
#X obj 353 162 expr~ if($v1>0.5 \, 1 \, -1);
#X text 283 76 generar una sierra entre 0 y 1;
#X text 8 135 generar senoidal;
#X text 355 142 generar cuadrada;
#X text 141 155 generar sierra entre -1 y 1;
#X obj 23 202 s~ seno;
#X obj 198 217 s~ sierra;
#X obj 354 186 s~ cuadrada;
#X obj 241 286 hradio 30 1 0 4 empty empty empty 0 -8 0 10 -262144
-1 -1 0;
#X text 42 268 Graficar cada una independiente:;
#X text 277 270 sin;
#X text 306 270 saw;
#X text 336 270 sq;
#N canvas 235 432 450 300 crossfade 0;
#X obj 42 14 inlet;
#X obj 144 36 r~ seno;
#X obj 198 36 r~ sierra;
#X obj 260 36 r~ cuadrada;
#X obj 122 191 *~;
#X obj 177 195 *~;
#X obj 238 197 *~;
#X obj 230 271 tgl 18 0 empty empty empty 0 -6 0 8 -262144 -1 -1 1
1;
#X text 251 270 <-- repeatedly;
#X obj 231 250 loadbang;
#N canvas 122 211 558 377 fft1 0;
#X obj 19 61 inlet~;
#X obj 208 212 inlet;
#X obj 29 92 rfft~;
#X obj 29 125 *~;
#X obj 60 125 *~;
#X obj 29 155 sqrt~;
#X obj 332 109 block~ 4096 1;
#X obj 29 181 biquad~ 0 0 0 0 1;
#X text 93 93 Fourier series;
#X text 98 146 magnitude;
#X text 96 131 calculate;
#X text 21 3 This subpatch computes the spectrum of the incoming signal
with a (rectangular windowed) FFT. FFTs aren't properly introduced
until much later.;
#X text 83 61 signal to analyze;
#X text 193 164 delay two samples;
#X text 191 182 for better graphing;
#X obj 231 259 metro 500;
#X obj 231 236 inlet;
#X text 284 234 toggle to graph repeatedly;
#X text 262 212 bang to graph once;
#X obj 19 295 tabwrite~ E09-signal;
#X obj 231 298 tabwrite~ E09-spectrum;
#X obj 29 205 /~ 4096;
#X msg 209 322 \; pd dsp 1;
#X connect 0 0 2 0;
#X connect 0 0 19 0;
#X connect 1 0 19 0;
#X connect 1 0 20 0;
#X connect 1 0 22 0;
#X connect 2 0 3 0;
#X connect 2 0 3 1;
#X connect 2 1 4 0;
#X connect 2 1 4 1;
#X connect 3 0 5 0;
#X connect 4 0 5 0;
#X connect 5 0 7 0;
#X connect 7 0 21 0;
#X connect 15 0 19 0;
#X connect 15 0 20 0;
#X connect 16 0 15 0;
#X connect 16 0 22 0;
#X connect 21 0 20 0;
#X restore 170 270 pd fft1;
#X obj 42 129 clip 0 0.5;
#X obj 42 168 - 0.5;
#X obj 42 190 * -1;
#X obj 72 208 * 2;
#X obj 326 107 switch~;
#X obj 382 43 inlet;
#X obj 365 78 tgl 15 0 empty empty empty 17 7 0 10 -262144 -1 -1 1
1;
#X obj 109 161 * 2;
#X obj 75 60 clip 0.5 1;
#X obj 75 82 - 0.5;
#X obj 107 103 * 2;
#X obj 207 101 - 0.5;
#X obj 208 123 * 2;
#X connect 0 0 19 0;
#X connect 0 0 11 0;
#X connect 1 0 4 1;
#X connect 2 0 5 1;
#X connect 3 0 6 1;
#X connect 4 0 10 0;
#X connect 5 0 10 0;
#X connect 6 0 10 0;
#X connect 7 0 10 2;
#X connect 9 0 7 0;
#X connect 11 0 12 0;
#X connect 11 0 18 0;
#X connect 12 0 13 0;
#X connect 13 0 14 0;
#X connect 14 0 4 0;
#X connect 16 0 17 0;
#X connect 17 0 15 0;
#X connect 17 0 7 0;
#X connect 18 0 6 0;
#X connect 19 0 20 0;
#X connect 20 0 21 0;
#X connect 20 0 22 0;
#X connect 21 0 5 0;
#X connect 22 0 23 0;
#X connect 23 0 6 0;
#X restore 240 430 pd crossfade;
#X obj 243 385 hsl 128 15 0 1 0 0 empty empty empty -2 -8 0 10 -262144
-1 -1 12700 1;
#N canvas 0 0 450 300 independientes 0;
#X obj 42 14 inlet;
#X obj 144 36 r~ seno;
#X obj 198 36 r~ sierra;
#X obj 260 36 r~ cuadrada;
#X obj 113 93 == 1;
#X obj 128 114 *~;
#X obj 183 118 *~;
#X obj 168 97 == 2;
#X obj 244 120 *~;
#X obj 229 99 == 3;
#X obj 236 194 tgl 18 0 empty empty empty 0 -6 0 8 -262144 -1 -1 0
1;
#X text 257 193 <-- repeatedly;
#X obj 237 173 loadbang;
#N canvas 122 211 558 377 fft1 0;
#X obj 19 61 inlet~;
#X obj 208 212 inlet;
#X obj 29 92 rfft~;
#X obj 29 125 *~;
#X obj 60 125 *~;
#X obj 29 155 sqrt~;
#X obj 332 109 block~ 4096 1;
#X obj 29 181 biquad~ 0 0 0 0 1;
#X text 93 93 Fourier series;
#X text 98 146 magnitude;
#X text 96 131 calculate;
#X text 21 3 This subpatch computes the spectrum of the incoming signal
with a (rectangular windowed) FFT. FFTs aren't properly introduced
until much later.;
#X text 83 61 signal to analyze;
#X text 193 164 delay two samples;
#X text 191 182 for better graphing;
#X obj 231 259 metro 500;
#X obj 231 236 inlet;
#X text 284 234 toggle to graph repeatedly;
#X text 262 212 bang to graph once;
#X obj 19 295 tabwrite~ E09-signal;
#X obj 231 298 tabwrite~ E09-spectrum;
#X obj 29 205 /~ 4096;
#X msg 209 322 \; pd dsp 1;
#X connect 0 0 2 0;
#X connect 0 0 19 0;
#X connect 1 0 19 0;
#X connect 1 0 20 0;
#X connect 1 0 22 0;
#X connect 2 0 3 0;
#X connect 2 0 3 1;
#X connect 2 1 4 0;
#X connect 2 1 4 1;
#X connect 3 0 5 0;
#X connect 4 0 5 0;
#X connect 5 0 7 0;
#X connect 7 0 21 0;
#X connect 15 0 19 0;
#X connect 15 0 20 0;
#X connect 16 0 15 0;
#X connect 16 0 22 0;
#X connect 21 0 20 0;
#X restore 176 193 pd fft1;
#X obj 71 156 != 0;
#X obj 67 238 switch~;
#X msg 109 207 0;
#X connect 0 0 4 0;
#X connect 0 0 7 0;
#X connect 0 0 9 0;
#X connect 0 0 14 0;
#X connect 1 0 5 1;
#X connect 2 0 6 1;
#X connect 3 0 8 1;
#X connect 4 0 5 0;
#X connect 5 0 13 0;
#X connect 6 0 13 0;
#X connect 7 0 6 0;
#X connect 8 0 13 0;
#X connect 9 0 8 0;
#X connect 10 0 13 2;
#X connect 12 0 10 0;
#X connect 14 0 15 0;
#X connect 14 0 10 0;
#X connect 16 0 15 0;
#X restore 241 318 pd independientes;
#X obj 309 410 tgl 15 0 empty empty empty 17 7 0 10 -262144 -1 -1 1
1;
#X text 326 406 Turn crossfading on;
#X text 56 356 hacer crossfading entre las tres:;
#X text 242 270 off;
#X text 234 367 sin;
#X text 294 366 sq;
#X obj 198 123 *~ -1;
#X obj 199 188 +~ 1;
#X connect 16 0 18 0;
#X connect 17 0 16 0;
#X connect 18 0 19 0;
#X connect 19 0 22 0;
#X connect 19 0 23 0;
#X connect 19 0 45 0;
#X connect 20 0 46 0;
#X connect 21 0 16 0;
#X connect 22 0 28 0;
#X connect 23 0 30 0;
#X connect 31 0 38 0;
#X connect 37 0 36 0;
#X connect 39 0 36 1;
#X connect 45 0 20 0;
#X connect 46 0 29 0;
