#N canvas 464 19 1017 713 10;
#N canvas 136 97 684 300 gemwin 0;
#X obj 132 136 gemwin;
#X obj 67 89 outlet;
#X obj 67 10 inlet;
#X obj 67 41 route create;
#X msg 67 70 set destroy;
#X msg 142 68 set create;
#X msg 198 112 destroy;
#X msg 132 112 create \, 1;
#X obj 309 97 loadbang;
#X obj 309 147 route dimen;
#X obj 309 167 unpack f f;
#X obj 309 193 s screenwidth;
#X obj 366 216 s screenheight;
#X msg 262 77 bang;
#X msg 310 119 reset \, border 0 \, dimen 768 768 \, color 0 0.129
0.16;
#X connect 2 0 3 0;
#X connect 2 0 13 0;
#X connect 3 0 4 0;
#X connect 3 0 7 0;
#X connect 3 1 5 0;
#X connect 3 1 6 0;
#X connect 4 0 1 0;
#X connect 5 0 1 0;
#X connect 6 0 0 0;
#X connect 7 0 0 0;
#X connect 8 0 14 0;
#X connect 9 0 10 0;
#X connect 10 0 11 0;
#X connect 10 1 12 0;
#X connect 13 0 14 0;
#X connect 14 0 0 0;
#X connect 14 0 9 0;
#X restore 153 46 pd gemwin;
#X msg 153 27 destroy;
#X obj 153 85 gemmouse;
#X obj 384 187 / 255;
#X floatatom 385 212 5 0 0 0 - - -;
#X text 306 514 0 33 41 azul fondo;
#X text 306 539 255 107 71 naranja;
#X text 305 526 184 216 210 azul claro;
#X obj 423 189 / 255;
#X floatatom 424 214 5 0 0 0 - - -;
#X obj 465 187 / 255;
#X floatatom 466 212 5 0 0 0 - - -;
#X text 223 297 record;
#X obj 219 329 tgl 15 0 empty empty empty 17 7 0 10 -262144 -1 -1 0
1;
#X obj 263 329 pack f f f;
#X obj 153 420 unpack f f f;
#X obj 153 119 / 768;
#X obj 187 119 / 768;
#N canvas 773 58 497 627 drawpoints 0;
#X obj 57 25 gemhead;
#X obj 120 198 gemlist;
#X obj 120 155 until;
#X obj 57 71 route gem_state;
#X obj 57 93 route float;
#X obj 57 49 t a a;
#X obj 120 335 translateXYZ 0 0 0;
#X obj 176 293 tabread xxx;
#X obj 186 193 f;
#X obj 211 193 + 1;
#X obj 120 176 t b b;
#X obj 251 297 tabread yyy;
#X obj 120 221 separator;
#X obj 176 318 * 4;
#X obj 250 318 * 4;
#X obj 194 19 inlet;
#X obj 254 65 unpack f f f;
#X obj 258 154 table xxx 100;
#X obj 258 173 table yyy 100;
#X obj 186 259 % 100;
#X obj 250 255 % 100;
#X obj 254 130 tabwrite xxx;
#X obj 334 129 tabwrite yyy;
#X obj 334 109 swap;
#X obj 254 92 t f f;
#X obj 254 111 swap;
#X obj 194 42 route size;
#X obj 120 135 f 100;
#X msg 120 113 bang;
#X obj 194 110 t f f f;
#X obj 355 82 * -1;
#X obj 147 418 color;
#X obj 330 281 tabread distancias-gauss;
#X obj 147 438 alpha;
#X obj 186 212 t f f f;
#X obj 330 242 % 100;
#X obj 147 459 circle 0.005;
#X obj 186 238 + 0;
#X obj 250 238 + 0;
#X obj 380 442 + 0.01;
#X obj 358 197 - 0;
#X obj 330 259 moses 2;
#X obj 403 248 print;
#X obj 330 221 + -2;
#X msg 184 158 0;
#X obj 77 279 moses 2;
#X obj 250 274 moses 2;
#X obj 194 61 t f b;
#X obj 169 79 cnv 15 30 30 empty empty empty 20 12 0 14 -258113 -66577
0;
#X msg 173 85 45;
#X obj 120 361 t a a;
#X obj 120 543 circle 0.01;
#X msg 195 387 0.721 0.847 0.823 \$1;
#X obj 120 522 color 0.721 0.847 0.823;
#X obj 330 370 + 0.01;
#X obj 330 346 * 0.2;
#X obj 330 302 pow 0.5;
#X obj 380 349 / 5;
#X obj 273 17 loadbang;
#X msg 255 505 0.721 0.847 0.823 \$1;
#X obj 330 320 t f f f;
#X obj 281 479 + 0.3;
#X obj 281 446 * 0.7;
#X connect 0 0 5 0;
#X connect 1 0 12 0;
#X connect 2 0 10 0;
#X connect 3 0 4 0;
#X connect 4 1 28 0;
#X connect 5 0 3 0;
#X connect 5 1 1 1;
#X connect 6 0 50 0;
#X connect 7 0 13 0;
#X connect 8 0 9 0;
#X connect 8 0 34 0;
#X connect 9 0 8 1;
#X connect 10 0 1 0;
#X connect 10 1 8 0;
#X connect 11 0 14 0;
#X connect 12 0 6 0;
#X connect 13 0 6 1;
#X connect 14 0 6 2;
#X connect 15 0 26 0;
#X connect 16 0 24 0;
#X connect 16 1 25 1;
#X connect 16 2 30 0;
#X connect 19 0 45 0;
#X connect 20 0 46 0;
#X connect 23 0 22 0;
#X connect 23 1 22 1;
#X connect 24 0 25 0;
#X connect 24 1 23 0;
#X connect 25 0 21 0;
#X connect 25 1 21 1;
#X connect 26 0 47 0;
#X connect 26 1 16 0;
#X connect 27 0 2 0;
#X connect 28 0 27 0;
#X connect 28 0 44 0;
#X connect 29 0 27 1;
#X connect 29 1 19 1;
#X connect 29 2 20 1;
#X connect 29 2 40 0;
#X connect 30 0 23 1;
#X connect 31 0 33 0;
#X connect 32 0 56 0;
#X connect 33 0 36 0;
#X connect 34 0 37 0;
#X connect 34 1 38 0;
#X connect 34 2 43 0;
#X connect 35 0 41 0;
#X connect 36 0 53 0;
#X connect 37 0 19 0;
#X connect 38 0 20 0;
#X connect 39 0 36 1;
#X connect 40 0 35 1;
#X connect 41 1 32 0;
#X connect 43 0 35 0;
#X connect 44 0 8 1;
#X connect 45 1 7 0;
#X connect 46 1 11 0;
#X connect 47 0 49 0;
#X connect 47 1 29 0;
#X connect 49 0 29 0;
#X connect 50 1 31 0;
#X connect 52 0 31 1;
#X connect 53 0 51 0;
#X connect 54 0 52 0;
#X connect 55 0 54 0;
#X connect 56 0 60 0;
#X connect 57 0 39 0;
#X connect 58 0 49 0;
#X connect 59 0 53 1;
#X connect 60 0 62 0;
#X connect 60 1 55 0;
#X connect 60 2 57 0;
#X connect 61 0 59 0;
#X connect 62 0 61 0;
#X restore 580 43 pd drawpoints;
#X text 324 121 <---ancho de la pantalla;
#X obj 366 257 tgl 15 0 empty empty empty 17 7 0 10 -262144 -1 -1 0
1;
#X obj 153 258 tgl 15 0 empty empty empty 17 7 0 10 -262144 -1 -1 1
1;
#X obj 187 102 moses 740;
#X text 251 94 <--- Alto de la franja de los controles;
#X obj 221 136 spigot;
#X msg 261 119 1;
#X msg 289 119 0;
#X obj 153 344 gestureRecorder 1;
#X obj 153 175 s gemmousex;
#X obj 187 192 s gemmousey;
#X obj 221 209 s gemmouseclick;
#X obj 219 312 r gemmouseclick;
#X obj 425 312 r gemmousey;
#X obj 355 312 r gemmousex;
#X text 384 256 over;
#X text 169 255 click;
#X obj 252 362 bng 15 250 50 0 empty empty empty 17 7 0 10 -262144
-1 -1;
#X obj 153 440 * 8;
#X obj 153 457 - 4;
#X obj 187 439 * 8;
#X obj 187 456 - 4;
#X obj 187 475 * -1;
#X text 65 34 start render;
#X text 29 123 get mouse positions;
#X text 59 239 make a button;
#X text 13 342 record n play gestures;
#N canvas 0 0 490 442 cursor 0;
#X obj 85 36 inlet;
#X obj 194 36 inlet;
#X obj 310 33 inlet;
#X text 83 18 color;
#X text 189 16 x;
#X text 325 13 y;
#X obj 58 196 gemhead;
#X obj 58 216 translateXYZ;
#X obj 58 285 alpha;
#X obj 58 268 color 1 1 1 1;
#X msg 239 251 1 0.419 0.278 1;
#X text 177 192 grabando;
#X text 263 194 reproduciendo;
#X text 179 177 _____Color del cursor_____;
#X obj 58 302 circle 0.05;
#X obj 219 216 sel 1 0;
#X msg 133 251 1 0.419 0.278 0.2;
#X msg 351 254 0.721 0.847 0.823;
#X connect 0 0 15 0;
#X connect 1 0 7 1;
#X connect 2 0 7 2;
#X connect 6 0 7 0;
#X connect 7 0 9 0;
#X connect 8 0 14 0;
#X connect 9 0 8 0;
#X connect 10 0 9 1;
#X connect 15 0 10 0;
#X connect 15 1 17 0;
#X connect 16 0 9 1;
#X connect 17 0 9 1;
#X restore 128 507 pd cursor;
#X obj 189 282 hsl 128 15 0 2 0 1 empty empty speed 48 7 0 10 -262144
-1 -1 5901 1;
#N canvas 634 389 537 300 recordingText 0;
#X obj 247 40 inlet;
#X obj 348 44 inlet;
#X obj 384 44 inlet;
#X text 231 25 record click;
#X text 351 26 x;
#X text 395 27 y;
#X obj 154 59 gemhead;
#X obj 156 97 translateXYZ;
#X obj 193 164 loadbang;
#X obj 247 60 sel 0 1;
#X obj 156 121 color 0 0 0 0.5;
#X obj 156 246 text2d;
#X obj 156 143 alpha;
#X obj 353 178 * 8;
#X obj 353 197 - 4;
#X obj 384 134 * 8;
#X obj 384 153 - 4;
#X obj 384 172 * -1;
#X msg 251 93 1 0.419 0.278 0;
#X msg 358 95 1 0.419 0.278 1;
#X obj 351 230 + 0.3;
#X obj 384 194 + 0.1;
#X msg 305 229 8;
#X msg 193 186 text rec;
#X connect 0 0 9 0;
#X connect 1 0 13 0;
#X connect 2 0 15 0;
#X connect 6 0 7 0;
#X connect 7 0 10 0;
#X connect 8 0 23 0;
#X connect 9 0 18 0;
#X connect 9 1 19 0;
#X connect 10 0 12 0;
#X connect 12 0 11 0;
#X connect 13 0 14 0;
#X connect 14 0 20 0;
#X connect 15 0 16 0;
#X connect 16 0 17 0;
#X connect 17 0 21 0;
#X connect 18 0 10 1;
#X connect 18 0 22 0;
#X connect 19 0 10 1;
#X connect 19 0 22 0;
#X connect 20 0 7 1;
#X connect 21 0 7 2;
#X connect 22 0 11 1;
#X connect 23 0 11 0;
#X restore 265 443 pd recordingText;
#X obj 311 409 r gemmousex;
#X obj 358 426 r gemmousey;
#X obj 53 555 gemhead;
#X obj 53 657 text2d;
#X obj 87 606 loadbang;
#X obj 152 242 GEMbutton play 0.5 -2 -3.86 0.7 0.11;
#X obj 53 572 translateXYZ 1.3 3.8 0;
#X obj 53 623 alpha;
#X text 56 535 --------Título-------;
#X obj 297 640 outlet;
#X text 230 660 sale un paquete x \, y \, z con la posición del mouse
;
#X obj 297 606 list split 2;
#X obj 375 606 r gemmousex;
#X obj 447 606 r gemmousey;
#X obj 375 623 pack f f;
#X obj 153 149 spigot;
#X obj 187 156 spigot;
#X obj 153 8 inlet;
#X text 191 9 entra un bang para iniciar;
#X obj 580 23 inlet;
#X text 668 18 entra la info de los puntos (presets). Paquetes de puntos
que vienen asi: index \, x \, y. Tambien podemos mandar un mensaje
de | size n ( que nos dice de que tamaño es la lista que llega (es
decir con cuantos presets estoy trabajando);
#X obj 437 27 inlet;
#X text 408 3 external noteon;
#X text 371 13 (noteon generated by MIDI note);
#X msg 465 167 210;
#X obj 53 589 color 0.721 0.847 0.823 1;
#X msg 110 640 30;
#X obj 706 133 inlet;
#X text 707 114 Velocidad;
#X obj 692 643 outlet;
#X text 691 659 1 when interface is pressed 0 when not;
#X msg 384 167 184;
#X msg 423 169 216;
#X text 449 526 0.721 0.847 0.823;
#X msg 87 623 text /////MORPHASYNTH 0.5.0;
#X msg 198 608 font FuturaBook.ttf;
#X connect 0 0 1 0;
#X connect 1 0 0 0;
#X connect 2 0 16 0;
#X connect 2 1 22 0;
#X connect 2 2 24 0;
#X connect 2 2 65 1;
#X connect 2 2 64 1;
#X connect 3 0 4 0;
#X connect 8 0 9 0;
#X connect 10 0 11 0;
#X connect 13 0 27 2;
#X connect 14 0 27 3;
#X connect 15 0 37 0;
#X connect 15 1 39 0;
#X connect 16 0 64 0;
#X connect 17 0 65 0;
#X connect 21 0 46 0;
#X connect 21 0 27 0;
#X connect 22 0 17 0;
#X connect 22 0 25 0;
#X connect 22 1 26 0;
#X connect 24 0 30 0;
#X connect 24 0 78 0;
#X connect 25 0 24 1;
#X connect 26 0 24 1;
#X connect 27 0 15 0;
#X connect 27 0 60 0;
#X connect 27 1 36 0;
#X connect 31 0 13 0;
#X connect 31 0 48 0;
#X connect 32 0 14 1;
#X connect 33 0 14 0;
#X connect 37 0 38 0;
#X connect 38 0 46 1;
#X connect 39 0 40 0;
#X connect 40 0 41 0;
#X connect 41 0 46 2;
#X connect 47 0 27 1;
#X connect 49 0 48 1;
#X connect 50 0 48 2;
#X connect 51 0 55 0;
#X connect 53 0 83 0;
#X connect 53 0 75 0;
#X connect 53 0 84 0;
#X connect 54 0 21 0;
#X connect 54 1 20 0;
#X connect 55 0 74 0;
#X connect 56 0 52 0;
#X connect 60 0 58 0;
#X connect 61 0 63 0;
#X connect 62 0 63 1;
#X connect 63 0 58 0;
#X connect 64 0 28 0;
#X connect 65 0 29 0;
#X connect 66 0 1 0;
#X connect 68 0 18 0;
#X connect 70 0 21 0;
#X connect 73 0 10 0;
#X connect 74 0 56 0;
#X connect 75 0 52 1;
#X connect 76 0 47 0;
#X connect 80 0 3 0;
#X connect 81 0 8 0;
#X connect 83 0 52 0;
#X connect 84 0 52 0;
