#N canvas 423 162 450 399 10;
#X obj 37 177 directory;
#X obj 37 198 select . .. .gitkeep;
#X msg 37 241 bang;
#X msg 37 53 bang;
#X obj 37 31 inlet;
#X obj 220 299 outlet;
#X obj 200 335 f;
#X obj 181 224 t b b a;
#X obj 37 75 t b b b;
#X obj 222 335 + 1;
#X obj 200 362 outlet;
#X msg 322 92 1;
#X obj 56 112 symbol \$1;
#X msg 56 152 read \$1;
#X text 93 18 Reads the folder selected as argument and counts how
many elements are in it (excluding . .. and .gitkeep). Outputs the
total sum when banged.;
#X connect 0 0 1 0;
#X connect 1 0 2 0;
#X connect 1 1 2 0;
#X connect 1 2 2 0;
#X connect 1 3 7 0;
#X connect 2 0 0 0;
#X connect 3 0 8 0;
#X connect 4 0 3 0;
#X connect 6 0 9 0;
#X connect 6 0 10 0;
#X connect 7 0 2 0;
#X connect 7 1 6 0;
#X connect 7 2 5 0;
#X connect 8 0 0 0;
#X connect 8 1 12 0;
#X connect 8 2 11 0;
#X connect 9 0 6 1;
#X connect 11 0 6 1;
#X connect 12 0 13 0;
#X connect 13 0 0 0;
