#N canvas 425 266 538 206 10;
#X obj 110 110 outlet~;
#X text 7 18 MIDI IN;
#X text 51 111 AUDIO OUT;
#N canvas 658 41 450 300 panic 0;
#X obj 87 217 until;
#X obj 110 161 t b b;
#X obj 118 244 counter;
#X msg 87 193 128;
#X text 174 243 counts out 0 to 127 (all notes);
#X obj 118 314 outlet;
#X msg 118 278 \$1 0;
#X obj 110 128 inlet;
#X connect 0 0 2 0;
#X connect 1 0 3 0;
#X connect 1 1 2 2;
#X connect 2 0 6 0;
#X connect 3 0 0 0;
#X connect 6 0 5 0;
#X connect 7 0 1 0;
#X restore 110 43 pd panic;
#X obj 110 18 inlet;
#X obj 55 18 inlet;
#X obj 219 75 parameters;
#X obj 110 75 synthesizer;
#X text 148 18 PANIC;
#X obj 326 -56 inlet;
#X text 367 -57 Which descriptor X;
#X obj 345 -32 inlet;
#X text 383 -33 Which descriptor Y;
#X obj 364 -9 inlet;
#X text 400 -10 X;
#X text 422 15 Y;
#X obj 383 14 inlet;
#X text 185 73 <---;
#X text 290 74 <---;
#X obj 326 75 morpher;
#X obj 399 38 inlet;
#X text 437 39 Cursor width;
#X connect 3 0 7 0;
#X connect 4 0 3 0;
#X connect 5 0 7 0;
#X connect 7 0 0 0;
#X connect 9 0 19 0;
#X connect 11 0 19 1;
#X connect 13 0 19 2;
#X connect 16 0 19 3;
#X connect 20 0 19 4;
