#N canvas 412 91 835 596 10;
#X obj 178 144 \$2;
#X obj 287 144 \$3;
#X obj 382 143 \$4;
#X text 312 142 posición x;
#X text 411 142 posición y;
#X text 506 138 ancho;
#X text 584 140 alto;
#X obj 316 269 alpha;
#X obj 316 250 color 0.721 0.847 0.823 1;
#X obj 316 216 gemhead 2;
#X obj 316 288 rectangle 0.5 0.2;
#X obj 316 233 translateXYZ -3.45 -3.75 0;
#X obj 542 315 alpha;
#X obj 542 279 translateXYZ -3.45 -3.75 0;
#X obj 542 296 color 0 0.129 0.16 1;
#X obj 541 248 gemhead 3;
#X obj 542 344 rectangle 0.49 0.18;
#X obj 62 218 gemhead 4;
#X msg 141 294 14;
#X obj 62 256 color 0.721 0.847 0.823 1;
#X obj 62 311 text2d 14;
#X text 191 14 alto;
#X text 87 95 nombre;
#X text 202 144 valor inicial;
#X text 281 259 fondo;
#X obj 290 73 loadbang;
#X obj 290 94 t b b b b b b;
#X text 501 305 frente;
#X msg 80 286 text \$1;
#X obj 141 275 loadbang;
#X obj 678 232 + 0;
#X obj 607 238 + 0;
#X obj 80 111 symbol \$1;
#X obj 482 142 \$5;
#X obj 561 140 \$6;
#X obj 266 459 t f f;
#X obj 277 505 &&;
#X obj 351 447 t f f;
#X obj 361 505 &&;
#X obj 277 522 &&;
#X obj 240 539 *;
#X obj 182 324 gemmouse;
#X obj 277 549 outlet;
#X obj 722 317 - 0.01;
#X obj 762 317 - 0.01;
#X obj 282 328 r screenwidth;
#X obj 282 345 t b f;
#X obj 282 379 /;
#X msg 282 362 8;
#X obj 267 396 *;
#X obj 267 413 - 4;
#X obj 366 345 t b f;
#X obj 366 379 /;
#X msg 366 362 8;
#X obj 351 396 *;
#X obj 351 413 - 4;
#X obj 366 328 r screenheight;
#X obj 351 430 * -1;
#X obj 233 449 +;
#X obj 246 487 <;
#X obj 294 488 >;
#X obj 423 426 +;
#X obj 330 488 <;
#X obj 378 488 >;
#X obj 313 436 -;
#X obj 460 427 -;
#X floatatom 204 374 5 0 0 0 - - -;
#X obj 240 558 outlet;
#X obj 168 177 + 0;
#X obj 62 237 translateXYZ -2.59 -2.78 0.01;
#X text 635 410 comment;
#X msg 617 474 1 0.419 0.278 1;
#X msg 588 520 0.721 0.847 0.823 1;
#X obj 461 549 sel 0 1;
#X obj 164 221 + 0.03;
#X connect 1 0 11 1;
#X connect 1 0 31 0;
#X connect 1 0 58 0;
#X connect 1 0 64 0;
#X connect 1 0 68 0;
#X connect 2 0 11 2;
#X connect 2 0 30 0;
#X connect 2 0 61 0;
#X connect 2 0 65 0;
#X connect 2 0 74 0;
#X connect 7 0 10 0;
#X connect 8 0 7 0;
#X connect 9 0 11 0;
#X connect 11 0 8 0;
#X connect 12 0 16 0;
#X connect 13 0 14 0;
#X connect 14 0 12 0;
#X connect 15 0 13 0;
#X connect 17 0 69 0;
#X connect 18 0 20 1;
#X connect 19 0 20 0;
#X connect 25 0 26 0;
#X connect 26 0 32 0;
#X connect 26 1 0 0;
#X connect 26 2 1 0;
#X connect 26 3 2 0;
#X connect 26 4 33 0;
#X connect 26 5 34 0;
#X connect 28 0 20 0;
#X connect 29 0 18 0;
#X connect 30 0 13 2;
#X connect 31 0 13 1;
#X connect 32 0 28 0;
#X connect 33 0 10 1;
#X connect 33 0 43 0;
#X connect 33 0 58 1;
#X connect 33 0 64 1;
#X connect 34 0 10 2;
#X connect 34 0 44 0;
#X connect 34 0 61 1;
#X connect 34 0 65 1;
#X connect 35 0 59 0;
#X connect 35 1 60 0;
#X connect 36 0 39 0;
#X connect 37 0 62 0;
#X connect 37 1 63 0;
#X connect 38 0 39 1;
#X connect 39 0 40 1;
#X connect 39 0 42 0;
#X connect 40 0 67 0;
#X connect 40 0 73 0;
#X connect 41 0 49 0;
#X connect 41 1 54 0;
#X connect 41 2 66 0;
#X connect 41 2 40 0;
#X connect 43 0 16 1;
#X connect 44 0 16 2;
#X connect 45 0 46 0;
#X connect 46 0 48 0;
#X connect 46 1 47 1;
#X connect 47 0 49 1;
#X connect 48 0 47 0;
#X connect 49 0 50 0;
#X connect 50 0 35 0;
#X connect 51 0 53 0;
#X connect 51 1 52 1;
#X connect 52 0 54 1;
#X connect 53 0 52 0;
#X connect 54 0 55 0;
#X connect 55 0 57 0;
#X connect 56 0 51 0;
#X connect 57 0 37 0;
#X connect 58 0 59 1;
#X connect 59 0 36 0;
#X connect 60 0 36 1;
#X connect 61 0 62 1;
#X connect 62 0 38 0;
#X connect 63 0 38 1;
#X connect 64 0 60 1;
#X connect 65 0 63 1;
#X connect 68 0 69 1;
#X connect 69 0 19 0;
#X connect 71 0 8 1;
#X connect 72 0 8 1;
#X connect 73 0 72 0;
#X connect 73 1 71 0;
#X connect 74 0 69 2;
