#N canvas 206 365 684 308 10;
#X obj 380 79 tgl 15 0 empty empty empty 17 7 0 10 -262144 -1 -1 0
1;
#N canvas 421 228 753 355 record 0;
#X obj 164 161 f;
#X obj 191 161 + 1;
#X msg 233 144 0;
#X text 56 281 reset;
#X obj 324 166 timer;
#X obj 145 124 t f b b;
#X obj 324 141 t b b;
#X text 209 63 record;
#X text 258 142 reset;
#X obj 289 37 sel 1 0;
#N canvas 533 247 450 300 resetArrays 0;
#X obj 135 49 inlet;
#X msg 107 105 \; \$0-elapsed const 0;
#X msg 107 147 \; \$0-xnrec const 0;
#X msg 105 189 \; \$0-ynrec const 0;
#X obj 132 74 t b b b b;
#X msg 105 226 \; \$0-znrec const 0;
#X connect 0 0 4 0;
#X connect 4 0 1 0;
#X connect 4 1 2 0;
#X connect 4 2 3 0;
#X connect 4 3 5 0;
#X restore 328 113 pd resetArrays;
#X obj 145 105 spigot;
#X obj 100 240 spigot;
#X msg 242 111 1;
#X obj 289 94 t b b b;
#X msg 338 88 0;
#X obj 338 59 t b b;
#X obj 164 181 t f f f f f;
#X obj 237 232 f;
#X obj 289 17 inlet;
#X obj 237 290 outlet;
#X text 239 310 Tamaño del gesto;
#N canvas 0 0 450 300 (subpatch) 0;
#X array \$0-xnrec 10000 float 0;
#X coords 0 1 9999 0 200 50 1;
#X restore 519 30 graph;
#N canvas 0 0 450 300 (subpatch) 0;
#X array \$0-ynrec 10000 float 0;
#X coords 0 1 9999 0 200 50 1;
#X restore 519 98 graph;
#N canvas 0 0 450 300 (subpatch) 0;
#X array \$0-elapsed 10000 float 0;
#X coords 0 1000 9999 0 200 50 1;
#X restore 524 232 graph;
#X obj 237 256 - 1;
#X obj 400 26 inlet;
#X obj 400 48 unpack f f f;
#X obj 114 299 spigot;
#X obj 83 202 tabwrite \$0-xnrec;
#X obj 100 259 tabwrite \$0-ynrec;
#X obj 114 318 tabwrite \$0-ynrec;
#X obj 324 198 tabwrite \$0-elapsed;
#N canvas 0 0 450 300 (subpatch) 0;
#X array \$0-znrec 10000 float 0;
#X coords 0 1 9999 0 200 50 1;
#X restore 519 166 graph;
#X connect 0 0 1 0;
#X connect 0 0 17 0;
#X connect 1 0 0 1;
#X connect 2 0 0 1;
#X connect 4 0 32 0;
#X connect 5 0 29 0;
#X connect 5 1 0 0;
#X connect 5 2 6 0;
#X connect 6 0 4 0;
#X connect 6 1 4 1;
#X connect 9 0 14 0;
#X connect 9 1 16 0;
#X connect 11 0 5 0;
#X connect 12 0 30 0;
#X connect 13 0 11 1;
#X connect 13 0 12 1;
#X connect 14 0 13 0;
#X connect 14 1 2 0;
#X connect 14 2 10 0;
#X connect 15 0 11 1;
#X connect 15 0 12 1;
#X connect 16 0 15 0;
#X connect 16 1 18 0;
#X connect 17 0 29 1;
#X connect 17 1 30 1;
#X connect 17 2 31 1;
#X connect 17 3 32 1;
#X connect 17 4 18 1;
#X connect 18 0 25 0;
#X connect 19 0 9 0;
#X connect 25 0 20 0;
#X connect 26 0 27 0;
#X connect 27 0 11 0;
#X connect 27 1 12 0;
#X connect 27 2 28 0;
#X connect 28 0 31 0;
#X restore 380 96 pd record;
#N canvas 583 82 677 528 play 0;
#X obj 156 28 inlet;
#X msg 87 131 bang;
#X obj 140 148 t b b;
#X obj 208 165 f;
#X obj 244 161 + 1;
#X obj 140 366 spigot;
#X obj 282 216 < 500;
#X msg 223 138 0;
#X obj 140 345 delay;
#X obj 156 114 t b b;
#X text 293 299 speed;
#X text 159 11 start;
#X obj 260 24 inlet;
#X text 260 7 speed;
#X obj 282 370 outlet;
#X obj 282 236 t f f;
#X obj 282 349 sel 0;
#X obj 333 24 inlet;
#X text 333 7 tamaño;
#X obj 208 188 t f f f f f;
#X obj 142 441 pack f f f;
#X obj 157 205 tabread \$0-xnrec;
#X obj 159 249 tabread \$0-ynrec;
#X obj 142 464 outlet;
#X obj 255 270 tabread \$0-elapsed;
#X obj 180 290 tabread \$0-znrec;
#X obj 255 320 / 1;
#X obj 156 62 sel 1 0;
#X msg 420 293 0;
#X obj 503 380 tabread \$0-xnrec;
#X obj 522 403 tabread \$0-ynrec;
#X obj 542 424 tabread \$0-znrec;
#X obj 503 360 t f f f;
#X msg 503 341 0;
#X text 559 314 return to zero;
#X connect 0 0 27 0;
#X connect 1 0 2 0;
#X connect 2 0 8 0;
#X connect 2 1 3 0;
#X connect 3 0 4 0;
#X connect 3 0 19 0;
#X connect 4 0 3 1;
#X connect 5 0 1 0;
#X connect 6 0 15 0;
#X connect 7 0 3 1;
#X connect 8 0 5 0;
#X connect 9 0 1 0;
#X connect 9 1 7 0;
#X connect 12 0 26 1;
#X connect 15 0 16 0;
#X connect 15 1 5 1;
#X connect 16 0 14 0;
#X connect 17 0 6 1;
#X connect 19 0 21 0;
#X connect 19 1 22 0;
#X connect 19 2 25 0;
#X connect 19 3 24 0;
#X connect 19 4 6 0;
#X connect 20 0 23 0;
#X connect 21 0 20 0;
#X connect 22 0 20 1;
#X connect 24 0 26 0;
#X connect 25 0 20 2;
#X connect 26 0 8 1;
#X connect 27 0 9 0;
#X connect 27 1 28 0;
#X connect 28 0 5 1;
#X connect 29 0 20 0;
#X connect 30 0 20 1;
#X connect 31 0 20 2;
#X connect 32 0 29 0;
#X connect 32 1 30 0;
#X connect 32 2 31 0;
#X connect 33 0 32 0;
#X restore 113 113 pd play;
#X obj 152 161 outlet;
#X obj 113 32 inlet;
#X obj 380 34 inlet;
#X obj 160 30 inlet;
#X text 117 15 play;
#X text 157 12 speed;
#X text 379 18 record;
#X obj 584 79 inlet;
#X text 581 62 packed data;
#X text 150 175 bang when stop;
#X obj 113 260 outlet;
#X text 109 275 packed data;
#X obj 200 30 loadbang;
#X obj 200 60 \$1;
#X obj 584 243 spigot;
#X obj 113 231 spigot;
#X obj 380 57 t f f f;
#X obj 285 214 * -1;
#X obj 286 195 - 1;
#X text 187 233 si estoy grabando \, hago bypass a la reproducción
del último gesto y envío los datos que entran.;
#X connect 0 0 1 0;
#X connect 1 0 2 2;
#X connect 2 0 18 0;
#X connect 2 1 3 0;
#X connect 4 0 2 0;
#X connect 5 0 19 0;
#X connect 6 0 2 1;
#X connect 10 0 1 1;
#X connect 10 0 17 0;
#X connect 15 0 16 0;
#X connect 16 0 2 1;
#X connect 17 0 13 0;
#X connect 18 0 13 0;
#X connect 19 0 0 0;
#X connect 19 1 17 1;
#X connect 19 2 21 0;
#X connect 20 0 18 1;
#X connect 21 0 20 0;
