#N canvas 381 71 743 575 10;
#X text 106 169 play;
#X text 164 224 record;
#X obj 175 239 tgl 15 0 empty empty empty 17 7 0 10 -262144 -1 -1 0
1;
#X floatatom 142 208 5 0 0 0 - - -;
#X text 135 191 speed;
#X obj 220 241 pack f f f;
#X obj 109 281 unpack f f f;
#X obj 220 41 grid grid1 200 0 199 200 0 199 1 1 1 10 10 318 139;
#X obj 109 340 grid grid1 200 0 199 200 0 199 1 1 1 10 10 202 489;
#X msg 109 322 goto \$1 \$2;
#X obj 109 303 pack f f;
#X obj 109 258 gestureRecorder 2;
#X text 430 49 1 click record;
#X text 429 69 2 drag over upper grid;
#X text 429 86 3 unclick record;
#X text 430 103 4 adjust speed (or set up in creation arguments);
#X text 430 119 5 click bang;
#X obj 109 188 tgl 15 0 empty empty empty 17 7 0 10 -262144 -1 -1 0
1;
#X obj 208 280 bng 15 250 50 0 empty empty empty 17 7 0 10 -262144
-1 -1;
#X connect 2 0 11 2;
#X connect 3 0 11 1;
#X connect 5 0 11 3;
#X connect 6 0 10 0;
#X connect 6 1 10 1;
#X connect 7 0 5 0;
#X connect 7 1 5 1;
#X connect 9 0 8 0;
#X connect 10 0 9 0;
#X connect 11 0 6 0;
#X connect 11 1 18 0;
#X connect 17 0 11 0;
