#N canvas 43 49 1016 404 10;
#X obj 98 121 random 7;
#X obj 98 140 > 5;
#X obj 98 157 sel 1;
#X obj 98 191 sel 0 1 2 3 4 5 6 7;
#X msg 98 208 0;
#X msg 158 208 3;
#X msg 184 208 5;
#X msg 211 208 7;
#X msg 268 208 10;
#X msg 297 208 12;
#X obj 163 225 +;
#X obj 98 174 random 7;
#X obj 163 259 makenote 100 4000;
#X obj 338 208 * 12;
#X msg 239 208 0;
#X msg 125 208 0;
#X obj 163 242 + 36;
#X obj 338 174 random 4;
#X obj 61 104 metro 100;
#X text 503 49 random chords;
#X obj 504 160 sel 0 1 2 3 4 5 6 7;
#X msg 504 177 0;
#X msg 564 177 3;
#X msg 590 177 5;
#X msg 617 177 7;
#X msg 674 177 10;
#X msg 703 177 12;
#X obj 569 194 +;
#X obj 504 143 random 7;
#X obj 763 177 * 12;
#X obj 569 211 + 36;
#X obj 505 116 until;
#X obj 569 262 makenote 100 6000;
#X obj 505 73 metro 7000;
#X msg 505 93 5;
#X msg 531 177 2;
#X msg 645 177 8;
#X obj 763 143 random 3;
#X obj 184 344 pack f f;
#X obj 184 364 outlet;
#X obj 55 2 tgl 15 0 ssinglenote rsinglenote empty 17 7 0 10 -262144
-1 -1 0 1;
#X obj 72 2 tgl 15 0 schord rchord empty 17 7 0 10 -262144 -1 -1 0
1;
#X obj -162 115 metro 1000;
#X obj -162 184 select 0 1 2 3;
#X msg -162 221 48;
#X msg -130 221 51;
#X msg -95 221 54;
#X msg -60 221 55;
#X obj -162 260 + 0;
#X text 73 79 random notes;
#X obj -162 291 makenote 100 800;
#X text -133 96 same notes always;
#X text 1 1 notes;
#X obj 38 2 tgl 15 0 ssinglenote rsinglenote empty 17 7 0 10 -262144
-1 -1 0 1;
#X obj -162 148 count 4;
#X connect 0 0 1 0;
#X connect 1 0 2 0;
#X connect 2 0 11 0;
#X connect 2 0 17 0;
#X connect 3 0 4 0;
#X connect 3 1 15 0;
#X connect 3 2 5 0;
#X connect 3 3 6 0;
#X connect 3 4 7 0;
#X connect 3 5 14 0;
#X connect 3 6 8 0;
#X connect 3 7 9 0;
#X connect 4 0 10 0;
#X connect 5 0 10 0;
#X connect 6 0 10 0;
#X connect 7 0 10 0;
#X connect 8 0 10 0;
#X connect 9 0 10 0;
#X connect 10 0 16 0;
#X connect 11 0 3 0;
#X connect 12 0 38 0;
#X connect 12 1 38 1;
#X connect 13 0 10 1;
#X connect 14 0 10 0;
#X connect 15 0 10 0;
#X connect 16 0 12 0;
#X connect 17 0 13 0;
#X connect 18 0 0 0;
#X connect 20 0 21 0;
#X connect 20 1 35 0;
#X connect 20 2 22 0;
#X connect 20 3 23 0;
#X connect 20 4 24 0;
#X connect 20 5 36 0;
#X connect 20 6 25 0;
#X connect 20 7 26 0;
#X connect 21 0 27 0;
#X connect 22 0 27 0;
#X connect 23 0 27 0;
#X connect 24 0 27 0;
#X connect 25 0 27 0;
#X connect 26 0 27 0;
#X connect 27 0 30 0;
#X connect 28 0 20 0;
#X connect 29 0 27 1;
#X connect 30 0 32 0;
#X connect 31 0 28 0;
#X connect 31 0 37 0;
#X connect 32 0 38 0;
#X connect 32 1 38 1;
#X connect 33 0 34 0;
#X connect 34 0 31 0;
#X connect 35 0 27 0;
#X connect 36 0 27 0;
#X connect 37 0 29 0;
#X connect 38 0 39 0;
#X connect 40 0 18 0;
#X connect 41 0 33 0;
#X connect 42 0 54 0;
#X connect 43 0 44 0;
#X connect 43 1 45 0;
#X connect 43 2 46 0;
#X connect 43 3 47 0;
#X connect 44 0 48 0;
#X connect 45 0 48 0;
#X connect 46 0 48 0;
#X connect 47 0 48 0;
#X connect 48 0 50 0;
#X connect 50 0 38 0;
#X connect 50 1 38 1;
#X connect 53 0 42 0;
#X connect 54 0 43 0;
#X coords 0 -1 1 1 90 19 2 0 0;
