#N canvas 151 100 705 490 10;
#X obj -211 61 resonant_hipass~;
#N canvas 756 200 450 300 square-wave 0;
#X obj 50 100 phasor~ 440;
#X obj 160 99 phasor~ 440;
#X obj 182 14 loadbang;
#X msg 124 50 0;
#X msg 211 49 0.5;
#X obj 126 144 -~;
#X obj 126 184 outlet~;
#X connect 0 0 5 0;
#X connect 1 0 5 1;
#X connect 2 0 3 0;
#X connect 2 0 4 0;
#X connect 3 0 0 1;
#X connect 4 0 1 1;
#X connect 5 0 6 0;
#X restore -60 -203 pd square-wave;
#X obj -354 -202 pddp/dsp;
#X msg -211 -91 frequency \$1;
#X obj -246 -131 hsl 128 15 20 22000 1 1 empty empty Frequency -2 -8
0 10 -262144 -1 -1 6300 1;
#X floatatom -249 -91 5 0 0 0 - - -;
#X obj -353 -45 hsl 128 15 0.05 1 0 1 empty empty Q -2 -8 0 10 -262144
-1 -1 3400 1;
#X floatatom -356 -10 5 0 0 0 - - -;
#X msg -318 -11 q \$1;
#X obj -48 158 multiplex~;
#X obj 26 60 resonant_hpf~;
#X obj 164 -131 hsl 128 15 20 22000 1 1 empty empty Frequency -2 -8
0 10 -262144 -1 -1 2700 1;
#X floatatom 161 -89 5 0 0 0 - - -;
#X obj 196 -28 hsl 128 15 0.05 100 1 1 empty empty Q -2 -8 0 10 -262144
-1 -1 6000 1;
#X floatatom 193 5 5 0 0 0 - - -;
#X msg 199 -89 f \$1;
#X msg 231 4 q \$1;
#X obj -47 249 dac~;
#X obj -48 201 *~ 0.1;
#X obj -48 111 hradio 15 1 0 2 empty empty empty 0 -8 0 10 -262144
-1 -1 0;
#X text -289 60 OLD ONE -->;
#X text 113 59 <-- NEW ONE;
#X connect 0 1 9 0;
#X connect 1 0 0 1;
#X connect 1 0 10 1;
#X connect 3 0 0 0;
#X connect 4 0 3 0;
#X connect 4 0 5 0;
#X connect 6 0 8 0;
#X connect 6 0 7 0;
#X connect 8 0 0 0;
#X connect 9 0 18 0;
#X connect 10 1 9 1;
#X connect 11 0 15 0;
#X connect 11 0 12 0;
#X connect 13 0 16 0;
#X connect 13 0 14 0;
#X connect 15 0 10 0;
#X connect 16 0 10 0;
#X connect 18 0 17 0;
#X connect 18 0 17 1;
#X connect 19 0 9 0;
