#N canvas 0 54 1280 746 10;
#X obj -561 -203 inlet;
#X obj 495 514 adsr;
#X obj 327 555 *~;
#X obj 327 600 outlet~;
#X obj -561 -83 mtof;
#X obj -561 -159 unpack f f;
#X obj -483 -120 s \$0-velocity;
#X obj 366 470 r \$0-velocity;
#X msg 401 503 \$1;
#X text -562 -223 Midi note in;
#X obj 380 437 r _envelope-a;
#X obj 475 440 r _envelope-d;
#X obj 506 463 r _envelope-s;
#X obj 535 486 r _envelope-r;
#X obj -190 -183 r _osc1-waveform;
#X obj -144 -156 r _osc1-amplitude;
#X obj -12 -83 r _lfo1-freq;
#X obj -52 -104 r _lfo1-waveform;
#X obj 24 -61 r _lfo1-to-freq;
#X text 97 -24 OSCILLATOR 1;
#X obj 160 -137 r _lfo1-to-amplitude;
#X obj 84 -82 r _osc1-finetune;
#X obj 324 -167 r _osc2-amplitude;
#X obj 388 -127 r _lfo2-waveform;
#X obj 449 -89 r _lfo2-to-freq;
#X obj 589 -155 r _lfo2-to-amplitude;
#X obj 523 -109 r _osc2-finetune;
#X obj 420 -108 r _lfo2-freq;
#X obj 294 -188 r _osc2-waveform;
#X text 519 -48 OSCILLATOR 2;
#X obj 339 24 +~;
#X obj 397 56 r _osc3-amplitude;
#X obj 486 97 r _lfo3-waveform;
#X obj 566 136 r _lfo3-to-freq;
#X obj 629 60 r _lfo3-to-amplitude;
#X obj 366 35 r _osc3-waveform;
#X obj 528 117 r _lfo3-freq;
#X obj 602 99 r _osc3-finetune;
#X text 625 163 OSCILLATOR 3;
#X obj 339 179 +~;
#X obj 456 96 / 2;
#X obj -561 -120 stripnote;
#X obj -647 -76 bang;
#X obj -381 -90 bang;
#X obj -647 -43 s \$0-noteon;
#X obj -381 -64 s \$0-noteoff;
#X obj 110 -101 r \$0-noteon;
#X obj 558 -131 r \$0-noteon;
#X obj 617 80 r \$0-noteon;
#X obj -381 -118 == 0;
#X obj 512 327 noise~;
#X obj 340 279 +~;
#X obj 512 370 *~;
#X obj 598 386 line~;
#X obj 596 365 pack f 15;
#X obj 609 301 r _noise-amplitude;
#X obj 1 -24 oscillator-lfo;
#X obj 425 -51 oscillator-lfo;
#X obj 529 163 oscillator-lfo;
#X obj -561 -15 s dbg_midi-freq;
#X obj -536 -47 s \$0-midi-freq;
#X obj -96 -129 r \$0-midi-freq;
#X obj 454 77 r \$0-midi-freq;
#X obj 359 -146 r \$0-midi-freq;
#X connect 0 0 5 0;
#X connect 1 0 2 1;
#X connect 2 0 3 0;
#X connect 4 0 59 0;
#X connect 4 0 60 0;
#X connect 5 0 41 0;
#X connect 5 1 6 0;
#X connect 5 1 41 1;
#X connect 5 1 49 0;
#X connect 7 0 8 0;
#X connect 8 0 1 0;
#X connect 10 0 1 1;
#X connect 11 0 1 2;
#X connect 12 0 1 3;
#X connect 13 0 1 4;
#X connect 14 0 56 0;
#X connect 15 0 56 1;
#X connect 16 0 56 4;
#X connect 17 0 56 3;
#X connect 18 0 56 5;
#X connect 20 0 56 8;
#X connect 21 0 56 6;
#X connect 22 0 57 1;
#X connect 23 0 57 3;
#X connect 24 0 57 5;
#X connect 25 0 57 8;
#X connect 26 0 57 6;
#X connect 27 0 57 4;
#X connect 28 0 57 0;
#X connect 30 0 39 0;
#X connect 31 0 58 1;
#X connect 32 0 58 3;
#X connect 33 0 58 5;
#X connect 34 0 58 8;
#X connect 35 0 58 0;
#X connect 36 0 58 4;
#X connect 37 0 58 6;
#X connect 39 0 51 0;
#X connect 40 0 58 2;
#X connect 41 0 42 0;
#X connect 41 0 4 0;
#X connect 42 0 44 0;
#X connect 43 0 45 0;
#X connect 46 0 56 7;
#X connect 47 0 57 7;
#X connect 48 0 58 7;
#X connect 49 0 43 0;
#X connect 50 0 52 0;
#X connect 51 0 2 0;
#X connect 52 0 51 1;
#X connect 53 0 52 1;
#X connect 54 0 53 0;
#X connect 55 0 54 0;
#X connect 56 0 30 0;
#X connect 57 0 30 1;
#X connect 58 0 39 1;
#X connect 61 0 56 2;
#X connect 62 0 40 0;
#X connect 63 0 57 2;
