#N canvas 295 22 1680 984 10;
#X obj 19 78 cnv 15 550 155 empty empty MIDI_IN 20 12 0 11 -232576
-66577 0;
#X obj 19 279 cnv 15 450 55 empty empty AUDIO_OUT 20 12 0 11 -204786
-66577 0;
#X obj 273 338 cnv 15 120 60 empty empty PRESETS 20 12 0 11 -261234
-66577 0;
#X obj 19 236 cnv 15 450 40 empty empty SYNTH 20 12 0 11 -261682 -66577
0;
#X obj 146 175 inlet;
#X obj 281 89 pd/keyboard;
#X obj 181 248 2.DSP;
#X obj 29 50 cnv 15 1 1 empty empty MORPHASYNTH_v0.2 20 12 0 30 -262144
-66577 0;
#N canvas 591 345 672 290 presets 0;
#X obj 97 -22 r preset-load;
#X obj 12 -22 r preset-save;
#X obj 525 -25 r filename;
#X obj 183 -22 r id;
#X obj 231 -22 r name;
#X obj 305 -22 r category;
#X obj 378 -23 r author;
#X obj 451 -25 r comments;
#X obj 12 3 pd/presets;
#X connect 0 0 8 1;
#X connect 1 0 8 0;
#X connect 2 0 8 7;
#X connect 3 0 8 2;
#X connect 4 0 8 3;
#X connect 5 0 8 4;
#X connect 6 0 8 5;
#X connect 7 0 8 6;
#X restore 302 366 pd presets;
#X obj 273 401 cnv 15 120 60 empty empty SYNTH_PARAMS 20 12 0 11 -203904
-66577 0;
#N canvas 403 79 1265 718 sliders 0;
#X obj -1120 -533 cnv 15 190 195 empty empty OSC1 20 12 0 10 -233017
-66577 0;
#X text -989 -417 WAVEFORM;
#X text -989 -358 FINETUNE;
#X obj -1120 -335 cnv 15 190 260 empty empty LFO1 20 12 0 10 -233017
-66577 0;
#X obj -1120 -72 cnv 15 190 260 empty empty ENVELOPE 20 12 0 10 -233017
-66577 0;
#X text -969 49 DECAY;
#X text -981 108 SUSTAIN;
#X text -980 167 RELEASE;
#X text -993 -278 FREQUENCY;
#X text -987 -218 WAVEFORM;
#X text -1011 -99 TO FREQUENCY;
#X obj -927 -533 cnv 15 190 195 empty empty OSC2 20 12 0 10 -233017
-66577 0;
#X text -794 -418 WAVEFORM;
#X text -792 -359 FINETUNE;
#X obj -927 -335 cnv 15 190 260 empty empty LFO2 20 12 0 10 -233017
-66577 0;
#X text -798 -275 FREQUENCY;
#X text -793 -217 WAVEFORM;
#X text -815 -157 TO AMPLITUDE;
#X text -815 -99 TO FREQUENCY;
#X obj -734 -533 cnv 15 210 195 empty empty OSC3 20 12 0 10 -233017
-66577 0;
#X text -597 -474 AMPLITUDE;
#X text -590 -417 WAVEFORM;
#X text -590 -361 FINETUNE;
#X obj -734 -335 cnv 15 210 260 empty empty LFO3 20 12 0 10 -233017
-66577 0;
#X text -597 -278 FREQUENCY;
#X text -591 -220 WAVEFORM;
#X text -614 -161 TO AMPLITUDE;
#X text -615 -100 TO FREQUENCY;
#X text -993 -477 AMPLITUDE;
#X text -1011 -159 TO AMPLITUDE;
#X obj -521 -533 cnv 15 210 270 empty empty LO_PASS 20 12 0 10 -233017
-66577 0;
#X text -381 -473 FREQUENCY;
#X text -383 -416 RESONANCE;
#X text -382 -356 KEYFOLLOW;
#X text -371 -298 CONTOUR;
#X obj -521 -260 cnv 15 210 270 empty empty HI_PASS 20 12 0 10 -233017
-66577 0;
#X text -384 -200 FREQUENCY;
#X text -384 -142 RESONANCE;
#X text -382 -83 KEYFOLLOW;
#X text -372 -26 CONTOUR;
#X obj -308 -533 cnv 15 225 270 empty empty LO_PASS_ENVELOPE 20 12
0 10 -233017 -66577 0;
#X text -158 -469 ATTACK;
#X text -150 -407 DECAY;
#X text -163 -349 SUSTAIN;
#X text -161 -289 RELEASE;
#X obj -80 -533 cnv 15 210 270 empty empty LO_PASS_LFO 20 12 0 10 -233017
-66577 0;
#X text 56 -469 FREQUENCY;
#X text 61 -410 WAVEFORM;
#X text 57 -353 AMPLITUDE;
#X text -799 -477 AMPLITUDE;
#X obj -308 -260 cnv 15 225 270 empty empty HI_PASS_ENVELOPE 20 12
0 10 -233017 -66577 0;
#X text -158 -196 ATTACK;
#X text -150 -134 DECAY;
#X text -163 -76 SUSTAIN;
#X text -161 -16 RELEASE;
#X obj -80 -260 cnv 15 210 270 empty empty HI_PASS_LFO 20 12 0 10 -233017
-66577 0;
#X text 56 -196 FREQUENCY;
#X text 61 -137 WAVEFORM;
#X text 57 -79 AMPLITUDE;
#X obj -723 -253 pd/zlider lfo3-waveform;
#X obj -1118 -514 pd/zlider osc1-amplitude;
#X obj -1118 -454 pd/zlider osc1-waveform;
#X obj -1118 -395 pd/zlider osc1-finetune;
#X obj -1119 -316 pd/zlider lfo1-freq;
#X obj -1120 -257 pd/zlider lfo1-waveform;
#X obj -1119 -197 pd/zlider lfo1-to-amplitude;
#X obj -1119 -137 pd/zlider lfo1-to-freq;
#X obj -1117 -52 pd/zlider envelope-a;
#X obj -1116 10 pd/zlider envelope-d;
#X obj -1117 69 pd/zlider envelope-s;
#X obj -1118 129 pd/zlider envelope-r;
#X obj -924 -137 pd/zlider lfo2-to-freq;
#X obj -924 -196 pd/zlider lfo2-to-amplitude;
#X obj -924 -255 pd/zlider lfo2-waveform;
#X obj -924 -313 pd/zlider lfo2-freq;
#X obj -925 -396 pd/zlider osc2-finetune;
#X obj -925 -455 pd/zlider osc2-waveform;
#X obj -925 -515 pd/zlider osc2-amplitude;
#X obj -722 -512 pd/zlider osc3-amplitude;
#X obj -722 -454 pd/zlider osc3-waveform;
#X obj -722 -396 pd/zlider osc3-finetune;
#X obj -723 -312 pd/zlider lfo3-freq;
#X obj -723 -195 pd/zlider lfo3-to-amplitude;
#X obj -723 -138 pd/zlider lfo3-to-freq;
#X obj -508 -64 pd/zlider hp-contour;
#X obj -508 -121 pd/zlider hp-keyfollow;
#X obj -509 -180 pd/zlider hp-resonance;
#X obj -510 -238 pd/zlider hp-freq;
#X obj -508 -336 pd/zlider lp-contour;
#X obj -508 -395 pd/zlider lp-keyfollow;
#X obj -508 -453 pd/zlider lp-resonance;
#X obj -508 -510 pd/zlider lp-freq;
#X obj -300 -508 pd/zlider lp-envelope-a;
#X obj -299 -446 pd/zlider lp-envelope-d;
#X obj -299 -388 pd/zlider lp-envelope-s;
#X obj -299 -327 pd/zlider lp-envelope-r;
#X obj -300 -235 pd/zlider hp-envelope-a;
#X obj -299 -172 pd/zlider hp-envelope-d;
#X obj -299 -115 pd/zlider hp-envelope-s;
#X obj -299 -54 pd/zlider hp-envelope-r;
#X obj -69 -508 pd/zlider lp-lfo-freq;
#X obj -69 -449 pd/zlider lp-lfo-waveform;
#X obj -69 -391 pd/zlider lp-lfo-amplitude;
#X obj -69 -235 pd/zlider hp-lfo-freq;
#X obj -69 -176 pd/zlider hp-lfo-waveform;
#X obj -69 -118 pd/zlider hp-lfo-amplitude;
#X text -974 -13 ATTACK;
#X text -969 49 DECAY;
#X text -980 167 RELEASE;
#X obj -927 -72 cnv 15 190 260 empty empty NOISE 20 12 0 11 -233017
-66577 0;
#X text -799 -10 AMPLITUDE;
#X obj -925 -49 pd/zlider noise-amplitude;
#X restore 299 428 pd sliders;
#X obj 19 338 cnv 15 250 400 empty empty MORPHAZINATOR 20 12 0 11 -204786
-66577 0;
#X text 37 353 Drag to Morphasize!!!;
#X obj 85 398 nbx 2 14 1 12 0 1 which-mfcc-x empty MFCC-X -50 7 1 12
-262144 -1 -1 2 256;
#X obj 85 414 nbx 2 14 1 12 0 1 which-mfcc-y empty MFCC-Y -50 7 1 12
-262144 -1 -1 10 256;
#X obj 242 290 output~;
#X obj 180 291 outlet~;
#X obj 208 174 notein;
#X obj 208 202 pack f f;
#X obj 43 465 gcanvas 200 200;
#X obj 43 446 r canvas;
#X obj 139 665 clip 0 200;
#X obj 43 665 clip 0 200;
#X obj 43 699 s xpos;
#X obj 139 699 s ypos;
#N canvas 338 72 866 716 paint 0;
#X obj 118 423 list split;
#X obj 249 423 list split;
#X obj 146 445 list split 1;
#X obj 277 445 list split 1;
#X text 289 586 draw a rectangle with args: color x y width height
;
#X obj 146 616 s canvas;
#X msg 326 206 reset;
#X msg 146 586 rect black \$1 \$2 1 1;
#X obj 146 561 pack f f;
#X obj 99 383 t a a a;
#X obj 175 386 + 48;
#X obj 306 391 + 48;
#X msg 100 293 row \$1;
#X obj 100 310 s tomatrix;
#X obj 99 332 r frommatrix;
#X obj 100 199 until;
#X obj 100 233 f;
#X obj 126 233 + 1;
#X msg 100 101 bang;
#X msg 140 201 0;
#X obj 100 273 + 1;
#X obj 188 269 < 44;
#X obj 197 63 t b f;
#X obj 279 63 t b f;
#X obj 100 252 t f f;
#X obj 99 356 spigot;
#X obj 215 182 sel 0;
#X obj 188 339 t f f;
#X obj 188 300 change;
#X text 143 18 mfcc-x;
#X text 277 19 mfcc-y;
#X obj 147 38 r which-mfcc-x;
#X obj 279 37 r which-mfcc-y;
#X text 316 488 OJO!!!!!!!!!!!!!!!!!!!!!!!!!!!!!!!!!!!!!!!!!!!!!!!!!
;
#X obj 146 494 + 1;
#X obj 277 494 + 1;
#X obj 146 510 * 100;
#X obj 277 511 * 100;
#X text 318 501 Hay MFCC que son negativos. hay que sumar uno y multiplicar
por 100 para que ocupe todo el canvas de 200;
#X obj 274 631 print;
#X obj 587 232 pack f f;
#X obj 587 271 s canvas;
#X obj 587 148 r xpos;
#X obj 632 148 r ypos;
#X obj 100 128 t b b b b;
#X obj 453 287 s canvas;
#X obj 453 249 list;
#X text 431 129 __________________________________________;
#X text 434 122 Esta zona es para pintar el curso rojo;
#X text 703 250 <--- Es el elemento 45;
#X msg 587 252 move 45 \$1 \$2 3 3;
#X obj 587 168 - 1;
#X obj 632 167 - 1;
#X msg 453 268 rect red \$1 \$2 3 3;
#X connect 0 1 2 0;
#X connect 1 1 3 0;
#X connect 2 0 34 0;
#X connect 3 0 35 0;
#X connect 6 0 5 0;
#X connect 7 0 5 0;
#X connect 8 0 7 0;
#X connect 9 1 0 0;
#X connect 9 2 1 0;
#X connect 10 0 0 1;
#X connect 11 0 1 1;
#X connect 12 0 13 0;
#X connect 14 0 25 0;
#X connect 15 0 16 0;
#X connect 16 0 17 0;
#X connect 16 0 24 0;
#X connect 17 0 16 1;
#X connect 18 0 44 0;
#X connect 19 0 16 1;
#X connect 20 0 12 0;
#X connect 21 0 28 0;
#X connect 22 0 18 0;
#X connect 22 1 10 0;
#X connect 23 0 18 0;
#X connect 23 1 11 0;
#X connect 24 0 20 0;
#X connect 24 1 21 0;
#X connect 25 0 9 0;
#X connect 26 0 15 1;
#X connect 27 0 25 1;
#X connect 27 1 26 0;
#X connect 28 0 27 0;
#X connect 31 0 22 0;
#X connect 32 0 23 0;
#X connect 34 0 36 0;
#X connect 35 0 37 0;
#X connect 36 0 8 0;
#X connect 37 0 8 1;
#X connect 40 0 50 0;
#X connect 40 0 46 1;
#X connect 42 0 51 0;
#X connect 43 0 52 0;
#X connect 44 0 46 0;
#X connect 44 1 15 0;
#X connect 44 2 19 0;
#X connect 44 3 6 0;
#X connect 46 0 53 0;
#X connect 50 0 41 0;
#X connect 51 0 40 0;
#X connect 52 0 40 1;
#X connect 53 0 45 0;
#X coords 0 716 1 715 180 19 0;
#X restore 43 718 pd paint in gcanvas;
#X obj 44 139 bng 44 250 50 0 empty empty PANIC! 50 22 0 10 -260097
-1 -1;
#X text 185 101 Single MIDI NOTE;
#X msg 160 102 40;
#X msg 180 82 77;
#X obj 160 122 makenote 50 10000;
#X obj 121 398 hsl 128 30 10 0 0 1 cursor-width r-cursor-width cursorWidth
32 13 1 12 -262144 -1 -1 9400 0;
#X text 286 471 TODO:;
#X obj 235 262 freeverb~;
#N canvas 0 0 450 300 shake 0;
#X obj 105 79 inlet;
#X obj 191 74 inlet;
#X obj 111 215 outlet;
#X obj 201 228 outlet;
#X obj 271 66 metro 200;
#X obj 271 49 tgl 15 0 empty empty empty 17 7 0 10 -262144 -1 -1 1
1;
#X obj 271 104 / 100;
#X obj 340 104 / 100;
#X obj 130 175 +;
#X obj 201 167 +;
#X obj 266 202 line;
#X obj 345 216 line;
#X obj 148 137 t b f;
#X obj 343 243 t b f;
#X obj 271 85 random 100;
#X obj 340 85 random 100;
#X obj 257 174 pack f 400;
#X obj 336 170 pack f 400;
#X obj 271 127 * 10;
#X obj 270 147 - 5;
#X obj 340 126 * 10;
#X obj 339 146 - 5;
#X connect 0 0 8 0;
#X connect 1 0 9 0;
#X connect 4 0 14 0;
#X connect 4 0 15 0;
#X connect 5 0 4 0;
#X connect 6 0 18 0;
#X connect 7 0 20 0;
#X connect 8 0 2 0;
#X connect 9 0 3 0;
#X connect 10 0 12 0;
#X connect 11 0 13 0;
#X connect 12 0 8 0;
#X connect 12 1 8 1;
#X connect 13 0 9 0;
#X connect 13 1 9 1;
#X connect 14 0 6 0;
#X connect 15 0 7 0;
#X connect 16 0 10 0;
#X connect 17 0 11 0;
#X connect 18 0 19 0;
#X connect 19 0 16 0;
#X connect 20 0 21 0;
#X connect 21 0 17 0;
#X restore 80 682 pd shake;
#X msg 519 273 dry 1;
#X msg 492 295 roomsize 0.99;
#N canvas 0 0 450 300 randomnotes 0;
#X obj 85 53 inlet;
#X obj 132 279 outlet;
#X obj 231 279 outlet;
#X obj 67 121 random 7;
#X obj 67 140 > 5;
#X obj 67 157 sel 1;
#X obj 67 191 sel 0 1 2 3 4 5 6 7;
#X msg 67 208 0;
#X msg 127 208 3;
#X msg 153 208 5;
#X msg 180 208 7;
#X msg 237 208 10;
#X msg 266 208 12;
#X obj 132 225 +;
#X obj 67 174 random 7;
#X obj 132 259 makenote 100 4000;
#X obj 326 208 * 12;
#X msg 208 208 0;
#X msg 94 208 0;
#X obj 132 242 + 36;
#X obj 326 174 random 4;
#X obj 67 102 metro 100;
#X connect 0 0 21 0;
#X connect 3 0 4 0;
#X connect 4 0 5 0;
#X connect 5 0 14 0;
#X connect 5 0 20 0;
#X connect 6 0 7 0;
#X connect 6 1 18 0;
#X connect 6 2 8 0;
#X connect 6 3 9 0;
#X connect 6 4 10 0;
#X connect 6 5 17 0;
#X connect 6 6 11 0;
#X connect 6 7 12 0;
#X connect 7 0 13 0;
#X connect 8 0 13 0;
#X connect 9 0 13 0;
#X connect 10 0 13 0;
#X connect 11 0 13 0;
#X connect 12 0 13 0;
#X connect 13 0 19 0;
#X connect 14 0 6 0;
#X connect 15 0 1 0;
#X connect 15 1 2 0;
#X connect 16 0 13 1;
#X connect 17 0 13 0;
#X connect 18 0 13 0;
#X connect 19 0 15 0;
#X connect 20 0 16 0;
#X connect 21 0 3 0;
#X restore 367 248 pd randomnotes;
#X obj 366 230 tgl 15 0 empty empty empty 17 7 0 10 -262144 -1 -1 1
1;
#X text 287 480 Encontrar una manera de justificar la selección del
espacio Descriptorx \, Descriptory.;
#X text 287 507 Para esto hay que usar mas descriptores para analizar
los sonidos y guardar esos resultados en los archivos de preset.;
#X text 286 534 Por otro lado \, realizar un clustering humano y usar
muchos descrptores para tratar de encontrar un mínimo error entre los
resultados del cluster humano y los del cluster artificial.;
#X text 286 580 Encontrar cuales son los dos descriptores mas significativos
para lograr esa distribución humana y poner uno en el ejeX y otro en
el ejeY.;
#X connect 4 0 6 1;
#X connect 5 0 6 1;
#X connect 6 0 16 0;
#X connect 6 0 33 0;
#X connect 6 0 33 1;
#X connect 17 0 18 0;
#X connect 17 1 18 1;
#X connect 18 0 6 1;
#X connect 19 0 22 0;
#X connect 19 1 21 0;
#X connect 20 0 19 0;
#X connect 21 0 34 1;
#X connect 22 0 34 0;
#X connect 26 0 6 0;
#X connect 28 0 30 0;
#X connect 29 0 30 0;
#X connect 30 0 18 0;
#X connect 30 1 18 1;
#X connect 33 0 15 0;
#X connect 33 1 15 1;
#X connect 34 0 23 0;
#X connect 34 1 24 0;
#X connect 35 0 33 0;
#X connect 36 0 33 0;
#X connect 37 0 18 0;
#X connect 37 1 18 1;
#X connect 38 0 37 0;
