#N canvas 0 29 1680 984 10;
#X obj 1269 427 s filename;
#X obj 459 76 bng 15 250 50 0 empty empty empty 17 7 0 10 -262144 -1
-1;
#X text 476 75 GO!;
#X obj 498 112 s \$0-load-preset;
#X obj 1149 159 r \$0-load-preset;
#X obj 591 185 r \$0-start-recording;
#X msg 591 257 start;
#X obj 591 220 t b b;
#X obj 459 169 s \$0-note-on;
#X obj 478 131 s \$0-start-recording;
#X obj 319 194 r \$0-note-on;
#X msg 319 221 40;
#X text 347 220 Note;
#X text 422 248 velocity \, duration;
#X obj 319 281 pack f f;
#X obj 169 509 env~;
#X text 78 538 Detect silence;
#X obj 169 573 select 1;
#X msg 671 441 stop;
#X obj 671 406 r \$0-stop-recording;
#X obj 169 604 s \$0-stop-recording;
#X obj 459 150 delay 100;
#X obj 307 486 r \$0-stop-recording;
#X obj 169 540 == -10000;
#X obj 220 463 r \$0-note-on;
#X obj 220 488 delay 100;
#X msg 220 514 0;
#X msg 307 513 -10000;
#X obj 459 93 t b b b;
#X obj 1166 288 directory;
#X msg 1166 249 rewind;
#X msg 1109 355 bang;
#X obj 942 300 r \$0-stop-recording;
#X text 941 281 Next;
#X text 1152 138 First;
#X obj 942 395 s \$0-note-on;
#X obj 961 357 s \$0-start-recording;
#X obj 942 376 delay 100;
#X obj 942 338 t b b b;
#X msg 1241 195 \; pd dsp 1;
#X obj 1149 178 t b b b b;
#X obj 1239 305 print DONE!;
#X msg 1329 305 \; pd dsp 0;
#X obj 1169 427 print Processing;
#X obj 660 249 symbol;
#X obj 1349 375 s \$0-preset-name;
#X obj 724 198 r \$0-preset-name;
#X obj 942 319 delay 200;
#X obj 319 319 1.GUI;
#X obj 591 540 writesf~;
#X msg 643 280 open -rate 44100 -bytes 2 ./wavs/\$1.wav;
#X obj 319 248 makenote 100 500;
#X obj 1166 338 select . .. .gitkeep .gitignore;
#X text 1313 221 ********************************************;
#X text 1313 184 ********************************************;
#X text 1318 196 Aqui hay que poner la dirección absoulta del archivo
donde están los presets.;
#X msg 1224 236 read C:/Users/98662296/Documents/GitHub/morphasynth/res/pd/presets
;
#X msg 1169 397 C:/Users/98662296/Documents/GitHub/morphasynth/res/pd/presets/\$1
;
#X obj 724 232 unpack s s;
#X obj 724 215 s2l .;
#X connect 1 0 28 0;
#X connect 4 0 40 0;
#X connect 5 0 7 0;
#X connect 6 0 49 0;
#X connect 7 0 6 0;
#X connect 7 1 44 0;
#X connect 10 0 11 0;
#X connect 11 0 51 0;
#X connect 14 0 48 0;
#X connect 15 0 23 0;
#X connect 17 0 20 0;
#X connect 18 0 49 0;
#X connect 19 0 18 0;
#X connect 21 0 8 0;
#X connect 22 0 27 0;
#X connect 23 0 17 0;
#X connect 24 0 25 0;
#X connect 25 0 26 0;
#X connect 26 0 23 1;
#X connect 27 0 23 1;
#X connect 28 0 21 0;
#X connect 28 1 9 0;
#X connect 28 2 3 0;
#X connect 29 0 52 0;
#X connect 29 1 41 0;
#X connect 29 1 42 0;
#X connect 30 0 29 0;
#X connect 31 0 29 0;
#X connect 32 0 47 0;
#X connect 37 0 35 0;
#X connect 38 0 37 0;
#X connect 38 1 36 0;
#X connect 38 2 31 0;
#X connect 40 0 31 0;
#X connect 40 1 30 0;
#X connect 40 2 56 0;
#X connect 40 3 39 0;
#X connect 44 0 50 0;
#X connect 46 0 59 0;
#X connect 47 0 38 0;
#X connect 48 0 15 0;
#X connect 48 0 49 0;
#X connect 50 0 49 0;
#X connect 51 0 14 0;
#X connect 51 1 14 1;
#X connect 52 0 31 0;
#X connect 52 1 31 0;
#X connect 52 2 31 0;
#X connect 52 4 45 0;
#X connect 52 4 57 0;
#X connect 56 0 29 0;
#X connect 57 0 0 0;
#X connect 57 0 43 0;
#X connect 58 0 44 1;
#X connect 59 0 58 0;
