#N canvas 0 30 1280 770 10;
#X obj 1087 -225 bng 15 250 50 0 empty empty empty 17 7 0 10 -262144
-1 -1;
#X text 1104 -226 GO!;
#X obj 1126 -156 s \$0-load-preset;
#X obj 1073 -71 r \$0-load-preset;
#X obj 1087 -199 t b b b;
#X obj 1049 100 directory;
#X msg 1107 42 read /home/rafaelvega/Projects/Active/Sinte/repo/res/pd/presets
;
#X msg 1051 55 rewind;
#X msg 989 56 bang;
#X obj 1073 -41 t b b b b;
#X obj 1247 182 print DONE!;
#X obj 677 258 print Processing;
#X obj 932 146 select . .. .gitkeep;
#X msg 677 209 /home/rafaelvega/Projects/Active/Sinte/repo/res/pd/presets/\$1
;
#X obj 784 258 s \$0-filename-preset;
#X obj 1060 407 r \$0-filename-preset;
#X obj 1068 209 s2l .;
#X obj 1068 240 unpack s s;
#X obj 1068 323 s \$0-filename-wav;
#X msg 1068 281 /home/rafaelvega/Projects/Active/Sinte/repo/res/pd/wavs/\$1.preset.wav
;
#X obj 1060 506 qlist;
#X msg 1060 474 read \$1 \, tempo 0.1 \, rewind \, bang;
#X obj 1059 537 r envelope-a;
#X obj 1060 439 symbol;
#X text 1076 -92 1 Filename for wav and preset;
#X obj 1059 596 * 10000;
#X obj 800 391 r \$0-filename-wav;
#X obj 800 476 soundfiler;
#X text 836 1188 Start at sample \$1 for \$2 samples -->;
#X obj 1059 623 + 100;
#X text 706 649 All wave files have a 100ms pre-silence and are 44100
-->;
#X msg 1067 1189 analyze \$1 1024;
#X msg 1214 746 samplerate 44100;
#X obj 1319 2302;
#X obj 1041 174 t s s;
#X text 795 361 2 Load wave into table;
#X obj 800 419 symbol;
#X msg 800 445 read -resize \$1 wave;
#X obj 879 476 table wave;
#X obj 1218 1228 mfcc wave;
#X obj 1059 650 * 44.1;
#X obj 1059 567 pow 3;
#X obj 1252 1486 binWrangler;
#X text 1056 376 3 Catch attack and decay time;
#X obj 800 507 s \$0-wave-size;
#X obj 958 713 r \$0-wave-size;
#X obj 971 755 -;
#X obj 971 787 * -1;
#X obj 986 821 nbx 5 14 -1e+37 1e+37 0 1 empty empty empty 0 -8 0 10
-262144 -1 -1 10 256;
#X obj 971 846 /;
#X text 606 711 4 Analize N different portions of wave after attack
time;
#X obj 1059 714 t f f b;
#X obj 1067 1105 +;
#X obj 1054 1083 *;
#X obj 870 977 until;
#X obj 870 1013 f;
#X obj 899 1014 + 1;
#X obj 921 880 t b f;
#X obj 870 935 f;
#X obj 870 956 t f b;
#X msg 912 975 0;
#X obj 1113 998 print start;
#X obj 924 1135 print iterations;
#X obj 1093 1134 print realstartpoints;
#X obj 1218 1331 list split 1;
#X obj 1252 1357 list split 12;
#X obj 1126 1108 / 44100;
#X text 975 1345 split MFcc list and get MFCC 1 to 12;
#X text 971 1413 Group MFCC by index ->>>;
#X msg 1417 1406 length 12;
#X msg 1269 1445 num_frames \$1;
#X obj 1001 852 s numframes;
#X obj 1276 1404 r numframes;
#X obj 1418 1376 loadbang;
#X obj 1252 1582 list split;
#X obj 1309 1560 r numframes;
#X obj 1252 1608 sum;
#X obj 1252 1636 /;
#X obj 1298 1619 r numframes;
#X obj 1291 1739 f;
#X obj 1320 1740 + 1;
#X msg 1389 1559 0;
#X obj 1428 1691 list;
#X obj 1226 1884 print mfccs;
#X obj 1252 1663 t b f b;
#X msg 1226 1775 MFCC \$1;
#X obj 1226 1826 list append;
#X obj 1226 1846 list trim;
#X obj 1252 1512 t l b b;
#X msg 1449 1524 bang;
#X connect 0 0 4 0;
#X connect 3 0 9 0;
#X connect 4 2 2 0;
#X connect 5 0 12 0;
#X connect 5 1 10 0;
#X connect 6 0 5 0;
#X connect 7 0 5 0;
#X connect 8 0 5 0;
#X connect 9 0 8 0;
#X connect 9 1 7 0;
#X connect 9 2 6 0;
#X connect 12 3 34 0;
#X connect 13 0 11 0;
#X connect 13 0 14 0;
#X connect 15 0 23 0;
#X connect 16 0 17 0;
#X connect 17 0 19 0;
#X connect 19 0 18 0;
#X connect 21 0 20 0;
#X connect 22 0 41 0;
#X connect 23 0 21 0;
#X connect 25 0 29 0;
#X connect 26 0 36 0;
#X connect 27 0 44 0;
#X connect 29 0 40 0;
#X connect 31 0 39 0;
#X connect 32 0 39 0;
#X connect 34 0 13 0;
#X connect 34 1 16 0;
#X connect 36 0 37 0;
#X connect 37 0 27 0;
#X connect 39 0 64 0;
#X connect 40 0 51 0;
#X connect 41 0 25 0;
#X connect 42 0 88 0;
#X connect 45 0 46 1;
#X connect 46 0 47 0;
#X connect 47 0 49 0;
#X connect 48 0 49 1;
#X connect 48 0 58 1;
#X connect 48 0 71 0;
#X connect 49 0 57 0;
#X connect 51 0 46 0;
#X connect 51 1 52 1;
#X connect 51 1 61 0;
#X connect 51 2 32 0;
#X connect 52 0 31 0;
#X connect 52 0 66 0;
#X connect 53 0 52 0;
#X connect 53 0 62 0;
#X connect 54 0 55 0;
#X connect 55 0 56 0;
#X connect 55 0 53 0;
#X connect 56 0 55 1;
#X connect 57 0 58 0;
#X connect 57 1 53 1;
#X connect 58 0 59 0;
#X connect 59 0 54 0;
#X connect 59 1 60 0;
#X connect 60 0 55 1;
#X connect 64 1 65 0;
#X connect 65 0 42 0;
#X connect 66 0 63 0;
#X connect 69 0 42 0;
#X connect 70 0 42 0;
#X connect 72 0 70 0;
#X connect 73 0 69 0;
#X connect 74 0 76 0;
#X connect 74 1 82 1;
#X connect 75 0 74 1;
#X connect 76 0 77 0;
#X connect 77 0 84 0;
#X connect 78 0 77 1;
#X connect 79 0 80 0;
#X connect 79 0 85 0;
#X connect 80 0 79 1;
#X connect 81 0 79 1;
#X connect 82 0 74 0;
#X connect 84 0 82 0;
#X connect 84 1 86 1;
#X connect 84 2 79 0;
#X connect 85 0 86 0;
#X connect 86 0 87 0;
#X connect 87 0 83 0;
#X connect 88 0 74 0;
#X connect 88 1 81 0;
#X connect 88 2 89 0;
#X connect 89 0 82 1;
#X connect 89 0 74 1;
