#N canvas 232 57 1420 818 10;
#X obj 1149 644 print PD;
#X obj 1163 546 notein;
#X obj 1149 595 pack 0 0;
#X obj 74 29 hsl 128 15 0 1 0 1 empty empty Frequency -2 -8 0 10 -262144
-1 -1 3300 1;
#X obj 71 97 * 20000;
#X floatatom 71 134 7 0 20000 0 - - -;
#X obj 71 233 line;
#X obj 71 171 t n b;
#X obj 286 33 hsl 128 15 0 1 0 1 empty empty Amplitude -2 -8 0 10 -262144
-1 -1 7200 1;
#X floatatom 283 66 5 0 1 0 - - -;
#X msg 98 202 100;
#X obj 71 271 s freq;
#X obj 283 101 s amplitude;
#X obj 142 353 r freq;
#X obj 215 353 r amplitude;
#X obj 505 37 hsl 128 15 0 1 0 1 empty empty Waveform -2 -8 0 10 -262144
-1 -1 4000 1;
#X floatatom 502 67 5 0 1 0 - - -;
#X obj 502 100 s waveform;
#X obj 51 353 r waveform;
#X obj 128 439 oscillator;
#X obj 476 475 adsr;
#X obj 803 42 hsl 128 15 0 1 0 1 empty empty Attack -2 -8 0 10 -262144
-1 -1 0 1;
#X floatatom 800 145 5 0 10000 0 - - -;
#X obj 800 110 * 10000;
#X obj 800 183 s attack;
#X obj 964 45 hsl 128 15 0 1 0 1 empty empty Decay -2 -8 0 10 -262144
-1 -1 0 1;
#X floatatom 961 147 5 0 10000 0 - - -;
#X obj 961 111 * 10000;
#X obj 961 189 s decay;
#X obj 71 64 pow 3;
#X obj 800 77 pow 3;
#X obj 961 78 pow 3;
#X obj 1130 45 hsl 128 15 0 1 0 1 empty empty Sustain -2 -8 0 10 -262144
-1 -1 12700 1;
#X floatatom 1127 86 5 0 1 0 - - -;
#X obj 1127 128 s sustain;
#X obj 1290 44 hsl 128 15 0 1 0 1 empty empty Release -2 -8 0 10 -262144
-1 -1 0 1;
#X floatatom 1287 146 5 0 10000 0 - - -;
#X obj 1287 110 * 10000;
#X obj 1287 77 pow 3;
#X obj 1287 188 s release;
#X obj 333 363 bng 15 250 50 0 empty empty empty 17 7 0 10 -262144
-1 -1;
#X obj 383 404 r attack;
#X obj 454 404 r decay;
#X obj 518 404 r sustain;
#X obj 591 404 r release;
#X obj 218 727 dac~;
#X obj 246 540 *~;
#X obj 309 387 bng 15 250 50 0 empty empty empty 17 7 0 10 -262144
-1 -1;
#X msg 309 424 65;
#X obj 286 411 bng 15 250 50 0 empty empty empty 17 7 0 10 -262144
-1 -1;
#X msg 286 448 0;
#X msg 334 400 127;
#X obj 164 665 moog_lopass~;
#X obj 155 733 print;
#X obj 803 267 hsl 128 15 0 1 0 1 empty empty Lopass_Freq -2 -8 0 10
-262144 -1 -1 4600 1;
#X floatatom 800 370 7 0 22000 0 - - -;
#X obj 800 302 pow 3;
#X obj 800 335 * 22000;
#X obj 800 408 s lopass_freq;
#X obj 981 266 hsl 128 15 0 1 0 1 empty empty Lopass_Resonance -2 -8
0 10 -262144 -1 -1 9700 1;
#X floatatom 978 302 7 0 1 0 - - -;
#X obj 978 340 s lopass_res;
#X obj 22 573 r lopass_freq;
#X obj 111 573 r lopass_res;
#X msg 22 612 frequency \$1;
#X msg 111 612 resonance \$1;
#X obj 358 360 loadbang;
#X connect 1 0 2 0;
#X connect 1 1 2 1;
#X connect 2 0 0 0;
#X connect 3 0 29 0;
#X connect 4 0 5 0;
#X connect 5 0 7 0;
#X connect 6 0 11 0;
#X connect 7 0 6 0;
#X connect 7 1 10 0;
#X connect 8 0 9 0;
#X connect 9 0 12 0;
#X connect 10 0 6 1;
#X connect 13 0 19 1;
#X connect 14 0 19 2;
#X connect 15 0 16 0;
#X connect 16 0 17 0;
#X connect 18 0 19 0;
#X connect 19 0 46 0;
#X connect 20 0 46 1;
#X connect 21 0 30 0;
#X connect 22 0 24 0;
#X connect 23 0 22 0;
#X connect 25 0 31 0;
#X connect 26 0 28 0;
#X connect 27 0 26 0;
#X connect 29 0 4 0;
#X connect 30 0 23 0;
#X connect 31 0 27 0;
#X connect 32 0 33 0;
#X connect 33 0 34 0;
#X connect 35 0 38 0;
#X connect 36 0 39 0;
#X connect 37 0 36 0;
#X connect 38 0 37 0;
#X connect 40 0 51 0;
#X connect 41 0 20 1;
#X connect 42 0 20 2;
#X connect 43 0 20 3;
#X connect 44 0 20 4;
#X connect 46 0 52 1;
#X connect 47 0 48 0;
#X connect 48 0 20 0;
#X connect 49 0 50 0;
#X connect 50 0 20 0;
#X connect 51 0 20 0;
#X connect 52 0 53 0;
#X connect 52 1 45 0;
#X connect 52 1 45 1;
#X connect 54 0 56 0;
#X connect 55 0 58 0;
#X connect 56 0 57 0;
#X connect 57 0 55 0;
#X connect 59 0 60 0;
#X connect 60 0 61 0;
#X connect 62 0 64 0;
#X connect 63 0 65 0;
#X connect 64 0 52 0;
#X connect 65 0 52 0;
#X connect 66 0 51 0;
