#N canvas 837 130 450 300 10;
#X obj 145 88 osc~ 440;
#X obj 146 145 dac~ 1;
#X obj 42 181 print PD;
#X obj 56 83 notein;
#X obj 42 132 pack 0 0;
#X connect 0 0 1 0;
#X connect 3 0 4 0;
#X connect 3 1 4 1;
#X connect 4 0 2 0;
