#N canvas 641 159 933 790 10;
#X obj -371 169 phasor~;
#X text -381 289 Saw Tooth;
#X text -257 358 Square;
#X obj -192 167 phasor~;
#X msg -292 137 0;
#X msg -241 137 0.5;
#X obj -208 210 +~;
#X obj -468 178 osc~;
#X text -479 283 Sine;
#X obj -371 210 *~ 2;
#X obj -370 248 -~ 1;
#X obj -485 457 +~;
#X obj -512 401 *~;
#X obj -460 400 *~;
#X obj -707 317 -;
#X msg -732 288 1;
#X obj -692 257 * 2;
#X obj -692 218 min 0.5;
#X obj -274 612 +~;
#X obj -306 536 *~;
#X obj -98 482 -;
#X msg -120 444 1;
#X obj -98 318 max 0.5;
#X obj -98 383 * 2;
#X obj -98 351 - 0.5;
#X obj -254 535 *~ 1;
#X obj -206 262 -~ 1;
#X obj -205 300 *~ 2;
#X text -795 431 Crossfade sine and saw with waveform in [0 \, 0.5]
;
#X text -221 533 Crossfade saw and square with waveform in (0.5 \,
1];
#X obj -692 184 inlet;
#X text -724 152 Waveform [0 \, 1];
#X obj 53 -6 loadbang;
#X text -10 -26 Phase synchronization;
#X obj -785 217 s \$0-waveform;
#X obj -291 104 r \$0-sync;
#X obj 15 36 s \$0-sync;
#X obj -98 284 r \$0-waveform;
#X obj -275 663 outlet~;
#X obj -422 23 inlet~;
#X obj -192 92 *~ -1;
#X obj -39 -6 inlet;
#X text -462 -1 Frequency [0 \, 20000];
#X msg 10 -7 bang;
#X connect 0 0 6 0;
#X connect 0 0 9 0;
#X connect 3 0 6 1;
#X connect 4 0 0 1;
#X connect 4 0 7 1;
#X connect 5 0 3 1;
#X connect 6 0 26 0;
#X connect 7 0 12 0;
#X connect 9 0 10 0;
#X connect 10 0 13 0;
#X connect 11 0 19 0;
#X connect 12 0 11 0;
#X connect 13 0 11 1;
#X connect 14 0 12 1;
#X connect 15 0 14 0;
#X connect 16 0 14 1;
#X connect 16 0 15 0;
#X connect 16 0 13 1;
#X connect 17 0 16 0;
#X connect 18 0 38 0;
#X connect 19 0 18 0;
#X connect 20 0 19 1;
#X connect 21 0 20 0;
#X connect 22 0 24 0;
#X connect 23 0 20 1;
#X connect 23 0 21 0;
#X connect 23 0 25 1;
#X connect 24 0 23 0;
#X connect 25 0 18 1;
#X connect 26 0 27 0;
#X connect 27 0 25 0;
#X connect 30 0 17 0;
#X connect 30 0 34 0;
#X connect 32 0 36 0;
#X connect 35 0 4 0;
#X connect 35 0 5 0;
#X connect 37 0 22 0;
#X connect 39 0 0 0;
#X connect 39 0 40 0;
#X connect 39 0 7 0;
#X connect 40 0 3 0;
#X connect 41 0 36 0;
#X connect 43 0 36 0;
