#N canvas 469 84 933 790 10;
#X obj -371 169 phasor~;
#X obj -253 658 *~;
#X text -381 289 Saw Tooth;
#X text -257 358 Square;
#X obj -192 167 phasor~;
#X obj -192 92 * -1;
#X msg -292 137 0;
#X msg -241 137 0.5;
#X obj -208 210 +~;
#X obj -468 178 osc~;
#X text -479 283 Sine;
#X obj -371 210 *~ 2;
#X obj -370 248 -~ 1;
#X obj -485 457 +~;
#X obj -512 401 *~;
#X obj -460 400 *~;
#X obj -654 338 -;
#X msg -679 309 1;
#X obj -639 278 * 2;
#X obj -639 239 min 0.5;
#X obj -279 592 +~;
#X obj -306 536 *~;
#X obj -98 482 -;
#X msg -120 444 1;
#X obj -98 318 max 0.5;
#X obj -98 383 * 2;
#X obj -98 351 - 0.5;
#X obj -254 535 *~ 1;
#X obj -206 262 -~ 1;
#X obj -205 300 *~ 2;
#X text -795 431 Crossfade sine and saw with waveform in [0 \, 0.5]
;
#X text -210 521 Crossfade saw and square with waveform in (0.5 \,
1];
#X obj -253 709 outlet~;
#X obj -639 205 inlet;
#X text -662 182 Waveform [0 \, 1];
#X text -409 32 Frequency [0 \, 20000];
#X obj -374 55 inlet;
#X obj -186 614 inlet;
#X text -191 593 Amplitude [0 \, 1];
#X obj 0 52 loadbang;
#X obj -38 53 bng 15 250 50 0 empty empty empty 17 7 0 10 -262144 -1
-1;
#X text -43 32 Phase synchronization;
#X obj -732 238 s \$0-waveform;
#X obj -291 104 r \$0-sync;
#X obj -38 94 s \$0-sync;
#X obj -98 284 r \$0-waveform;
#X connect 0 0 8 0;
#X connect 0 0 11 0;
#X connect 1 0 32 0;
#X connect 4 0 8 1;
#X connect 5 0 4 0;
#X connect 6 0 0 1;
#X connect 6 0 9 1;
#X connect 7 0 4 1;
#X connect 8 0 28 0;
#X connect 9 0 14 0;
#X connect 11 0 12 0;
#X connect 12 0 15 0;
#X connect 13 0 21 0;
#X connect 14 0 13 0;
#X connect 15 0 13 1;
#X connect 16 0 14 1;
#X connect 17 0 16 0;
#X connect 18 0 16 1;
#X connect 18 0 17 0;
#X connect 18 0 15 1;
#X connect 19 0 18 0;
#X connect 20 0 1 0;
#X connect 21 0 20 0;
#X connect 22 0 21 1;
#X connect 23 0 22 0;
#X connect 24 0 26 0;
#X connect 25 0 22 1;
#X connect 25 0 23 0;
#X connect 25 0 27 1;
#X connect 26 0 25 0;
#X connect 27 0 20 1;
#X connect 28 0 29 0;
#X connect 29 0 27 0;
#X connect 33 0 19 0;
#X connect 33 0 42 0;
#X connect 36 0 0 0;
#X connect 36 0 5 0;
#X connect 36 0 9 0;
#X connect 37 0 1 1;
#X connect 39 0 44 0;
#X connect 40 0 44 0;
#X connect 43 0 6 0;
#X connect 43 0 7 0;
#X connect 45 0 24 0;
