#N canvas 344 136 1017 676 10;
#X text 569 171 Load;
#X text 531 172 Save;
#X symbolatom 12 178 80 0 0 2 Comments - -;
#X obj 11 206 bng 15 250 50 0 empty empty Save! 17 7 0 9 -262144 -1
-1;
#X obj 77 206 bng 15 250 50 0 empty empty Load 17 7 0 9 -262144 -1
-1;
#X text 7 6 READ THIS!!!!!!!!!!;
#X symbolatom 11 100 8 0 0 2 ID - -;
#X symbolatom 68 100 40 0 0 2 Name - -;
#X symbolatom 11 137 40 0 0 2 Category - -;
#X symbolatom 263 137 40 0 0 2 Author - -;
#X obj 57 438 textfile;
#X obj 492 379 qlist;
#X obj 526 189 inlet;
#X obj 569 189 inlet;
#X obj -103 192 pack s s s s s;
#X obj -270 493 pack s s s s s;
#X msg -381 440 symbol presets/;
#X msg -132 446 symbol .preset;
#X obj -76 8 r \$0-one;
#X obj -76 43 t b b;
#X obj -258 440 unpack s s s s s;
#X obj -270 530 list2symbol _;
#X obj -270 563 s \$0-filename;
#X obj 50 264 s \$0-one;
#X obj 57 368 r \$0-one;
#X msg 57 397 clear;
#X obj 11 310 s \$0-three;
#X obj 230 368 r \$0-filename;
#X msg 230 409 write \$1;
#X obj -381 389 r \$0-three;
#X obj 145 368 r \$0-to-file;
#X obj 30 287 s \$0-two;
#X obj -385 617 r \$0-two;
#X obj 11 238 t b b b;
#X text -425 5 Save sequence. One: collect text inputs \, clear file
Two: collect synth params Three: calculate filename \, write;
#X text 54 347 Save to file;
#X text -380 364 Calculate filename;
#X text -228 191 Collect file inputs;
#X obj -103 223 s \$0-text-inputs;
#X obj -258 390 r \$0-text-inputs;
#X text 8 24 You WILL overwrite files if you use the same ID. You MUST
enter an ID \, Name and Category. Don't use spaces or funky characters
for Name or Category. Use 3 digit numbers as in OO7 for the ID.;
#X obj 631 22 inlet;
#X obj 683 23 inlet;
#X text 635 5 ID;
#X text 683 5 Name;
#X obj 742 21 inlet;
#X obj 805 21 inlet;
#X text 735 4 Category;
#X text 805 3 Author;
#X obj 865 21 inlet;
#X text 856 2 Comments;
#X obj -392 769 s \$0-to-file;
#X obj -358 821 r \$0-two;
#X obj -365 973 s \$0-to-file;
#X obj -364 1016 r \$0-two;
#X obj -380 1165 s \$0-to-file;
#X obj 386 612 r \$0-two;
#X obj 522 806 preset_parameter lp-lfo-amplitude;
#X obj 371 924 s \$0-to-file;
#X obj 374 980 r \$0-two;
#X obj 359 1292 s \$0-to-file;
#X obj 916 637 r \$0-two;
#X obj 933 763 s \$0-to-file;
#X obj -671 663 preset_parameter osc1-amplitude;
#X obj -469 663 preset_parameter osc1-waveform;
#X obj -276 663 preset_parameter osc1-finetune;
#X obj -629 692 preset_parameter lfo1-freq;
#X obj -453 693 preset_parameter lfo1-waveform;
#X obj -254 694 preset_parameter lfo1-to-amplitude;
#X obj -564 726 preset_parameter lfo1-to-freq;
#X obj -644 867 preset_parameter osc2-amplitude;
#X obj -608 897 preset_parameter lfo2-freq;
#X obj -537 930 preset_parameter lfo2-to-freq;
#X obj -442 867 preset_parameter osc2-waveform;
#X obj -426 897 preset_parameter lfo2-waveform;
#X obj -249 867 preset_parameter osc2-finetune;
#X obj -227 898 preset_parameter lfo2-to-amplitude;
#X obj -650 1062 preset_parameter osc3-amplitude;
#X obj -448 1062 preset_parameter osc3-waveform;
#X obj -255 1062 preset_parameter osc3-finetune;
#X obj -233 1093 preset_parameter lfo3-to-amplitude;
#X obj -432 1092 preset_parameter lfo3-waveform;
#X obj -614 1092 preset_parameter lfo3-freq;
#X obj -543 1125 preset_parameter lfo3-to-freq;
#X obj 93 685 preset_parameter lp-freq;
#X obj 93 743 preset_parameter lp-resonance;
#X obj 93 804 preset_parameter lp-keyfollow;
#X obj 92 859 preset_parameter lp-contour;
#X obj 301 688 preset_parameter lp-envelope-a;
#X obj 302 750 preset_parameter lp-envelope-d;
#X obj 302 808 preset_parameter lp-envelope-s;
#X obj 306 867 preset_parameter lp-envelope-r;
#X obj 534 688 preset_parameter lp-lfo-freq;
#X obj 534 747 preset_parameter lp-lfo-waveform;
#X obj 81 1053 preset_parameter hp-freq;
#X obj 80 1111 preset_parameter hp-resonance;
#X obj 81 1172 preset_parameter hp-keyfollow;
#X obj 80 1227 preset_parameter hp-contour;
#X obj 289 1056 preset_parameter hp-envelope-a;
#X obj 289 1119 preset_parameter hp-envelope-d;
#X obj 288 1176 preset_parameter hp-envelope-s;
#X obj 294 1235 preset_parameter hp-envelope-r;
#X obj 522 1056 preset_parameter hp-lfo-freq;
#X obj 522 1115 preset_parameter hp-lfo-waveform;
#X obj 510 1174 preset_parameter hp-lfo-amplitude;
#X obj 755 692 preset_parameter envelope-a;
#X obj 943 692 preset_parameter envelope-d;
#X obj 937 721 preset_parameter envelope-s;
#X obj 764 721 preset_parameter envelope-r;
#X obj -861 448 unpack s s s s s;
#X obj -925 493 preset_parameter id;
#X obj -924 447 r \$0-two;
#X obj -866 595 s \$0-to-file;
#X obj -861 414 r \$0-text-inputs;
#X obj -779 490 preset_parameter name;
#X obj -797 527 preset_parameter category;
#X obj -630 488 preset_parameter author;
#X obj -612 525 preset_parameter comments;
#X text -680 611 Collect synth params \, send them to file;
#X text -915 381 Collect text inputs \, send them to file;
#X obj 492 313 openpanel;
#X text 539 245 Load a file;
#X msg 492 347 read \$1 \, tempo 0.1 \, rewind \, bang;
#X msg 492 281 symbol ./presets/;
#X connect 2 0 14 4;
#X connect 3 0 33 0;
#X connect 4 0 123 0;
#X connect 6 0 14 0;
#X connect 7 0 14 2;
#X connect 8 0 14 1;
#X connect 9 0 14 3;
#X connect 12 0 3 0;
#X connect 13 0 4 0;
#X connect 14 0 38 0;
#X connect 15 0 21 0;
#X connect 16 0 15 0;
#X connect 17 0 15 4;
#X connect 18 0 19 0;
#X connect 19 0 6 0;
#X connect 19 1 7 0;
#X connect 19 1 9 0;
#X connect 19 1 8 0;
#X connect 19 1 2 0;
#X connect 20 0 15 1;
#X connect 20 1 15 2;
#X connect 20 2 15 3;
#X connect 21 0 22 0;
#X connect 24 0 25 0;
#X connect 25 0 10 0;
#X connect 27 0 28 0;
#X connect 28 0 10 0;
#X connect 29 0 17 0;
#X connect 29 0 20 0;
#X connect 29 0 16 0;
#X connect 30 0 10 0;
#X connect 32 0 63 0;
#X connect 32 0 64 0;
#X connect 32 0 65 0;
#X connect 32 0 66 0;
#X connect 32 0 67 0;
#X connect 32 0 68 0;
#X connect 32 0 69 0;
#X connect 33 0 26 0;
#X connect 33 1 31 0;
#X connect 33 2 23 0;
#X connect 39 0 20 0;
#X connect 41 0 6 0;
#X connect 42 0 7 0;
#X connect 45 0 8 0;
#X connect 46 0 9 0;
#X connect 49 0 2 0;
#X connect 52 0 70 0;
#X connect 52 0 71 0;
#X connect 52 0 72 0;
#X connect 52 0 73 0;
#X connect 52 0 74 0;
#X connect 52 0 75 0;
#X connect 52 0 76 0;
#X connect 54 0 77 0;
#X connect 54 0 78 0;
#X connect 54 0 79 0;
#X connect 54 0 80 0;
#X connect 54 0 81 0;
#X connect 54 0 82 0;
#X connect 54 0 83 0;
#X connect 56 0 57 0;
#X connect 56 0 84 0;
#X connect 56 0 85 0;
#X connect 56 0 86 0;
#X connect 56 0 87 0;
#X connect 56 0 88 0;
#X connect 56 0 89 0;
#X connect 56 0 90 0;
#X connect 56 0 91 0;
#X connect 56 0 92 0;
#X connect 56 0 93 0;
#X connect 57 0 58 0;
#X connect 59 0 94 0;
#X connect 59 0 95 0;
#X connect 59 0 96 0;
#X connect 59 0 97 0;
#X connect 59 0 98 0;
#X connect 59 0 99 0;
#X connect 59 0 100 0;
#X connect 59 0 101 0;
#X connect 59 0 102 0;
#X connect 59 0 103 0;
#X connect 59 0 104 0;
#X connect 61 0 105 0;
#X connect 61 0 106 0;
#X connect 61 0 107 0;
#X connect 61 0 108 0;
#X connect 63 0 51 0;
#X connect 64 0 51 0;
#X connect 65 0 51 0;
#X connect 66 0 51 0;
#X connect 67 0 51 0;
#X connect 68 0 51 0;
#X connect 69 0 51 0;
#X connect 70 0 53 0;
#X connect 71 0 53 0;
#X connect 72 0 53 0;
#X connect 73 0 53 0;
#X connect 74 0 53 0;
#X connect 75 0 53 0;
#X connect 76 0 53 0;
#X connect 77 0 55 0;
#X connect 78 0 55 0;
#X connect 79 0 55 0;
#X connect 80 0 55 0;
#X connect 81 0 55 0;
#X connect 82 0 55 0;
#X connect 83 0 55 0;
#X connect 84 0 58 0;
#X connect 85 0 58 0;
#X connect 86 0 58 0;
#X connect 87 0 58 0;
#X connect 88 0 58 0;
#X connect 89 0 58 0;
#X connect 90 0 58 0;
#X connect 91 0 58 0;
#X connect 92 0 58 0;
#X connect 93 0 58 0;
#X connect 94 0 60 0;
#X connect 95 0 60 0;
#X connect 96 0 60 0;
#X connect 97 0 60 0;
#X connect 98 0 60 0;
#X connect 99 0 60 0;
#X connect 100 0 60 0;
#X connect 101 0 60 0;
#X connect 102 0 60 0;
#X connect 103 0 60 0;
#X connect 104 0 60 0;
#X connect 105 0 62 0;
#X connect 106 0 62 0;
#X connect 107 0 62 0;
#X connect 108 0 62 0;
#X connect 109 0 110 1;
#X connect 109 1 115 1;
#X connect 109 2 114 1;
#X connect 109 3 116 1;
#X connect 109 4 117 1;
#X connect 110 0 112 0;
#X connect 111 0 110 0;
#X connect 111 0 114 0;
#X connect 111 0 116 0;
#X connect 111 0 115 0;
#X connect 111 0 117 0;
#X connect 113 0 109 0;
#X connect 114 0 112 0;
#X connect 115 0 112 0;
#X connect 116 0 112 0;
#X connect 117 0 112 0;
#X connect 120 0 122 0;
#X connect 122 0 11 0;
#X connect 123 0 120 0;
#X coords 0 -1 1 1 520 230 2 0 0;
