#N canvas 131 45 364 434 10;
#X obj 83 67 inlet;
#X obj 113 403 outlet~;
#X text 82 47 Midi note in;
#X obj 83 257 voice;
#X obj 83 189 route 1 2 3 4 5;
#X obj 83 148 pack f f f;
#X obj 111 310 +~;
#X obj 117 257 voice;
#X obj 151 257 voice;
#X obj 185 258 voice;
#X obj 219 259 voice;
#X obj 113 359 /~ 3;
#X obj 83 106 poly 5 1;
#X connect 0 0 12 0;
#X connect 3 0 6 0;
#X connect 4 0 3 0;
#X connect 4 1 7 0;
#X connect 4 2 8 0;
#X connect 4 3 9 0;
#X connect 4 4 10 0;
#X connect 5 0 4 0;
#X connect 6 0 11 0;
#X connect 7 0 6 0;
#X connect 8 0 6 0;
#X connect 9 0 6 0;
#X connect 10 0 6 0;
#X connect 11 0 1 0;
#X connect 12 0 5 0;
#X connect 12 1 5 1;
#X connect 12 2 5 2;
