#N canvas 306 397 802 550 10;
#X obj 105 118 hsl 175 15 0 1 0 0 empty empty empty -2 -8 0 9 -262144
-1 -1 17400 1;
#X floatatom 149 137 7 0 0 0 - - -;
#X text 440 -127 Upper range;
#X text 350 -122 Lower range;
#X obj 363 -14 limit 0 1 0;
#X obj 214 -54 expr $f1*($f3-$f2)+$f2;
#X obj 214 -82 pow;
#X text 244 -130 Pow;
#X text 111 -136 Initial;
#X text 84 -251 Maps [0 \, 1] to an arbitrary range;
#X text 83 -226 Creation parameters: Signal name \, lower range \,
upper range \, initial value \, pow;
#X obj 132 -111 float \$4;
#X obj 229 -113 float \$5;
#X obj 352 -105 float \$2;
#X obj 442 -110 float \$3;
#X obj 34 64 receive \$1;
#X floatatom 102 137 7 0 1 0 - - -;
#X obj 266 213 send _\$1;
#X text 264 196 Signal Name;
#X obj 259 -176 t b b b b b;
#X obj 257 -204 loadbang;
#X connect 0 0 16 0;
#X connect 1 0 17 0;
#X connect 4 0 1 0;
#X connect 5 0 4 0;
#X connect 6 0 5 0;
#X connect 11 0 0 0;
#X connect 12 0 6 1;
#X connect 13 0 4 1;
#X connect 13 0 5 1;
#X connect 14 0 4 2;
#X connect 14 0 5 2;
#X connect 15 0 0 0;
#X connect 16 0 6 0;
#X connect 19 0 11 0;
#X connect 19 1 12 0;
#X connect 19 2 13 0;
#X connect 19 3 14 0;
#X connect 20 0 19 0;
#X coords 0 -1 1 1 185 55 1 100 100;
