#N canvas 369 59 861 559 10;
#X declare -stdpath extra/iemmatrix;
#X obj 42 156 dac~;
#X obj 41 -152 metro 1000;
#X obj 41 -180 loadbang;
#X obj 41 -83 select 0 1 2 3;
#X msg 41 -46 48;
#X obj 41 53 pack f f;
#X msg 73 -46 51;
#X msg 108 -46 54;
#X msg 143 -46 55;
#X obj 41 -119 pd/count 4;
#X obj 41 24 makenote 65 800;
#X obj 41 109 pd/voice;
#X obj 190 -185 pd/parameters;
#X obj 390 -220 r path;
#X text 439 -220 Container app will send the current directory;
#X text 487 -187 Or we can set it manually when debugging;
#X msg 428 -163 /Users/rafaelvega/Projects/Active/Sinte/repo/pd/patches
;
#X obj 390 -95 send _path;
#X obj 390 -122 symbol;
#N canvas 180 97 721 359 load_default_preset 0;
#X obj 3 -27 pd/presets;
#X msg 516 -74 \$1/presets/__ios_.preset;
#X text 570 79 Silence qlist warnings:;
#X obj 575 98 r id;
#X obj 575 120 r name;
#X obj 575 143 r author;
#X obj 575 165 r category;
#X obj 575 187 r comments;
#X obj 623 -137 r _path;
#X obj 516 -138 inlet;
#X obj 516 -109 symbol;
#X text 558 -138 <-- Bang;
#X text 244 -140 When bang is received \, loads preset at _path/presets/__ios_.preset
;
#X connect 1 0 0 7;
#X connect 8 0 10 1;
#X connect 9 0 10 0;
#X connect 10 0 1 0;
#X restore 666 -66 pd load_default_preset;
#X obj 281 298 pd/morpher;
#X obj 515 45 r which-mfcc-x;
#X obj 611 49 r which-mfcc-y;
#X obj 711 47 r xpos;
#X obj 657 75 r ypos;
#X obj 41 -7 + 0;
#X obj 269 122 nbx 5 14 1 11 0 1 empty empty empty 0 -8 0 10 -262144
-1 -1 5 256;
#X obj 295 175 nbx 5 14 1 11 0 1 empty empty empty 0 -8 0 10 -262144
-1 -1 2 256;
#X obj 423 157 hsl 128 15 0 400 0 0 empty empty empty -2 -8 0 10 -262144
-1 -1 5315 1;
#X obj 429 238 hsl 128 15 0 400 0 0 empty empty empty -2 -8 0 10 -262144
-1 -1 6350 1;
#X msg 426 204 200;
#X obj 352 69 t b b b b;
#X obj 324 34 loadbang;
#X msg 420 128 180;
#X msg 252 16 bang;
#X obj 666 -87 bng 15 250 50 0 empty empty empty 17 7 0 10 -262144
-1 -1;
#X obj 428 -187 loadbang;
#X connect 1 0 9 0;
#X connect 2 0 1 0;
#X connect 3 0 4 0;
#X connect 3 1 6 0;
#X connect 3 2 7 0;
#X connect 3 3 8 0;
#X connect 4 0 25 0;
#X connect 5 0 11 0;
#X connect 6 0 25 0;
#X connect 7 0 25 0;
#X connect 8 0 25 0;
#X connect 9 0 3 0;
#X connect 10 0 5 0;
#X connect 10 1 5 1;
#X connect 11 0 0 0;
#X connect 11 0 0 1;
#X connect 13 0 18 0;
#X connect 16 0 18 0;
#X connect 18 0 17 0;
#X connect 25 0 10 0;
#X connect 26 0 20 0;
#X connect 27 0 20 1;
#X connect 28 0 20 2;
#X connect 29 0 20 3;
#X connect 30 0 29 0;
#X connect 31 0 30 0;
#X connect 31 1 33 0;
#X connect 31 2 27 0;
#X connect 31 3 26 0;
#X connect 32 0 31 0;
#X connect 33 0 28 0;
#X connect 34 0 31 0;
#X connect 35 0 19 0;
#X connect 36 0 16 0;
