#N canvas 769 22 445 519 10;
#X declare -stdpath extra/iemmatrix;
#X obj 2 30 cnv 15 150 25 empty empty empty 5 12 0 11 -202944 -66577
0;
#X obj 2 84 cnv 15 150 25 empty empty empty 5 12 0 11 -65569 -262144
0;
#X obj 256 47 cnv 15 120 30 empty empty empty 3 7 0 11 -142464 -66577
0;
#X obj 2 57 cnv 15 150 25 empty empty empty 5 12 0 11 -90160 -228856
0;
#N canvas 55 57 672 290 presets 0;
#X obj 97 -22 r preset-load;
#X obj 12 -22 r preset-save;
#X obj 525 -25 r filename;
#X obj 183 -22 r id;
#X obj 231 -22 r name;
#X obj 305 -22 r category;
#X obj 378 -23 r author;
#X obj 451 -25 r comments;
#X obj 12 3 pd/presets;
#X connect 0 0 8 1;
#X connect 1 0 8 0;
#X connect 2 0 8 7;
#X connect 3 0 8 2;
#X connect 4 0 8 3;
#X connect 5 0 8 4;
#X connect 6 0 8 5;
#X connect 7 0 8 6;
#X restore 284 55 pd presets;
#X obj 256 79 cnv 15 120 30 empty empty empty 3 7 0 11 -10368 -66577
0;
#X obj 2 111 cnv 15 400 55 empty empty Morphasynth/0.4.3 208 14 1 23
-1 -225024 0;
#X obj 305 143 nbx 2 17 1 12 0 1 which-mfcc-x empty X -11 9 1 15 -99865
-212608 -212608 3 256;
#X obj 360 142 nbx 2 17 1 12 0 1 which-mfcc-y empty Y -11 9 1 15 -99865
-212608 -208512 10 256;
#X obj 12 88 outlet~;
#X obj 7 145 r canvas;
#X obj 50 39 bng 10 250 50 0 empty empty PANIC! 12 5 0 8 -262144 -1
-1;
#X obj 183 141 hsl 100 22 1 0 0 1 cursor-width r-cursor-width cursorWidth
20 10 1 12 -99865 -212608 -212608 7700 0;
#N canvas 53 299 450 300 notein 0;
#X obj 208 146 inlet;
#X obj 156 68 notein;
#X obj 156 104 pack f f;
#X obj 186 198 outlet;
#X text 101 99 pd in;
#X connect 0 0 3 0;
#X connect 1 0 2 0;
#X connect 1 1 2 1;
#X connect 2 0 3 0;
#X coords 0 -1 1 1 35 16 2 100 100;
#X restore 12 36 pd notein;
#X obj 2 3 cnv 15 150 25 empty empty empty 5 12 0 11 -253632 -66577
0;
#X obj 154 47 cnv 15 100 62 empty empty empty 25 12 1 14 -208512 -66577
0;
#N canvas 0 22 610 300 volume_n_fx 0;
#X obj 228 75 inlet~;
#N canvas 545 119 450 300 fx 0;
#X obj 28 27 inlet~;
#X obj 36 226 outlet~;
#X obj 43 124 freeverb~;
#X msg 43 107 dry 1;
#X msg 122 107 roomsize 0.99;
#X msg 83 107 wet 1;
#X obj 122 90 loadbang;
#X obj 93 226 outlet~;
#X obj 235 87 inlet;
#X obj 42 168 *~;
#X obj 91 169 *~;
#X connect 0 0 2 0;
#X connect 0 0 2 1;
#X connect 2 0 9 0;
#X connect 2 1 10 0;
#X connect 3 0 2 0;
#X connect 4 0 2 0;
#X connect 5 0 2 0;
#X connect 6 0 5 0;
#X connect 6 0 3 0;
#X connect 6 0 4 0;
#X connect 8 0 9 1;
#X connect 8 0 10 1;
#X connect 9 0 1 0;
#X connect 10 0 7 0;
#X restore 269 130 pd fx;
#X obj 105 102 hsl 61 15 0 1 0 1 empty empty vol 21 7 1 12 -262144
-1 -1 2800 1;
#X obj 251 244 dac~;
#X obj 217 214 *~;
#X obj 263 215 *~;
#X obj 104 181 sel 0;
#X msg 50 231 \; pd dsp 0;
#X msg 137 232 \; pd dsp 1;
#X obj 351 245 tabwrite~ L;
#X obj 425 245 tabwrite~ R;
#X msg 445 217 bang;
#X obj 383 51 soundfiler;
#X obj 105 120 hsl 61 15 0 1 0 1 empty empty rev 21 7 1 12 -262144
-1 -1 0 1;
#X obj 368 164 table L 7.938e+06;
#X obj 368 183 table R 7.938e+06;
#X msg 383 29 write -wave d:/morphasynth5-L.wav L;
#X msg 349 80 write -wave d:/morphasynth5-R.wav R;
#X connect 0 0 4 0;
#X connect 0 0 5 0;
#X connect 0 0 1 0;
#X connect 1 0 4 0;
#X connect 1 1 5 0;
#X connect 2 0 4 1;
#X connect 2 0 5 1;
#X connect 2 0 6 0;
#X connect 4 0 3 0;
#X connect 4 0 9 0;
#X connect 5 0 3 1;
#X connect 5 0 10 0;
#X connect 6 0 7 0;
#X connect 6 1 8 0;
#X connect 11 0 10 0;
#X connect 11 0 9 0;
#X connect 13 0 1 1;
#X connect 16 0 12 0;
#X connect 17 0 12 0;
#X coords 0 -1 1 1 70 38 2 100 100;
#X restore 169 70 pd volume_n_fx;
#X obj 154 3 cnv 15 248 42 empty empty empty 3 10 1 14 -260097 -66577
0;
#X obj 378 47 cnv 15 24 62 empty empty empty 20 12 0 14 -1454 -66577
0;
#X text 157 4 - Dejar la envolvente de amplitud afuera;
#X obj 286 87 pd/sliders;
#X obj 210 194 declare -stdpath extra/iemmatrix;
#N canvas 423 22 540 220 dsp 0;
#X obj 3 -5 inlet;
#X obj 41 19 inlet;
#X obj 65 142 pd/dsp;
#X obj 66 186 outlet~;
#X obj 158 66 r xpos;
#X obj 169 90 r ypos;
#X obj 92 16 r which-mfcc-x;
#X obj 178 115 r cursor-width;
#X obj 92 35 - 1;
#X obj 121 37 r which-mfcc-y;
#X obj 121 56 - 1;
#X connect 0 0 2 0;
#X connect 1 0 2 1;
#X connect 2 0 3 0;
#X connect 4 0 2 4;
#X connect 5 0 2 5;
#X connect 6 0 8 0;
#X connect 7 0 2 6;
#X connect 8 0 2 2;
#X connect 9 0 10 0;
#X connect 10 0 2 3;
#X restore 12 62 pd dsp;
#X obj 210 213 iemmatrix 0.2;
#X obj 12 7 pd/make-notes;
#X text 206 167 [matrix];
#N canvas 630 227 450 300 showmorph 0;
#N canvas 0 22 450 300 (subpatch) 0;
#X array distancias-gauss 43 float 2;
#X coords 0 1 43 0 172 19 2 0 0;
#X restore 100 100 graph;
#X obj 100 100 cnv 15 172 20 empty empty empty 0 12 1 62 -99865 -212608
0;
#X coords 0 -1 1 1 172 20 2 100 100;
#X restore 7 142 pd showmorph;
#X text 209 178 needs this nonsense to load:;
#X obj 12 186 unpack f f;
#X obj 69 208 != 0;
#N canvas 430 228 450 159 drawpresets 0;
#X obj 33 33 r which-mfcc-x;
#X obj 174 35 r which-mfcc-y;
#N canvas 522 48 665 635 readPresetsAndMakePos 0;
#X obj 101 19 inlet;
#X text 100 3 SelectedX;
#X obj 261 21 inlet;
#X text 260 5 SelectedY;
#X obj 128 583 outlet;
#X text 98 601 Ubicación X \, Y de cada punto/preset;
#X obj 102 392 list split;
#X obj 231 392 list split;
#X obj 130 414 list split 1;
#X obj 259 414 list split 1;
#X obj 130 497 pack f f;
#X obj 83 352 t a a a;
#X obj 159 355 + 48;
#X obj 288 360 + 48;
#X msg 82 257 row \$1;
#X obj 82 274 s tomatrix;
#X obj 83 301 r frommatrix;
#X obj 55 146 until;
#X obj 55 180 f;
#X obj 81 180 + 1;
#X msg 36 98 bang;
#X msg 95 148 0;
#X obj 55 220 + 1;
#X obj 193 216 < 44;
#X obj 101 77 t b f;
#X obj 261 81 t b f;
#X obj 55 199 t f f;
#X obj 83 325 spigot;
#X obj 220 129 sel 0;
#X obj 193 308 t f f;
#X obj 193 269 change;
#X text 298 457 OJO!!!!!!!!!!!!!!!!!!!!!!!!!!!!!!!!!!!!!!!!!!!!!!!!!
;
#X obj 95 445 + 1;
#X obj 259 463 + 1;
#X obj 259 480 * 200;
#X obj 95 461 * 200;
#X text 300 470 Hay MFCC que son negativos. hay que sumar uno y multiplicar
por 100 para que ocupe todo el canvas de 400;
#X obj 101 38 - 1;
#X obj 261 43 - 1;
#X obj 261 62 nbx 5 14 -1e+37 1e+37 0 1 empty empty empty 0 -8 0 10
-262144 -1 -1 9 256;
#X obj 101 58 nbx 5 14 -1e+37 1e+37 0 1 empty empty empty 0 -8 0 10
-262144 -1 -1 2 256;
#X obj 352 24 loadbang;
#X obj 352 45 delay 1000;
#X obj 55 240 t f f;
#X obj 55 516 list append;
#X obj 36 125 t b b b;
#X connect 0 0 37 0;
#X connect 2 0 38 0;
#X connect 6 1 8 0;
#X connect 7 1 9 0;
#X connect 8 0 32 0;
#X connect 8 0 10 0;
#X connect 9 0 33 0;
#X connect 9 0 10 1;
#X connect 10 0 44 1;
#X connect 11 1 6 0;
#X connect 11 2 7 0;
#X connect 12 0 6 1;
#X connect 13 0 7 1;
#X connect 14 0 15 0;
#X connect 16 0 27 0;
#X connect 17 0 18 0;
#X connect 18 0 19 0;
#X connect 18 0 26 0;
#X connect 19 0 18 1;
#X connect 20 0 45 0;
#X connect 21 0 18 1;
#X connect 22 0 43 0;
#X connect 23 0 30 0;
#X connect 24 0 20 0;
#X connect 24 1 12 0;
#X connect 25 0 20 0;
#X connect 25 1 13 0;
#X connect 26 0 22 0;
#X connect 26 1 23 0;
#X connect 27 0 11 0;
#X connect 28 0 17 1;
#X connect 29 0 27 1;
#X connect 29 1 28 0;
#X connect 30 0 29 0;
#X connect 32 0 35 0;
#X connect 33 0 34 0;
#X connect 37 0 40 0;
#X connect 38 0 39 0;
#X connect 39 0 25 0;
#X connect 40 0 24 0;
#X connect 41 0 42 0;
#X connect 42 0 39 0;
#X connect 43 0 44 0;
#X connect 43 1 14 0;
#X connect 44 0 4 0;
#X connect 45 1 17 0;
#X connect 45 2 21 0;
#X restore 33 91 pd readPresetsAndMakePos;
#X obj 174 52 t f b;
#X obj 33 52 t f b;
#X obj 33 117 outlet;
#X connect 0 0 4 0;
#X connect 1 0 3 0;
#X connect 2 0 5 0;
#X connect 3 0 2 1;
#X connect 4 0 2 0;
#X restore 114 188 pd drawpresets;
#X obj 2 233 cnv 15 400 150 empty empty empty 20 12 0 14 -1 -66577
0;
#X obj 6 466 s xpos;
#X obj 6 326 pd/2d_interface;
#X obj 6 343 unpack f f;
#X obj 6 360 * 400;
#X obj 63 360 * 400;
#X obj 127 234 cnv 15 274 148 empty empty empty 25 12 1 14 -208512
-66577 0;
#X obj 3 234 cnv 15 122 60 empty empty empty 20 12 0 14 -260097 -66577
0;
#X msg 42 253 bang;
#X text 130 247 Toda esta parte es la interfaz en GEM.;
#X text 130 259 Estáindependiente de todo el proceso.;
#X text 130 280 Cuando vamos a hacer otra interfaz (HTML5);
#X text 133 291 Solo necesitamos poder dibujar los presets;
#X text 130 302 segun los ejes seleccionados y para eso;
#X text 132 313 usamos el objeto [drawpresets] que envía esa;
#X text 130 325 infromación.;
#X text 131 346 De la interfz necesitamos;
#X text 131 359 los datos del cursor: (xpos)(ypos)(pressed);
#X obj 93 401 s pressed;
#X obj 93 345 tgl 15 0 empty empty empty 17 7 0 10 -262144 -1 -1 0
1;
#X obj 13 273 hsl 100 15 0 2 0 1 empty empty speed 37 8 0 10 -262144
-1 -1 4600 1;
#X obj 6 449 line 0 15;
#X obj 63 450 line 0 15;
#X obj 63 467 s ypos;
#X obj 6 432 pack f 15;
#X obj 63 432 pack f 15;
#X text 13 236 DRAW INTERFACE;
#X text 159 19 - Poner el speed en la interfaz;
#X obj 198 430 r cursor-width;
#X obj 216 467 print CW;
#X connect 11 0 22 1;
#X connect 13 0 22 0;
#X connect 13 0 28 0;
#X connect 22 0 9 0;
#X connect 22 0 16 0;
#X connect 24 0 13 0;
#X connect 28 1 29 0;
#X connect 29 0 33 1;
#X connect 30 0 33 2;
#X connect 33 0 34 0;
#X connect 33 1 50 0;
#X connect 33 1 49 0;
#X connect 34 0 35 0;
#X connect 34 1 36 0;
#X connect 35 0 55 0;
#X connect 36 0 56 0;
#X connect 39 0 33 0;
#X connect 51 0 33 3;
#X connect 52 0 32 0;
#X connect 53 0 54 0;
#X connect 55 0 52 0;
#X connect 56 0 53 0;
#X connect 59 0 60 0;
