#N canvas 174 86 699 443 10;
#X obj -72 -3 dac~;
#X obj -72 -49 pd/voice;
#X obj -308 -130 pd/parameters;
#X obj -535 21 pd/morpher;
#X obj -535 -122 r which-mfcc-x;
#X obj -521 -94 r which-mfcc-y;
#X obj -507 -67 r xpos;
#X obj -493 -41 r ypos;
#X obj -478 -14 r cursor_width;
#X text -384 -15 [0 \, 1];
#X text -448 -43 [0 \, 1];
#X text -462 -69 [0 \, 1];
#X text -428 -96 [1 \, 12];
#X text -442 -124 [1 \, 12];
#X obj -72 -125 notein;
#X obj -72 -89 pack f f;
#X obj -537 -254 iemmatrix 0.2;
#X msg -599 -222 \; pd dsp 1;
#X obj -599 -254 loadbang;
#X text -599 -277 PD Paraphernalia;
#X text -310 -154 Synthesis parameters;
#X text -537 -152 The Morpher;
#X text -74 -150 One synthesizer voice;
#X connect 1 0 0 0;
#X connect 1 0 0 1;
#X connect 4 0 3 0;
#X connect 5 0 3 1;
#X connect 6 0 3 2;
#X connect 7 0 3 3;
#X connect 8 0 3 4;
#X connect 14 0 15 0;
#X connect 14 1 15 1;
#X connect 15 0 1 0;
#X connect 18 0 17 0;
