#N canvas 805 22 449 754 10;
#X declare -stdpath extra/iemmatrix;
#X obj 22 65 cnv 15 150 30 empty empty MIDI_IN 5 12 0 11 -202944 -66577
0;
#X obj 22 141 cnv 15 150 30 empty empty AUDIO_OUT 5 12 0 11 -65569
-262144 0;
#X obj 276 109 cnv 15 120 30 empty empty PRESETS 3 7 0 11 -142464 -66577
0;
#X obj 22 109 cnv 15 150 30 empty empty SYNTH 5 12 0 11 -90160 -228856
0;
#N canvas 55 57 672 290 presets 0;
#X obj 97 -22 r preset-load;
#X obj 12 -22 r preset-save;
#X obj 525 -25 r filename;
#X obj 183 -22 r id;
#X obj 231 -22 r name;
#X obj 305 -22 r category;
#X obj 378 -23 r author;
#X obj 451 -25 r comments;
#X obj 12 3 pd/presets;
#X connect 0 0 8 1;
#X connect 1 0 8 0;
#X connect 2 0 8 7;
#X connect 3 0 8 2;
#X connect 4 0 8 3;
#X connect 5 0 8 4;
#X connect 6 0 8 5;
#X connect 7 0 8 6;
#X restore 330 121 pd presets;
#X obj 276 141 cnv 15 120 30 empty empty SYNTH_PARAMS 3 7 0 11 -10368
-66577 0;
#X obj 22 173 cnv 15 400 400 empty empty MORPHAZINATOR 5 12 0 11 -254733
-225024 0;
#X obj 247 189 nbx 2 14 1 12 0 1 which-mfcc-x empty Descriptor-X -70
7 1 12 -262144 -1 -212608 8 256;
#X obj 351 189 nbx 2 14 1 12 0 1 which-mfcc-y empty Descriptor-Y -70
7 1 12 -262144 -1 -208512 4 256;
#X obj 99 149 outlet~;
#X obj 22 197 r canvas;
#X obj 22 696 s xpos;
#X obj 102 697 s ypos;
#X obj 126 97 bng 10 250 50 0 empty empty PANIC! 12 5 0 10 -262144
-1 -1;
#X obj 260 223 hsl 150 30 1 0 0 1 cursor-width r-cursor-width cursorWidth
32 13 1 12 -262144 -1 -1 2400 0;
#N canvas 0 22 745 300 shake 0;
#X obj 322 35 inlet;
#X obj 473 28 inlet;
#X obj 397 254 outlet;
#X obj 468 249 outlet;
#X obj 102 101 tgl 15 0 empty empty empty 17 7 0 10 -262144 -1 -1 0
1;
#X obj 538 124 / 100;
#X obj 607 124 / 100;
#X obj 397 195 +;
#X obj 468 187 +;
#X obj 524 214 line;
#X obj 612 236 line;
#X obj 415 157 t b f;
#X obj 610 263 t b f;
#X obj 538 105 random 100;
#X obj 607 105 random 100;
#X obj 536 147 * 30;
#X obj 607 145 * 30;
#X obj 606 166 - 15;
#X obj 537 167 - 15;
#X obj 327 156 line;
#X obj 473 148 line;
#X obj 473 129 pack f 100;
#X obj 322 141 pack f 100;
#X obj 122 101 hsl 95 15 0 100 0 1 empty empty shake 32 7 1 10 -262144
-1 -1 9400 1;
#X obj 192 158 / 2;
#X obj 603 190 pack f 400;
#X obj 524 194 pack f 400;
#X obj 538 86 metro 200;
#X connect 0 0 22 0;
#X connect 1 0 21 0;
#X connect 4 0 27 0;
#X connect 5 0 15 0;
#X connect 6 0 16 0;
#X connect 7 0 2 0;
#X connect 8 0 3 0;
#X connect 9 0 11 0;
#X connect 10 0 12 0;
#X connect 11 0 7 0;
#X connect 11 1 7 1;
#X connect 12 0 8 0;
#X connect 12 1 8 1;
#X connect 13 0 5 0;
#X connect 14 0 6 0;
#X connect 15 0 18 0;
#X connect 16 0 17 0;
#X connect 17 0 25 0;
#X connect 18 0 26 0;
#X connect 19 0 7 0;
#X connect 20 0 8 0;
#X connect 21 0 20 0;
#X connect 22 0 19 0;
#X connect 23 0 15 1;
#X connect 23 0 16 1;
#X connect 23 0 24 0;
#X connect 24 0 18 1;
#X connect 24 0 17 1;
#X connect 25 0 10 0;
#X connect 26 0 9 0;
#X connect 27 0 13 0;
#X connect 27 0 14 0;
#X coords 0 -1 1 1 120 17 2 100 100;
#X restore 22 679 pd shake;
#X obj 22 262 gcanvas 400 400;
#X obj 22 662 clip 0 400;
#X obj 118 662 clip 0 400;
#X obj 1 227 cnv 15 20 20 empty empty MORPH 20 12 1 62 -262144 -212608
0;
#X obj 7 -12 cnv 15 1 1 empty empty MORPHASYNTH.0.4.1 20 12 1 20 -262144
-66577 0;
#N canvas 53 299 450 300 notein 0;
#X obj 208 146 inlet;
#X obj 156 68 notein;
#X obj 156 104 pack f f;
#X obj 186 198 outlet;
#X text 101 99 pd in;
#X connect 0 0 3 0;
#X connect 1 0 2 0;
#X connect 1 1 2 1;
#X connect 2 0 3 0;
#X coords 0 -1 1 1 35 16 2 100 100;
#X restore 100 73 pd notein;
#X obj 22 12 cnv 15 150 50 empty empty MAKE_NOTES 5 12 0 11 -253632
-66577 0;
#X obj 174 109 cnv 15 100 62 empty empty volume 25 12 1 14 -208512
-66577 0;
#N canvas 0 22 610 300 volume_n_fx 0;
#X obj 228 75 inlet~;
#N canvas 545 119 450 300 fx 0;
#X obj 28 27 inlet~;
#X obj 36 226 outlet~;
#X obj 43 124 freeverb~;
#X msg 43 107 dry 1;
#X msg 122 107 roomsize 0.99;
#X msg 83 107 wet 1;
#X obj 122 90 loadbang;
#X obj 93 226 outlet~;
#X connect 0 0 2 0;
#X connect 0 0 2 1;
#X connect 2 0 1 0;
#X connect 2 1 7 0;
#X connect 3 0 2 0;
#X connect 4 0 2 0;
#X connect 5 0 2 0;
#X connect 6 0 5 0;
#X connect 6 0 3 0;
#X connect 6 0 4 0;
#X restore 242 107 pd fx;
#X obj 108 102 hsl 55 15 0 1 0 1 empty empty empty -2 -8 0 10 -262144
-1 -1 4000 1;
#X obj 251 244 dac~;
#X obj 217 214 *~;
#X obj 263 215 *~;
#X obj 104 181 sel 0;
#X msg 50 231 \; pd dsp 0;
#X msg 137 232 \; pd dsp 1;
#X obj 351 245 tabwrite~ L;
#X obj 425 245 tabwrite~ R;
#X obj 368 162 table L 4.41e+06;
#X obj 367 183 table R 4.41e+06;
#X msg 445 217 bang;
#X obj 383 51 soundfiler;
#X msg 383 29 write -wave f:/morphasynth3-L.wav L;
#X msg 349 80 write -wave f:/morphasynth3-R.wav R;
#X connect 0 0 4 0;
#X connect 0 0 5 0;
#X connect 2 0 4 1;
#X connect 2 0 5 1;
#X connect 2 0 6 0;
#X connect 4 0 3 0;
#X connect 4 0 9 0;
#X connect 5 0 3 1;
#X connect 5 0 10 0;
#X connect 6 0 7 0;
#X connect 6 1 8 0;
#X connect 13 0 10 0;
#X connect 13 0 9 0;
#X connect 15 0 14 0;
#X connect 16 0 14 0;
#X coords 0 -1 1 1 70 19 2 100 100;
#X restore 189 132 pd volume_n_fx;
#X obj 174 12 cnv 15 248 95 empty empty ToDo 3 10 1 14 -260097 -66577
0;
#X obj 398 109 cnv 15 24 62 empty empty empty 20 12 0 14 -1454 -66577
0;
#X text 175 34 - Al hacer morph muy rápido hay un ruido;
#X text 176 46 - Dejar la envolvente de amplitud afuera;
#X obj 330 153 pd/sliders;
#X obj 434 53 declare -stdpath extra/iemmatrix;
#X text 430 33 [matrix] needs this nonsense in order to load:;
#N canvas 635 41 540 326 dsp 0;
#X obj 3 -5 inlet;
#X obj 41 19 inlet;
#X obj 65 142 pd/dsp;
#X obj 66 186 outlet~;
#X obj 128 64 r xpos;
#X obj 139 88 r ypos;
#X obj 93 22 r which-mfcc-x;
#X obj 117 44 r which-mfcc-y;
#X obj 148 113 r cursor-width;
#X connect 0 0 2 0;
#X connect 1 0 2 1;
#X connect 2 0 3 0;
#X connect 4 0 2 4;
#X connect 5 0 2 5;
#X connect 6 0 2 2;
#X connect 7 0 2 3;
#X connect 8 0 2 6;
#X restore 99 116 pd dsp;
#X obj 435 75 iemmatrix 0.2;
#X obj 75 37 pd/make-notes;
#N canvas 0 32 866 716 paint 0;
#X obj 118 423 list split;
#X obj 249 423 list split;
#X obj 146 445 list split 1;
#X obj 277 445 list split 1;
#X text 289 586 draw a rectangle with args: color x y width height
;
#X obj 146 616 s canvas;
#X msg 326 206 reset;
#X msg 146 586 rect black \$1 \$2 1 1;
#X obj 146 561 pack f f;
#X obj 99 383 t a a a;
#X obj 175 386 + 48;
#X obj 306 391 + 48;
#X msg 100 293 row \$1;
#X obj 100 310 s tomatrix;
#X obj 99 332 r frommatrix;
#X obj 100 199 until;
#X obj 100 233 f;
#X obj 126 233 + 1;
#X msg 100 101 bang;
#X msg 140 201 0;
#X obj 100 273 + 1;
#X obj 188 269 < 44;
#X obj 197 63 t b f;
#X obj 279 63 t b f;
#X obj 100 252 t f f;
#X obj 99 356 spigot;
#X obj 215 182 sel 0;
#X obj 188 339 t f f;
#X obj 188 300 change;
#X text 143 18 mfcc-x;
#X text 277 19 mfcc-y;
#X obj 147 38 r which-mfcc-x;
#X obj 279 37 r which-mfcc-y;
#X text 316 488 OJO!!!!!!!!!!!!!!!!!!!!!!!!!!!!!!!!!!!!!!!!!!!!!!!!!
;
#X obj 146 494 + 1;
#X obj 277 494 + 1;
#X obj 274 631 print;
#X obj 587 232 pack f f;
#X obj 587 296 s canvas;
#X obj 587 148 r xpos;
#X obj 632 148 r ypos;
#X obj 100 128 t b b b b;
#X obj 453 301 s canvas;
#X obj 453 249 list;
#X text 431 129 __________________________________________;
#X text 703 250 <--- Es el elemento 45;
#X msg 587 252 move 45 \$1 \$2 3 3;
#X obj 587 168 - 1;
#X obj 632 167 - 1;
#X msg 453 268 rect red \$1 \$2 3 3;
#X floatatom 691 194 5 0 0 0 - - -;
#X obj 277 511 * 200;
#X obj 146 510 * 200;
#X text 318 501 Hay MFCC que son negativos. hay que sumar uno y multiplicar
por 100 para que ocupe todo el canvas de 400;
#X text 434 122 Esta zona es para pintar el cursor rojo;
#X connect 0 1 2 0;
#X connect 1 1 3 0;
#X connect 2 0 34 0;
#X connect 3 0 35 0;
#X connect 6 0 5 0;
#X connect 7 0 5 0;
#X connect 8 0 7 0;
#X connect 9 1 0 0;
#X connect 9 2 1 0;
#X connect 10 0 0 1;
#X connect 11 0 1 1;
#X connect 12 0 13 0;
#X connect 14 0 25 0;
#X connect 15 0 16 0;
#X connect 16 0 17 0;
#X connect 16 0 24 0;
#X connect 17 0 16 1;
#X connect 18 0 41 0;
#X connect 19 0 16 1;
#X connect 20 0 12 0;
#X connect 21 0 28 0;
#X connect 22 0 18 0;
#X connect 22 1 10 0;
#X connect 23 0 18 0;
#X connect 23 1 11 0;
#X connect 24 0 20 0;
#X connect 24 1 21 0;
#X connect 25 0 9 0;
#X connect 26 0 15 1;
#X connect 27 0 25 1;
#X connect 27 1 26 0;
#X connect 28 0 27 0;
#X connect 31 0 22 0;
#X connect 32 0 23 0;
#X connect 34 0 52 0;
#X connect 35 0 51 0;
#X connect 37 0 46 0;
#X connect 37 0 43 1;
#X connect 39 0 47 0;
#X connect 39 0 50 0;
#X connect 40 0 48 0;
#X connect 41 0 43 0;
#X connect 41 1 15 0;
#X connect 41 2 19 0;
#X connect 41 3 6 0;
#X connect 43 0 49 0;
#X connect 46 0 38 0;
#X connect 47 0 37 0;
#X connect 48 0 37 1;
#X connect 49 0 42 0;
#X connect 51 0 8 1;
#X connect 52 0 8 0;
#X coords 0 716 1 715 180 19 0;
#X restore 145 697 pd paint in gcanvas;
#X connect 10 0 16 0;
#X connect 13 0 32 1;
#X connect 15 0 11 0;
#X connect 15 1 12 0;
#X connect 16 0 17 0;
#X connect 16 1 18 0;
#X connect 17 0 15 0;
#X connect 18 0 15 1;
#X connect 21 0 32 0;
#X connect 32 0 9 0;
#X connect 32 0 24 0;
#X connect 34 0 21 0;
