#N canvas 252 262 484 215 10;
#X declare -stdpath extra/iemmatrix;
#X obj 36 34 cnv 15 320 140 empty empty ~~MAGIC~~ 20 12 0 11 -260097
-66577 0;
#X obj 130 142 outlet~;
#X text 168 75 MIDI IN;
#X text 63 142 AUDIO OUT;
#X obj 130 107 pd/synthesizer;
#X obj 233 150 pd/morpher;
#X obj 233 57 r which-mfcc-x;
#X obj 252 81 r which-mfcc-y;
#X obj 361 58 iemmatrix 0.2;
#X obj 271 104 r xpos;
#X obj 290 127 r ypos;
#N canvas 1 87 450 300 panic 0;
#X obj 87 217 until;
#X obj 110 161 t b b;
#X obj 118 244 counter;
#X msg 87 193 128;
#X text 174 243 counts out 0 to 127 (all notes);
#X obj 118 314 outlet;
#X msg 118 278 \$1 0;
#X obj 110 128 inlet;
#X connect 0 0 2 0;
#X connect 1 0 3 0;
#X connect 1 1 2 2;
#X connect 2 0 6 0;
#X connect 3 0 0 0;
#X connect 6 0 5 0;
#X connect 7 0 1 0;
#X restore 130 57 pd panic;
#X obj 130 35 inlet;
#X obj 88 56 inlet;
#X obj 361 34 pd/parameters;
#X connect 4 0 1 0;
#X connect 6 0 5 0;
#X connect 7 0 5 1;
#X connect 9 0 5 2;
#X connect 10 0 5 3;
#X connect 11 0 4 0;
#X connect 12 0 11 0;
#X connect 13 0 4 0;
