#N canvas 0 30 1664 984 10;
#X obj 241 38 bng 15 250 50 0 empty empty empty 17 7 0 10 -262144 -1
-1;
#X text 258 37 GO!;
#X obj 280 72 s \$0-load-preset;
#X obj 280 92 r \$0-load-preset;
#X obj 241 53 t b b b;
#X obj 315 161 directory;
#X msg 315 141 rewind;
#X msg 280 197 bang;
#X obj 280 111 t b b b b;
#X obj 443 178 print DONE!;
#X obj 315 180 select . .. .gitkeep;
#X obj 482 335 r \$0-filename-preset;
#X obj 527 216 s2l .;
#X obj 527 235 unpack s s;
#X obj 527 286 s \$0-filename-wav;
#X obj 482 392 qlist;
#X msg 482 373 read \$1 \, tempo 0.1 \, rewind \, bang;
#X obj 482 411 r envelope-a;
#X obj 482 354 symbol;
#X obj 482 449 * 10000;
#X obj 84 334 r \$0-filename-wav;
#X obj 84 391 soundfiler;
#X text 323 844 Start at sample \$1 for \$2 samples -->;
#X obj 482 503 + 100;
#X msg 554 843 analyze \$1 1024;
#X msg 693 570 samplerate 44100;
#X obj 858 1514;
#X obj 84 353 symbol;
#X msg 84 372 read -resize \$1 wave;
#X obj 163 391 table wave;
#X obj 693 886 mfcc wave;
#X obj 482 522 * 44.1;
#X obj 482 430 pow 3;
#X obj 693 997 binWrangler;
#X obj 84 410 s \$0-wave-size;
#X obj 518 594 r \$0-wave-size;
#X obj 482 611 -;
#X obj 482 630 * -1;
#X obj 595 635 nbx 5 14 -1e+037 1e+037 0 1 empty empty empty 0 -8 0
10 -262144 -1 -1 10 256;
#X obj 482 649 /;
#X text 117 553 4 Analize N different portions of wave after attack
time;
#X obj 482 553 t f f b;
#X obj 554 805 +;
#X obj 554 786 *;
#X obj 482 725 until;
#X obj 482 745 f;
#X obj 507 745 + 1;
#X obj 482 668 t b f;
#X obj 482 687 f;
#X obj 482 706 t f b;
#X msg 524 723 0;
#X obj 693 906 list split 1;
#X obj 693 923 list split 12;
#X text 542 997 Group MFCC by index ->>>;
#X msg 800 980 length 12;
#X msg 701 978 num_frames \$1;
#X obj 595 658 s numframes;
#X obj 701 959 r numframes;
#X obj 800 961 loadbang;
#X obj 693 1100 list split;
#X obj 750 1083 r numframes;
#X obj 734 1139 sum;
#X obj 734 1163 /;
#X obj 812 1146 r numframes;
#X obj 774 1212 f;
#X obj 799 1212 + 1;
#X msg 826 1083 0;
#X obj 693 1144 list;
#X obj 734 1193 t b f b;
#X msg 859 1083 bang;
#X text 48 8 1 Get filename for wav and preset from preset files in
preset directory using [directory] object;
#X text 71 317 2 Load wave into table so it can be analyzed;
#X text 468 317 3 Catch attack and decay time.;
#X text 657 316 This is done for the MFCC analysis to take place during
the sustain phase;
#X text 541 619 Number of frames to be;
#X text 540 629 analyzed;
#X text 864 980 There are 12 mfccs that we want to analyze;
#X text 192 786 Iterate N times the size of the frame to be analyzed
;
#X text 505 785 --->>>>;
#X text 752 885 analyze the array called "wave";
#X text 778 911 Split MFcc list and get MFCC 1 to 12;
#X text 354 1157 Here we have the average of each MFCC during the sustain
period. So we have 12 MFCC numbers describing the sound.;
#X text 531 521 <--All wave files have a 100ms pre-silence and have
44100 Sr;
#X msg 371 128 read /Users/98662296/Documents/GitHub/morphasynth/res/pd/presets/
;
#X msg 527 254 /Users/98662296/Documents/GitHub/morphasynth/res/pd/wavs/\$1.wav
;
#X msg 152 223 /Users/98662296/Documents/GitHub/morphasynth/res/pd/presets/\$1
;
#X obj 152 255 s \$0-filename-preset;
#X obj 1140 436 r id;
#X obj 1170 436 r name;
#X obj 1212 436 r author;
#X obj 1266 436 r category;
#X obj 1332 436 r comments;
#X obj 693 1066 t l b b b;
#X obj 753 1233 swap;
#X obj 753 1252 + 1;
#X obj 753 1286 pack s f;
#X msg 753 1269 symbol mfcc\$1;
#X obj 831 1413 textfile;
#X obj 831 1356 r \$0-filename-preset;
#X msg 964 1396 print;
#X obj 831 1375 list;
#X msg 831 1394 read \$1;
#X msg 753 1396 add \$1 \$2;
#X obj 579 214 s \$0-filename-plain;
#X obj 1072 1320 r \$0-filename-plain;
#X obj 500 197 t s s s;
#X obj 1027 1357 symbol;
#X msg 1027 1320 bang;
#X msg 1072 1340 symbol \$1;
#X msg 1027 1396 write \$1;
#X obj 1027 1377 makefilename ./presets_mfcc_ed/%s;
#X obj 887 1464 s next;
#X text 579 1299 -------------------------->>>;
#X text 579 1306 -------------------------->>>;
#X text 579 1313 -------------------------->>>;
#X text 579 1320 -------------------------->>>;
#X text 342 1272 Here the preset file with the 12 MFCC info is formatted
and saved on the /presets_mfcc_ed/ folder with the same name as the
preset.;
#X text 526 1462 Here we say we are done and we are expeting the next
file;
#X text 700 1018 Up to this point we have 12 continious groups of N
nubers. Each group is the temporal evolution of a certain MFCC in the
wavefile during the sustain period.;
#X obj 887 1303 t b b;
#X obj 887 1286 sel 1;
#X obj 887 1269 == 12;
#X text 922 1268 Cuando grabe los 12 MFCC diga bang!;
#X obj 176 180 r next;
#X obj 887 1438 delay 100;
#X msg 482 474 0;
#X text 509 472 *****OJO*****;
#X text 586 455 ************************************************************
;
#X text 587 446 ************************************************************
;
#X text 585 498 ************************************************************
;
#X text 586 489 ************************************************************
;
#X text 588 466 Aqui estoy quitando que mida desde el decay porque
no está funcionando para muestras cortas.;
#X text 1133 404 Esto es para que no saque un error cuando lea el archivo
de qlist y no tenga objetos que reciban la información.;
#X text 522 391 <<<<<<<<<<<<<<<<<<<<<<<<<<<<<<<<<<<<<<<<<<<<<<<<<<<<<<<<<<<<
;
#X text 882 391 <<<<<<<<<<<<<<<<<<<<<<<<<<<<<<<<<<<<<<<<<<<<<<<<<<<<<<<<<<<<
;
#X text 579 1326 -------------------------->>>;
#X text 579 1333 -------------------------->>>;
#X text 579 1340 -------------------------->>>;
#X text 579 1347 -------------------------->>>;
#X text 579 1353 -------------------------->>>;
#X text 579 1360 -------------------------->>>;
#X text 579 1366 -------------------------->>>;
#X text 579 1373 -------------------------->>>;
#X text 579 1380 -------------------------->>>;
#X obj 693 1121 t b a;
#X text 896 28 This is a utility patch that serves to analyze the .wav
files created for each preset and analyze it according to its firts
12 MFCC. Then it records in the .text file of each preset \, the information
resulting from the MFCC analysis. It writes the average of 10 analyses.
;
#X connect 0 0 4 0;
#X connect 3 0 8 0;
#X connect 4 2 2 0;
#X connect 5 0 10 0;
#X connect 5 1 9 0;
#X connect 6 0 5 0;
#X connect 7 0 5 0;
#X connect 8 0 7 0;
#X connect 8 1 6 0;
#X connect 8 2 83 0;
#X connect 10 0 7 0;
#X connect 10 1 7 0;
#X connect 10 2 7 0;
#X connect 10 3 105 0;
#X connect 11 0 18 0;
#X connect 12 0 13 0;
#X connect 13 0 84 0;
#X connect 16 0 15 0;
#X connect 17 0 32 0;
#X connect 18 0 16 0;
#X connect 19 0 125 0;
#X connect 20 0 27 0;
#X connect 21 0 34 0;
#X connect 23 0 31 0;
#X connect 24 0 30 0;
#X connect 25 0 30 0;
#X connect 27 0 28 0;
#X connect 28 0 21 0;
#X connect 30 0 51 0;
#X connect 31 0 41 0;
#X connect 32 0 19 0;
#X connect 33 0 92 0;
#X connect 35 0 36 1;
#X connect 36 0 37 0;
#X connect 37 0 39 0;
#X connect 38 0 39 1;
#X connect 38 0 48 1;
#X connect 38 0 56 0;
#X connect 39 0 47 0;
#X connect 41 0 36 0;
#X connect 41 1 42 1;
#X connect 41 2 25 0;
#X connect 42 0 24 0;
#X connect 43 0 42 0;
#X connect 44 0 45 0;
#X connect 45 0 46 0;
#X connect 45 0 43 0;
#X connect 46 0 45 1;
#X connect 47 0 48 0;
#X connect 47 1 43 1;
#X connect 48 0 49 0;
#X connect 49 0 44 0;
#X connect 49 1 50 0;
#X connect 50 0 45 1;
#X connect 51 1 52 0;
#X connect 52 0 33 0;
#X connect 54 0 33 0;
#X connect 55 0 33 0;
#X connect 57 0 55 0;
#X connect 58 0 54 0;
#X connect 59 0 144 0;
#X connect 59 1 67 1;
#X connect 60 0 59 1;
#X connect 61 0 62 0;
#X connect 62 0 68 0;
#X connect 63 0 62 1;
#X connect 64 0 65 0;
#X connect 64 0 93 1;
#X connect 65 0 64 1;
#X connect 66 0 64 1;
#X connect 67 0 59 0;
#X connect 68 1 93 0;
#X connect 68 2 64 0;
#X connect 69 0 59 1;
#X connect 83 0 5 0;
#X connect 84 0 14 0;
#X connect 85 0 86 0;
#X connect 92 0 59 0;
#X connect 92 1 66 0;
#X connect 92 2 69 0;
#X connect 93 0 94 0;
#X connect 93 1 95 1;
#X connect 94 0 96 0;
#X connect 94 0 121 0;
#X connect 95 0 102 0;
#X connect 96 0 95 0;
#X connect 98 0 100 0;
#X connect 99 0 97 0;
#X connect 100 0 101 0;
#X connect 101 0 97 0;
#X connect 102 0 97 0;
#X connect 104 0 108 0;
#X connect 105 0 85 0;
#X connect 105 1 12 0;
#X connect 105 2 103 0;
#X connect 106 0 110 0;
#X connect 107 0 106 0;
#X connect 108 0 106 1;
#X connect 109 0 97 0;
#X connect 110 0 109 0;
#X connect 119 0 124 0;
#X connect 119 1 107 0;
#X connect 120 0 119 0;
#X connect 121 0 120 0;
#X connect 123 0 7 0;
#X connect 124 0 111 0;
#X connect 125 0 23 0;
#X connect 144 0 67 0;
#X connect 144 1 61 0;
