#N canvas 283 143 861 559 10;
#X obj 42 156 dac~;
#X obj 41 -152 metro 1000;
#X obj 41 -180 loadbang;
#X obj 41 -83 select 0 1 2 3;
#X msg 41 -46 48;
#X obj 41 53 pack f f;
#X msg 73 -46 51;
#X msg 108 -46 54;
#X msg 143 -46 55;
#X obj 41 -119 pd/count 4;
#X obj 41 24 makenote 65 800;
#X obj 41 109 pd/voice;
#X obj 189 -155 pd/sliders;
#X obj 190 -185 pd/parameters;
#X obj 416 -148 r path;
#X text 465 -148 Container app will send the current directory;
#X text 434 -123 Or we can set it manually when debugging;
#X msg 435 -105 /Users/rafaelvega/Projects/Active/Sinte/repo/pd/patches
;
#X obj 416 -51 send _path;
#X obj 416 -78 symbol;
#N canvas 193 61 777 310 load_default_preset 0;
#X obj 3 -27 pd/presets;
#X obj 370 -71 r _path;
#X msg 370 -49 \$1/presets/__ios_.preset;
#X text 549 29 Silence qlist warnings:;
#X obj 554 48 r id;
#X obj 554 70 r name;
#X obj 554 93 r author;
#X obj 554 115 r category;
#X obj 554 137 r comments;
#X connect 1 0 2 0;
#X restore 417 -17 pd load_default_preset;
#X obj 281 298 pd/morpher;
#X obj 515 45 r which-mfcc-x;
#X obj 611 49 r which-mfcc-y;
#X obj 711 47 r xpos;
#X obj 657 75 r ypos;
#X obj 41 -7 + 0;
#X obj 269 122 nbx 5 14 1 11 0 1 empty empty empty 0 -8 0 10 -262144
-1 -1 5 256;
#X obj 295 175 nbx 5 14 1 11 0 1 empty empty empty 0 -8 0 10 -262144
-1 -1 2 256;
#X obj 423 157 hsl 128 15 0 400 0 0 empty empty empty -2 -8 0 10 -262144
-1 -1 5715 1;
#X obj 429 238 hsl 128 15 0 400 0 0 empty empty empty -2 -8 0 10 -262144
-1 -1 6350 1;
#X msg 426 204 200;
#X obj 352 69 t b b b b;
#X obj 324 34 loadbang;
#X msg 420 128 180;
#X obj 440 268 print a;
#X msg 252 16 bang;
#X connect 1 0 9 0;
#X connect 1 0 32 0;
#X connect 2 0 1 0;
#X connect 3 0 4 0;
#X connect 3 1 6 0;
#X connect 3 2 7 0;
#X connect 3 3 8 0;
#X connect 4 0 26 0;
#X connect 5 0 11 0;
#X connect 6 0 26 0;
#X connect 7 0 26 0;
#X connect 8 0 26 0;
#X connect 9 0 3 0;
#X connect 10 0 5 0;
#X connect 10 1 5 1;
#X connect 11 0 0 0;
#X connect 11 0 0 1;
#X connect 14 0 19 0;
#X connect 17 0 19 0;
#X connect 19 0 18 0;
#X connect 26 0 10 0;
#X connect 27 0 21 0;
#X connect 27 0 35 0;
#X connect 28 0 21 1;
#X connect 28 0 35 0;
#X connect 29 0 21 2;
#X connect 29 0 35 0;
#X connect 30 0 21 3;
#X connect 30 0 35 0;
#X connect 31 0 30 0;
#X connect 32 0 31 0;
#X connect 32 1 34 0;
#X connect 32 2 28 0;
#X connect 32 3 27 0;
#X connect 33 0 32 0;
#X connect 34 0 29 0;
#X connect 36 0 32 0;
