#N canvas 418 92 797 475 10;
#X obj 42 156 dac~;
#X obj 41 -152 metro 1000;
#X obj 41 -180 loadbang;
#X obj 41 -83 select 0 1 2 3;
#X msg 41 -46 48;
#X obj 41 53 pack f f;
#X msg 73 -46 51;
#X msg 108 -46 54;
#X msg 143 -46 55;
#X obj 41 -119 pd/count 4;
#X obj 41 24 makenote 65 800;
#X obj 41 109 pd/voice;
#X obj 189 -155 pd/sliders;
#X obj 190 -185 pd/parameters;
#X obj 41 -7 12;
#X obj 414 -176 r path;
#X text 463 -176 Container app will send the current directory;
#X text 432 -151 Or we can set it manually when debugging;
#X msg 433 -133 /Users/rafaelvega/Projects/Active/Sinte/repo/pd/patches
;
#X obj 414 -79 send _path;
#X obj 414 -106 symbol;
#N canvas 193 61 777 310 load_default_preset 0;
#X obj 3 -27 pd/presets;
#X obj 370 -71 r _path;
#X msg 370 -49 \$1/presets/__ios_.preset;
#X text 549 29 Silence qlist warnings:;
#X obj 554 48 r id;
#X obj 554 70 r name;
#X obj 554 93 r author;
#X obj 554 115 r category;
#X obj 554 137 r comments;
#X connect 1 0 2 0;
#X connect 2 0 0 7;
#X restore 415 -45 pd load_default_preset;
#X connect 1 0 9 0;
#X connect 2 0 1 0;
#X connect 3 0 4 0;
#X connect 3 1 6 0;
#X connect 3 2 7 0;
#X connect 3 3 8 0;
#X connect 4 0 14 0;
#X connect 5 0 11 0;
#X connect 6 0 14 0;
#X connect 7 0 14 0;
#X connect 8 0 14 0;
#X connect 9 0 3 0;
#X connect 10 0 5 0;
#X connect 10 1 5 1;
#X connect 11 0 0 0;
#X connect 11 0 0 1;
#X connect 14 0 10 0;
#X connect 15 0 20 0;
#X connect 18 0 20 0;
#X connect 20 0 19 0;
