#N canvas 503 36 797 475 10;
#X obj 42 156 dac~;
#X obj 41 -152 metro 1000;
#X obj 41 -180 loadbang;
#X obj 41 -83 select 0 1 2 3;
#X msg 41 -46 48;
#X obj 41 53 pack f f;
#X msg 73 -46 51;
#X msg 108 -46 54;
#X msg 143 -46 55;
#X obj 41 -119 pd/count 4;
#X obj 41 24 makenote 65 800;
#X obj 41 109 pd/voice;
#X obj 189 -155 pd/sliders;
#X obj 190 -185 pd/parameters;
#X obj 153 105 pd/presets;
#X obj 41 -7 12;
#X obj 414 -176 r path;
#X text 463 -176 Container app will send the current directory;
#X text 432 -151 Or we can set it manually when debugging;
#X obj 666 37 r _path;
#X msg 433 -133 /Users/rafaelvega/Projects/Active/Sinte/repo/pd/patches
;
#X obj 414 -79 send _path;
#X msg 666 68 \$1/presets/__ios_.preset;
#X obj 414 -106 symbol;
#X connect 1 0 9 0;
#X connect 2 0 1 0;
#X connect 3 0 4 0;
#X connect 3 1 6 0;
#X connect 3 2 7 0;
#X connect 3 3 8 0;
#X connect 4 0 15 0;
#X connect 5 0 11 0;
#X connect 6 0 15 0;
#X connect 7 0 15 0;
#X connect 8 0 15 0;
#X connect 9 0 3 0;
#X connect 10 0 5 0;
#X connect 10 1 5 1;
#X connect 11 0 0 0;
#X connect 11 0 0 1;
#X connect 15 0 10 0;
#X connect 16 0 23 0;
#X connect 19 0 22 0;
#X connect 20 0 23 0;
#X connect 22 0 14 7;
#X connect 23 0 21 0;
