#N canvas 212 183 868 520 10;
#X obj 108 165 bng 15 250 50 0 empty empty empty 17 7 0 10 -262144
-1 -1;
#X floatatom 75 424 10 0 0 0 - - -;
#X text 530 299 See timbreID helpfile:;
#X obj 532 319 timbreID;
#X text 131 163 Bang to output spread.;
#X text 164 202 Bang continuously;
#X obj 143 225 metro 250;
#X obj 143 203 tgl 15 0 empty empty empty 17 7 0 10 -262144 -1 -1 0
1;
#X text 392 144 This feature can be sent to the timbreID external in
order to identify percussive timbres in real time.;
#X text 392 184 Audio buffering and Hann windowing are taken care of
by the external \, so there is no need for tabreceive~ or block~. You
can set the window size with a creation argument \, or change it with
the "window" message.;
#X obj 75 46 noise~;
#X floatatom 146 47 5 21 108 2 CF - -;
#X floatatom 223 67 5 1 1000 2 Q - -;
#X text 392 44 Spectral spread is a measure of the concentration of
a spectrum's energy around its centroid. It is reported in units of
Hz. A sinusoid will have a very low spread value because all of the
energy in its spectrum is in one place. Noise will have a high spread.
Try changing the center frequency and Q of the filtered noise at left.
The spread will be greater with a lower Q.;
#N canvas 419 89 706 394 other-settings 0;
#X obj 54 86 hradio 15 1 0 5 empty empty empty 0 -8 0 10 -262144 -1
-1 0;
#X msg 54 106 window_function \$1;
#X msg 169 236 power_spectrum \$1;
#X obj 169 218 tgl 15 0 empty empty empty 17 7 0 10 -262144 -1 -1 0
1;
#X obj 54 315 outlet;
#X text 52 49 Change windowing function. Rectangular (0) \, Blackman
(1) \, Cosine (2) \, Hamming (3) \, or Hann (4). (default: Hann);
#X text 310 236 Use power spectrum. (default: magnitude);
#X text 108 150 Change window size.;
#X msg 110 168 window 2048;
#X connect 0 0 1 0;
#X connect 1 0 4 0;
#X connect 2 0 4 0;
#X connect 3 0 2 0;
#X connect 8 0 4 0;
#X restore 171 283 pd other-settings;
#X obj 1 -13 cnv 10 400 10 empty empty empty 20 12 0 14 -233017 -66577
0;
#X obj 1 -13 cnv 10 10 400 empty empty empty 20 12 0 14 -233017 -66577
0;
#X obj 75 371 specSpread~ 1024;
#X obj 146 66 mtof;
#X obj 223 86 * 10;
#X obj 75 117 bp~ 1000 10;
#X connect 0 0 17 0;
#X connect 6 0 17 0;
#X connect 7 0 6 0;
#X connect 10 0 20 0;
#X connect 11 0 18 0;
#X connect 12 0 19 0;
#X connect 14 0 17 0;
#X connect 17 0 1 0;
#X connect 18 0 20 1;
#X connect 19 0 20 2;
#X connect 20 0 17 0;
