#N canvas 596 159 645 550 10;
#X text 440 -127 Upper range;
#X text 350 -122 Lower range;
#X obj 363 -14 limit 0 1 0;
#X obj 214 -54 expr $f1*($f3-$f2)+$f2;
#X obj 214 -82 pow;
#X text 244 -130 Pow;
#X text 109 -136 Initial;
#X text 84 -251 Maps [0 \, 1] to an arbitrary range;
#X text 83 -226 Creation parameters: Signal name \, lower range \,
upper range \, initial value \, pow;
#X obj 132 -111 float \$4;
#X obj 229 -113 float \$5;
#X obj 352 -105 float \$2;
#X obj 442 -110 float \$3;
#X obj 32 -110 receive \$1;
#X obj 363 34 send _\$1;
#X obj 259 -202 loadbang;
#X text -14 -129 "Public" signal;
#X text 120 46 Unmapped Signal;
#X text 350 50 Mapped signal;
#X obj 136 31 send __\$1;
#X obj 259 -176 t b b b b;
#X connect 2 0 14 0;
#X connect 3 0 2 0;
#X connect 4 0 3 0;
#X connect 9 0 4 0;
#X connect 9 0 19 0;
#X connect 10 0 4 1;
#X connect 11 0 2 1;
#X connect 11 0 3 1;
#X connect 12 0 2 2;
#X connect 12 0 3 2;
#X connect 13 0 19 0;
#X connect 13 0 4 0;
#X connect 15 0 20 0;
#X connect 20 0 9 0;
#X connect 20 1 10 0;
#X connect 20 2 11 0;
#X connect 20 3 12 0;
#X coords 0 550 1 549 185 55 0;
