#N canvas 904 105 711 655 10;
#N canvas 1 87 667 681 presetreader 0;
#X obj 102 179 textfile;
#X msg 68 142 read \$1 \, rewind;
#X obj 68 162 t b a;
#X obj 68 197 until;
#X obj 68 262 t b b;
#X obj 68 74 inlet;
#X text 68 55 Presetname;
#X obj 96 529 outlet;
#X text 94 546 Preset vector in order;
#X obj 95 456 list split 1;
#X obj 121 199 route osc1-amplitude osc1-waveform osc1-finetune lfo1-freq
lfo1-waveform lfo1-to-amplitude lfo1-to-freq osc2-amplitude osc2-waveform
osc2-finetune lfo2-freq lfo2-waveform lfo2-to-amplitude lfo2-to-freq
osc3-amplitude osc3-waveform osc3-finetune lfo3-freq lfo3-waveform
lfo3-to-amplitude lfo3-to-freq noise-amplitude lp-freq lp-resonance
lp-keyfollow lp-contour lp-envelope-a lp-envelope-d lp-envelope-s lp-envelope-r
lp-lfo-freq lp-lfo-waveform lp-lfo-amplitude hp-freq hp-resonance hp-keyfollow
hp-contour hp-envelope-a hp-envelope-d hp-envelope-s hp-envelope-r
hp-lfo-freq hp-lfo-waveform hp-lfo-amplitude envelope-a envelope-d
envelope-s envelope-r mfcc1 mfcc2 mfcc3 mfcc4 mfcc5 mfcc6 mfcc7 mfcc8
mfcc9 mfcc10 mfcc11 mfcc12;
#X obj 95 408 pack f f f f f f f f f f f f f f f f f f f f f f f f
f f f f f f f f f f f f f f f f f f f f f f f f f f f f f f f f f f
f f f;
#X msg 68 96 symbol /Users/98662296/Documents/GitHub/morphasynth/res/pd/presets_mfcc_ed/\$1
;
#X connect 0 0 10 0;
#X connect 0 1 4 0;
#X connect 1 0 2 0;
#X connect 2 0 3 0;
#X connect 2 1 0 0;
#X connect 3 0 0 0;
#X connect 4 0 11 0;
#X connect 4 1 3 1;
#X connect 5 0 12 0;
#X connect 9 1 7 0;
#X connect 10 0 11 1;
#X connect 10 1 11 2;
#X connect 10 2 11 3;
#X connect 10 3 11 4;
#X connect 10 4 11 5;
#X connect 10 5 11 6;
#X connect 10 6 11 7;
#X connect 10 7 11 8;
#X connect 10 8 11 9;
#X connect 10 9 11 10;
#X connect 10 10 11 11;
#X connect 10 11 11 12;
#X connect 10 12 11 13;
#X connect 10 13 11 14;
#X connect 10 14 11 15;
#X connect 10 15 11 16;
#X connect 10 16 11 17;
#X connect 10 17 11 18;
#X connect 10 18 11 19;
#X connect 10 19 11 20;
#X connect 10 20 11 21;
#X connect 10 21 11 22;
#X connect 10 22 11 23;
#X connect 10 23 11 24;
#X connect 10 24 11 25;
#X connect 10 25 11 26;
#X connect 10 26 11 27;
#X connect 10 27 11 28;
#X connect 10 28 11 29;
#X connect 10 29 11 30;
#X connect 10 30 11 31;
#X connect 10 31 11 32;
#X connect 10 32 11 33;
#X connect 10 33 11 34;
#X connect 10 34 11 35;
#X connect 10 35 11 36;
#X connect 10 36 11 37;
#X connect 10 37 11 38;
#X connect 10 38 11 39;
#X connect 10 39 11 40;
#X connect 10 40 11 41;
#X connect 10 41 11 42;
#X connect 10 42 11 43;
#X connect 10 43 11 44;
#X connect 10 44 11 45;
#X connect 10 45 11 46;
#X connect 10 46 11 47;
#X connect 10 47 11 48;
#X connect 10 48 11 49;
#X connect 10 49 11 50;
#X connect 10 50 11 51;
#X connect 10 51 11 52;
#X connect 10 52 11 53;
#X connect 10 53 11 54;
#X connect 10 54 11 55;
#X connect 10 55 11 56;
#X connect 10 56 11 57;
#X connect 10 57 11 58;
#X connect 10 58 11 59;
#X connect 10 59 11 60;
#X connect 11 0 9 0;
#X connect 12 0 1 0;
#X restore -388 161 pd presetreader;
#X msg -29 233 bang;
#X msg -117 233 0;
#X text -161 216 clear the matrix;
#X msg -181 132 0;
#X text -182 115 reset;
#X text -32 214 print!;
#N canvas 1 82 333 300 format 0;
#X obj 110 98 f;
#X obj 134 98 + 1;
#X msg 25 81 0;
#X obj 110 117 / 2;
#X obj 110 134 int;
#X text 25 63 reset;
#X msg 110 189 row \$1;
#X obj 110 151 change;
#X obj 110 73 t b a;
#X obj 110 209 list append;
#X obj 110 229 list trim;
#X obj 110 169 + 1;
#X obj 110 52 inlet;
#X obj 255 38 inlet;
#X obj 110 254 outlet;
#X connect 0 0 1 0;
#X connect 0 0 3 0;
#X connect 1 0 0 1;
#X connect 2 0 0 1;
#X connect 3 0 4 0;
#X connect 4 0 7 0;
#X connect 6 0 9 0;
#X connect 7 0 11 0;
#X connect 8 0 0 0;
#X connect 8 1 9 1;
#X connect 9 0 10 0;
#X connect 10 0 14 0;
#X connect 11 0 6 0;
#X connect 12 0 8 0;
#X connect 13 0 2 0;
#X restore -388 186 pd format preset vector with number;
#X obj -382 233 r tomatrix;
#X obj -388 284 s frommatrix;
#N canvas 474 243 870 489 readallpresets 0;
#X obj 398 208 directory;
#X obj 468 13 loadbang;
#X obj 253 -30 inlet;
#X obj 253 104 until;
#X msg 253 60 bang;
#X msg 280 36 rewind;
#X obj 253 5 t b b;
#X obj 398 229 select . .. .gitkeep;
#X obj 515 264 outlet;
#X msg 468 59 read /Users/98662296/Documents/GitHub/morphasynth/res/pd/presets_mfcc_ed/
;
#X connect 0 0 7 0;
#X connect 0 1 3 1;
#X connect 1 0 9 0;
#X connect 2 0 6 0;
#X connect 3 0 0 0;
#X connect 4 0 3 0;
#X connect 5 0 0 0;
#X connect 6 0 4 0;
#X connect 6 1 5 0;
#X connect 7 0 4 0;
#X connect 7 1 4 0;
#X connect 7 2 4 0;
#X connect 7 3 8 0;
#X connect 9 0 0 0;
#X restore -388 132 pd readallpresets;
#X obj -388 104 t b b;
#N canvas 1 87 450 300 add 0;
#X obj 82 13 inlet;
#X obj 90 226 list append;
#X obj 204 157 repack 13;
#X obj 204 100 until;
#X obj 204 176 t a b;
#X obj 100 55 t a b;
#X obj 148 279 outlet;
#X obj 148 259 list trim;
#X obj 204 119 random 100;
#X obj 204 138 / 100;
#X connect 0 0 5 0;
#X connect 1 0 7 0;
#X connect 2 0 4 0;
#X connect 3 0 8 0;
#X connect 4 0 1 1;
#X connect 4 1 3 1;
#X connect 5 0 1 0;
#X connect 5 1 3 0;
#X connect 7 0 6 0;
#X connect 8 0 9 0;
#X connect 9 0 2 0;
#X restore -388 213 pd add MFCC to vector;
#X msg -154 185 bang;
#X text -308 260 1-48: presets \, 49-61: MFCC;
#N canvas 0 0 1664 984 calcular 0;
#X obj 155 363 list split;
#X obj 285 363 list split;
#X obj 183 383 list split 1;
#X obj 313 383 list split 1;
#X obj 136 323 t a a a;
#X obj 212 326 + 48;
#X obj 342 325 + 48;
#X msg 136 240 row \$1;
#X obj 136 257 s tomatrix;
#X obj 136 279 r frommatrix;
#X obj 117 146 until;
#X obj 117 180 f;
#X obj 143 180 + 1;
#X msg 85 88 bang;
#X msg 157 146 0;
#X obj 136 220 + 1;
#X obj 224 216 < 44;
#X obj 136 303 spigot;
#X obj 251 129 sel 0;
#X obj 224 286 t f f;
#X obj 224 247 change;
#X obj 285 266 r selectedMFCC;
#X obj 285 285 unpack f f;
#X obj 183 450 -;
#X obj 313 450 -;
#X text 81 887 ____________________________________________________________
;
#X text 443 886 Multiplicar cada fila por su distancia y guardarla
en la matriz de resultado;
#X text 1000 18 Sigma (ancho de la gráfica);
#X obj 845 208 * 5;
#X obj 845 225 expr (1/(sqrt(2*3.14159*pow($f2 \, 2)))*(exp((-1)*pow($f1
\, 2)/2*pow($f2 \, 2))))*(2.5*$f2);
#X obj 845 255 tabwrite sigma;
#X obj 845 157 f;
#X obj 867 157 + 1;
#N canvas 0 0 450 300 (subpatch) 0;
#X array sigma 100 float 1;
#A 0 0.997356 0 0 0 0 0 0 0 0 0 0 0 0 0 0 0 0 0 0 0 0 0 0 0 0 0 0 0
0 0 0 0 0 0 0 0 0 0 0 0 0 0 0 0 0 0 0 0 0 0 0 0 0 0 0 0 0 0 0 0 0 0
0 0 0 0 0 0 0 0 0 0 0 0 0 0 0 0 0 0 0 0 0 0 0 0 0 0 0 0 0 0 0 0 0 0
0 0 0 0;
#X coords 0 1 99 0 300 100 1;
#X restore 845 290 graph;
#X msg 921 135 0;
#X obj 845 191 / 100;
#X obj 845 174 t f f;
#X obj 845 137 until;
#X obj 846 119 t f b;
#X msg 846 102 100;
#X obj 1178 208 + 0.62;
#X obj 1178 191 * 4.38;
#X obj 1049 60 vsl 15 128 0 10 0 0 empty cursor-width empty 0 -9 0
10 -262144 -1 -1 10000 1;
#X obj 1049 194 t b f;
#X text 82 708 ____________________________________________________________
;
#X text 445 713 Calcular la distancia gauss;
#X obj 183 503 +;
#X obj 183 520 sqrt;
#X obj 313 486 pow 2;
#X obj 183 486 pow 2;
#X obj 420 71 t b f;
#X obj 313 467 abs;
#X obj 183 468 abs;
#X obj 183 762 tabread sigma;
#X obj 183 724 * 100;
#X obj 183 743 int;
#N canvas 320 139 237 246 serialize 0;
#X obj 55 155 list split 1;
#X obj 55 121 until;
#X obj 55 138 list append;
#X obj 55 104 t b l;
#X obj 124 104 bang;
#X obj 59 67 inlet;
#X obj 53 210 outlet;
#X obj 120 217 outlet;
#X obj 124 178 t b b;
#X connect 0 0 6 0;
#X connect 0 1 2 1;
#X connect 0 2 8 0;
#X connect 1 0 2 0;
#X connect 2 0 0 0;
#X connect 3 0 1 0;
#X connect 3 1 2 1;
#X connect 4 0 1 1;
#X connect 5 0 3 0;
#X connect 8 0 7 0;
#X connect 8 1 4 0;
#X restore 136 925 pd serialize a list;
#X obj 299 942 *;
#X obj 190 978 list;
#X obj 299 961 repack 48;
#X msg 117 961 row \$1;
#X obj 190 995 list trim;
#X obj 117 199 t f f f;
#X obj 136 906 list split 48;
#X text 81 1006 ____________________________________________________________
;
#X text 443 1010 Matriz de resultado;
#X obj 117 367 + 1;
#X obj 100 1067 until;
#X msg 100 1029 48;
#X obj 100 1086 f;
#X obj 122 1086 + 1;
#X obj 100 1048 t f b;
#X msg 147 1067 0;
#X text 362 961 <<< son 48 presets;
#X text 131 1029 <<< son 48 presets;
#X msg 100 1149 col \$1;
#X obj 146 1184 sum;
#X obj 100 1130 + 1;
#X obj 146 1204 tabwrite parametros;
#X obj 100 1107 t f f;
#N canvas 350 229 709 329 parametertable 0;
#X obj -232 198 textfile;
#X msg -232 141 rewind;
#X msg -134 181 read parameter-order.txt cr;
#X obj -161 100 loadbang;
#X obj -161 117 t b b;
#X text 36 34 /////////////////////////////////////////////////////////
;
#X text 37 58 /////////////////////////////////////////////////////////
;
#X text 39 76 Lo que hace:;
#X text 40 165 2- envía a cada slider su valor usando el nombre que
viene de el archivo y el valor de la tabla.;
#X msg -297 45 bang;
#X obj -297 107 until;
#X msg -161 134 rewind;
#X obj -297 124 t b b;
#X obj -297 196 f;
#X obj -297 62 t b b b;
#X msg -226 79 0;
#X obj -261 199 + 1;
#X obj -232 244 symbol;
#X obj -298 298 table parametros 48;
#X obj -297 261 tabread parametros;
#X obj -297 278 s;
#X text 40 101 0- carga el archivo llamado "parameter-order.txt" en
el objeto textfile;
#X text 39 124 1- Cada que recive un bang a través de la variable "spread"
lee los nombres de todos los parámetros del archivo 'parameter-order'
y paralelo lee la tabla parametros.;
#X text -171 298 <- En este momento hay 48 variables en el sintetizador
;
#X text 37 45 Desde este patch se envían valores a cada parámetro;
#X obj -297 21 inlet;
#X connect 0 0 17 0;
#X connect 0 1 10 1;
#X connect 1 0 0 0;
#X connect 2 0 0 0;
#X connect 3 0 4 0;
#X connect 4 0 11 0;
#X connect 4 1 2 0;
#X connect 9 0 14 0;
#X connect 10 0 12 0;
#X connect 11 0 0 0;
#X connect 12 0 13 0;
#X connect 12 1 0 0;
#X connect 13 0 16 0;
#X connect 13 0 19 0;
#X connect 14 0 10 0;
#X connect 14 1 1 0;
#X connect 14 2 15 0;
#X connect 15 0 13 1;
#X connect 16 0 13 1;
#X connect 17 0 20 1;
#X connect 19 0 20 0;
#X connect 25 0 9 0;
#X restore 68 1225 pd parametertable;
#X obj 420 51 inlet;
#X obj 467 51 inlet;
#X text 419 33 xpos;
#X text 466 31 ypos;
#X obj 38 5 iemmatrix 0.2;
#X obj 100 1167 matrix 45 48;
#X text 80 396 ____________________________________________________________
;
#X text 443 401 Calcular la distancia del cursor al preset;
#X obj 328 412 / 100;
#X obj 198 412 / 100;
#X obj 328 431 - 1;
#X obj 198 431 - 1;
#X text 364 406 *;
#X text 364 412 *;
#X text 364 418 *;
#X text 364 424 *;
#X text 364 430 *;
#X text 364 436 *;
#X text 373 435 <<<<<<<<<<;
#X text 438 434 Los MFCC están entre -1 y 1 Entonces tenemos que convertir
el valor que viene desde el cursor a esas mismas unidades para poder
calculra la distancia.;
#X text 338 1062 Aqui extraemos cada columna (parámetros) \, la sumamos
y luego la escribimos en la tabla parámetros.;
#X text 180 1166 <--------------------Esta es la matriz resultado!!!!!
;
#X text 429 190 Iteración a todas las filas de la matriz para extraer
los valores de los MFCC que se han seleccoinado en la interfaz.;
#X text 423 190 <;
#X obj 375 573 +;
#X obj 400 573 f;
#X msg 400 554 0;
#X text 80 529 ____________________________________________________________
;
#X text 443 533 A la salida de la raiz cuadrada tenemos las distancias
lineales;
#X obj 360 592 f;
#X msg 400 122 bang;
#X text 364 442 *;
#X text 364 448 *;
#X text 364 454 *;
#X text 364 460 *;
#X text 364 466 *;
#X text 364 472 *;
#X text 387 593 Sumammos todas las distancias al cursor en cada momento
;
#X obj 183 556 t f f;
#X obj 1041 584 min;
#X obj 1068 583 f;
#X msg 1285 566 1000;
#X obj 1041 601 change;
#X text 1315 564 reset;
#X obj 990 546 t f f f f;
#X obj 1041 567 t f b;
#X obj 1080 637 print smallest1;
#X obj 1024 639 sel;
#X obj 1039 677 min;
#X obj 1066 676 f;
#X obj 1039 696 change;
#X obj 1039 658 t f b;
#X obj 1039 715 t f f;
#X obj 1066 734 print smallest2;
#X obj 1024 740 sel;
#X obj 1039 778 min;
#X obj 1066 777 f;
#X obj 1039 797 change;
#X obj 1039 759 t f b;
#X obj 1039 816 t f f;
#X obj 1066 835 print smallest3;
#X obj 1007 715 sel;
#X obj 1041 618 t f f f;
#X msg 990 527 10 \, 15 \, -1 \, 22 \, -3 \, 13 \, 9 \, 40 \, 1 \,
11;
#X obj 1178 155 * 2;
#X obj 1178 173 pow 2;
#X obj 344 1211 clip 0 1;
#X text 1026 485 Esto es un sketch de como encontrar las tres distancias
mínimas;
#X obj 183 644 /;
#X text 209 639 Dividimos cada distancia por la distancia total de
la iteración anterior. Esto nos da cada distancia normalizada.;
#X text 218 722 (la tabla tiene 100 puntos);
#X text 388 603 y hallamos la distancia total. Este es el penúltimo
paso del loop (mirar el bang que saca el resultado);
#N canvas 0 0 450 300 addall 0;
#X obj 157 135 +;
#X obj 182 135 f;
#X msg 182 116 0;
#X obj 142 154 f;
#X obj 157 50 inlet;
#X text 156 29 Numbers;
#X text 254 28 Reset before start;
#X obj 262 47 inlet;
#X obj 54 101 inlet;
#X text 31 79 Output total!;
#X obj 142 190 outlet;
#X connect 0 0 1 0;
#X connect 0 0 3 1;
#X connect 1 0 0 1;
#X connect 2 0 1 0;
#X connect 3 0 10 0;
#X connect 4 0 0 0;
#X connect 7 0 2 0;
#X connect 8 0 3 0;
#X restore 381 779 pd addall;
#X obj 29 575 t b b b;
#X msg 29 762 bang;
#X obj 85 105 t b b b b b b;
#X msg 434 122 bang;
#X text 442 776 Suma total de distancias gauss (iteración anterior)
;
#X obj 274 853 *;
#X obj 393 836 /;
#X obj 381 798 t b f;
#X msg 381 817 1;
#X text 432 816 Inverso multiplicativo;
#X text 300 853 Amplificar para que la suma total sea 1;
#X obj 1178 137 clip 0 10;
#X obj 226 667 - 1;
#X obj 226 684 * -1;
#X connect 0 1 2 0;
#X connect 1 1 3 0;
#X connect 2 0 23 0;
#X connect 3 0 24 0;
#X connect 4 0 63 0;
#X connect 4 1 0 0;
#X connect 4 2 1 0;
#X connect 5 0 0 1;
#X connect 6 0 1 1;
#X connect 7 0 8 0;
#X connect 9 0 17 0;
#X connect 10 0 11 0;
#X connect 11 0 12 0;
#X connect 11 0 62 0;
#X connect 12 0 11 1;
#X connect 13 0 156 0;
#X connect 14 0 11 1;
#X connect 15 0 7 0;
#X connect 16 0 20 0;
#X connect 17 0 4 0;
#X connect 18 0 10 1;
#X connect 19 0 17 1;
#X connect 19 1 18 0;
#X connect 20 0 19 0;
#X connect 21 0 22 0;
#X connect 22 0 5 0;
#X connect 22 1 6 0;
#X connect 23 0 52 0;
#X connect 24 0 51 0;
#X connect 28 0 29 0;
#X connect 29 0 30 0;
#X connect 31 0 32 0;
#X connect 31 0 36 0;
#X connect 32 0 31 1;
#X connect 34 0 31 1;
#X connect 35 0 28 0;
#X connect 36 0 35 0;
#X connect 36 1 30 1;
#X connect 37 0 31 0;
#X connect 38 0 37 0;
#X connect 38 1 34 0;
#X connect 39 0 38 0;
#X connect 40 0 29 1;
#X connect 41 0 40 0;
#X connect 42 0 43 0;
#X connect 43 0 39 0;
#X connect 43 1 165 0;
#X connect 46 0 47 0;
#X connect 47 0 119 0;
#X connect 48 0 46 1;
#X connect 49 0 46 0;
#X connect 50 0 13 0;
#X connect 50 1 90 0;
#X connect 51 0 48 0;
#X connect 52 0 49 0;
#X connect 53 0 153 1;
#X connect 53 0 159 0;
#X connect 54 0 55 0;
#X connect 55 0 53 0;
#X connect 56 0 57 0;
#X connect 57 0 59 0;
#X connect 58 0 61 0;
#X connect 59 0 58 1;
#X connect 60 0 58 0;
#X connect 61 0 86 0;
#X connect 62 0 66 0;
#X connect 62 1 15 0;
#X connect 62 2 16 0;
#X connect 63 0 56 0;
#X connect 66 0 60 0;
#X connect 67 0 69 0;
#X connect 68 0 71 0;
#X connect 69 0 70 0;
#X connect 69 0 79 0;
#X connect 70 0 69 1;
#X connect 71 0 67 0;
#X connect 71 1 72 0;
#X connect 72 0 69 1;
#X connect 75 0 86 0;
#X connect 76 0 147 0;
#X connect 77 0 75 0;
#X connect 79 0 77 0;
#X connect 79 1 78 1;
#X connect 81 0 50 0;
#X connect 82 0 89 0;
#X connect 86 0 76 0;
#X connect 89 0 91 0;
#X connect 90 0 92 0;
#X connect 91 0 24 1;
#X connect 92 0 23 1;
#X connect 105 0 106 0;
#X connect 105 0 110 1;
#X connect 106 0 105 1;
#X connect 107 0 106 0;
#X connect 110 0 149 1;
#X connect 111 0 107 0;
#X connect 119 0 149 0;
#X connect 119 1 105 0;
#X connect 120 0 121 1;
#X connect 120 0 123 0;
#X connect 121 0 120 1;
#X connect 122 0 121 1;
#X connect 122 0 130 1;
#X connect 122 0 137 1;
#X connect 123 0 143 0;
#X connect 125 1 142 0;
#X connect 125 2 128 0;
#X connect 125 3 126 0;
#X connect 126 0 120 0;
#X connect 126 1 121 0;
#X connect 128 1 132 0;
#X connect 129 0 130 1;
#X connect 129 0 131 0;
#X connect 130 0 129 1;
#X connect 131 0 133 0;
#X connect 132 0 129 0;
#X connect 132 1 130 0;
#X connect 133 0 135 1;
#X connect 133 1 134 0;
#X connect 135 1 139 0;
#X connect 136 0 137 1;
#X connect 136 0 138 0;
#X connect 137 0 136 1;
#X connect 138 0 140 0;
#X connect 139 0 136 0;
#X connect 139 1 137 0;
#X connect 140 1 141 0;
#X connect 142 1 135 0;
#X connect 143 0 142 1;
#X connect 143 1 128 1;
#X connect 143 2 127 0;
#X connect 144 0 125 0;
#X connect 145 0 146 0;
#X connect 146 0 41 0;
#X connect 147 0 78 0;
#X connect 149 0 166 0;
#X connect 149 0 54 0;
#X connect 153 0 161 0;
#X connect 154 0 155 0;
#X connect 154 1 110 0;
#X connect 154 2 80 0;
#X connect 155 0 153 0;
#X connect 156 0 154 0;
#X connect 156 1 68 0;
#X connect 156 2 10 0;
#X connect 156 3 14 0;
#X connect 156 4 111 0;
#X connect 156 5 157 0;
#X connect 157 0 153 2;
#X connect 159 0 57 1;
#X connect 160 0 159 1;
#X connect 161 0 162 0;
#X connect 161 1 160 1;
#X connect 162 0 160 0;
#X connect 165 0 145 0;
#X connect 166 0 167 0;
#X restore -252 503 pd calcular distancias amplitudes y matrizresultado
;
#X text -611 497 calcular distancia \, gauss \, amplitudes \, la matriz
final y el estado final >>>>>>>>>>>>>>>>>>>>>>>>>>>>>>>>>>>>>>>>>>>>>
;
#X obj -388 77 loadbang;
#X text -392 -40 TO-DO: detect current directory in [dicectory] instead
of using absolute paths;
#X text -515 132 Name of each preset:;
#X text -491 161 Read one preset:;
#X text -529 185 Give format to vector:;
#X text -392 -2 TO-DO: MFCC are random numbers for now. They should
be saved in the preset files instead;
#X obj -523 338 inlet;
#X obj -481 338 inlet;
#X text -603 336 Which mfcc x;
#X text -443 338 Which mfcc y;
#X obj -488 446 s selectedMFCC;
#X obj -488 416 pack f f;
#X obj -481 377 t b f;
#X obj -252 466 inlet;
#X obj 51 472 inlet;
#X text -254 448 XPos;
#X text 50 454 YPos;
#X text -598 213 Add 13 random mfcc coefs to preset;
#X text -523 260 Save preset in matrix;
#X msg -459 74 bang;
#X obj -568 -36 iemmatrix 0.2;
#X obj -388 260 matrix 45 61;
#X text -131 259 -- 45 columnas de 45 presets;
#X obj -261 155 print;
#X connect 0 0 7 0;
#X connect 1 0 38 0;
#X connect 2 0 38 0;
#X connect 4 0 7 1;
#X connect 4 0 13 0;
#X connect 7 0 38 0;
#X connect 8 0 38 0;
#X connect 10 0 0 0;
#X connect 11 0 10 0;
#X connect 11 1 4 0;
#X connect 17 0 11 0;
#X connect 23 0 28 0;
#X connect 24 0 29 0;
#X connect 28 0 27 0;
#X connect 29 0 28 0;
#X connect 29 1 28 1;
#X connect 30 0 15 0;
#X connect 31 0 15 1;
#X connect 36 0 11 0;
#X connect 38 0 9 0;
