#N canvas 0 54 1280 746 10;
#X obj 599 -89 / 12;
#X obj 380 30 *~;
#X obj 452 72 +~;
#X msg 80 95 2;
#X obj 80 64 loadbang;
#X text 139 147 osc1 calculated frequency;
#X obj -22 306 *~;
#X obj 115 148 *~;
#X obj 401 -101 sig~;
#X obj -79 -139 inlet;
#X text -105 -159 Waveform [0 \, 1];
#X obj 46 -136 inlet;
#X text 22 -155 Amplitude [0 \, 1];
#X obj -23 339 outlet~;
#X text 52 208 OSC;
#X text 329 -68 LFO;
#X obj 254 -139 inlet;
#X obj 401 -133 inlet;
#X text 210 -157 LFO waveform [0 \, 1];
#X text 597 -142 Finetune [-1 \, 1];
#X obj 503 -111 inlet;
#X text 475 -131 LFO to freq [0 \, 1];
#X obj 599 -121 inlet;
#X obj 130 -180 inlet;
#X text 379 -151 LFO freq [0 \, 200];
#X text 96 -198 Frequency [0 \, 20000];
#X obj 845 -64 inlet;
#X text 797 -83 LFO to amplitude [0 \, 1];
#X obj 830 -24 *~;
#X obj 830 11 +~ 1;
#X obj 45 273 *~;
#X obj 737 -88 inlet;
#X text 731 -112 Phase synchronization;
#X obj -22 208 oscillator;
#X obj 359 -66 oscillator;
#X obj 115 119 pow~;
#X connect 0 0 2 1;
#X connect 1 0 2 0;
#X connect 2 0 35 1;
#X connect 3 0 35 0;
#X connect 4 0 3 0;
#X connect 6 0 13 0;
#X connect 7 0 33 1;
#X connect 8 0 34 1;
#X connect 9 0 33 0;
#X connect 11 0 30 0;
#X connect 16 0 34 0;
#X connect 17 0 8 0;
#X connect 20 0 1 1;
#X connect 22 0 0 0;
#X connect 23 0 7 1;
#X connect 26 0 28 1;
#X connect 28 0 29 0;
#X connect 29 0 30 1;
#X connect 30 0 6 1;
#X connect 31 0 33 2;
#X connect 31 0 34 2;
#X connect 33 0 6 0;
#X connect 34 0 1 0;
#X connect 34 0 28 0;
#X connect 35 0 7 0;
