#N canvas 423 246 429 214 10;
#X obj 105 118 hsl 175 15 0 1 0 0 empty empty empty -2 -8 0 9 -262144
-1 -1 8800 1;
#X floatatom 149 137 7 0 0 0 - - -;
#X floatatom 102 137 7 0 1 0 - - -;
#X text 14 -46 Sends a signal ("public" signal in [map] object) and
displays the mapped and unmapped values in number boxes.;
#X obj 58 50 r __\$1;
#X obj 321 132 r _\$1;
#X text 3 25 Unmapped Signal;
#X text 300 112 Mapped signal;
#X text 206 55 "Public" signal;
#X obj 241 73 s \$1;
#X obj 125 20 loadbang;
#X msg 102 74 set \$1;
#X connect 0 0 9 0;
#X connect 4 0 2 0;
#X connect 4 0 11 0;
#X connect 5 0 1 0;
#X connect 11 0 0 0;
#X coords 0 -1 1 1 185 55 1 100 100;
