#N canvas 156 309 250 287 10;
#X obj 78 116 dac~;
#X obj 157 81 *~ 1;
#X obj 158 37 *~ 0.2;
#X obj 14 83 *~ 1;
#X obj 15 20 osc~ 440;
#X obj 15 39 *~ 0.2;
#X obj 158 18 osc~ 660;
#X connect 1 0 0 1;
#X connect 2 0 1 0;
#X connect 3 0 0 0;
#X connect 4 0 5 0;
#X connect 5 0 3 0;
#X connect 6 0 2 0;
