#N canvas 665 221 450 300 10;
#N canvas 705 600 494 344 META 1;
#X text 12 25 LICENSE GPL v3;
#X text 12 45 DESCRIPTION Lists the contents of a directory in the
filesystem;
#X text 12 79 INLET_0 read bang rewind;
#X text 12 99 AUTHOR Rafael Vega Gonzalez;
#X text 12 5 KEYWORDS ls directory filesystem;
#X restore 370 250 pd META;
#X obj 89 166 directory;
#X obj 89 209 print;
#X msg 152 95 bang;
#X msg 118 28 read /tmp;
#X msg 118 58 read C:/;
#X msg 152 125 rewind;
#X obj 140 209 print done;
#X connect 1 0 2 0;
#X connect 1 1 7 0;
#X connect 3 0 1 0;
#X connect 4 0 1 0;
#X connect 5 0 1 0;
#X connect 6 0 1 0;
